<svg xmlns="http://www.w3.org/2000/svg" width="101.946" height="30.037" viewBox="0 0 101.946 30.037"><title>2Zurik-alerts-logo</title><g id="Layer_2" data-name="Layer 2"><g id="Zurik_Alerts_ticker" data-name="Zurik Alerts ticker"><path d="M9.973,12.493v2.543H.077L5.546,6.029H1.011V3.486h9.56L5.132,12.493Z" fill="#fff"/><path d="M24.8,3.486v6.5c0,1.486-.061,2.957-1.21,4.075a5.514,5.514,0,0,1-3.83,1.287,5.514,5.514,0,0,1-3.83-1.287c-1.149-1.118-1.21-2.589-1.21-4.075v-6.5h3V9.567c0,1.5.107,3.141,2.038,3.141S21.8,11.069,21.8,9.567V3.486Z" fill="#fff"/><path d="M39.363,15.037H35.625l-2.834-4.443H32.76v4.443h-3V3.486h4.489c2.283,0,4.014,1.088,4.014,3.554A3.105,3.105,0,0,1,35.732,10.3Zm-6.6-6.373h.292c.98,0,2.083-.184,2.083-1.44s-1.1-1.44-2.083-1.44H32.76Z" fill="#fff"/><path d="M46.237,15.037h-3V3.486h3Z" fill="#fff"/><path d="M57.924,3.486h3.723l-4.6,5.469,5.009,6.082H58.169l-3.876-5.01h-.03v5.01h-3V3.486h3V8.25h.03Z" fill="#fff"/><path d="M2.8,26.559,1.41,29.837H0l5.332-12.1,5.193,12.1H9.1L7.737,26.559Zm2.5-5.821L3.325,25.364H7.231Z" fill="#fff"/><path d="M15.576,28.642h3.187v1.2H14.289V18.286h1.287Z" fill="#fff"/><path d="M22.544,18.286h5.99v1.195h-4.7v3.432H28.4v1.195H23.831v4.535h4.7v1.2h-5.99Z" fill="#fff"/><path d="M34.521,29.837H33.234V18.286H34.9c2.191,0,4.229.582,4.229,3.187a3.019,3.019,0,0,1-2.9,3.187l3.677,5.178H38.335l-3.493-5.071h-.322Zm0-6.2h.4c1.455,0,2.926-.276,2.926-2.068,0-1.9-1.394-2.083-2.941-2.083h-.383Z" fill="#fff"/><path d="M46.8,29.837H45.518V19.481H42.729V18.286h6.894v1.195H46.8Z" fill="#fff"/><path d="M58.689,20.538A2.121,2.121,0,0,0,56.7,19.282a1.833,1.833,0,0,0-1.915,1.792c0,1,1.026,1.455,1.808,1.808l.766.337c1.5.659,2.773,1.409,2.773,3.248a3.646,3.646,0,0,1-7.231.582l1.256-.352a2.379,2.379,0,0,0,2.313,2.145,2.322,2.322,0,0,0,2.375-2.252c0-1.348-1.057-1.808-2.13-2.3l-.7-.307c-1.348-.613-2.512-1.3-2.512-2.957a3.032,3.032,0,0,1,3.232-2.941,3.315,3.315,0,0,1,2.987,1.792Z" fill="#fff"/><polygon points="84.354 12.307 86.997 0 89.639 12.307 101.946 14.949 89.639 17.592 86.997 29.899 84.354 17.592 72.047 14.949 84.354 12.307" fill="#fff"/></g></g></svg>