<svg xmlns="http://www.w3.org/2000/svg" viewBox="0 0 32 32"><defs><style>.cls-1{fill:#FF2737;}</style></defs><title>banking_icon</title><g id="Capa_2" data-name="Capa 2"><g id="Reulation_tracker_list" data-name="Reulation tracker list"><path class="cls-1" d="M31,0H1A1,1,0,0,0,0,1V31a1,1,0,0,0,1,1H31a1,1,0,0,0,1-1V1A1,1,0,0,0,31,0ZM30,30H2V2H30Z"/><path class="cls-1" d="M16,19a3,3,0,1,0-3-3A3,3,0,0,0,16,19Zm0-4a1,1,0,1,1-1,1A1,1,0,0,1,16,15Z"/><path class="cls-1" d="M10,20.25,7.37,22.93l1.71,1.71L11.75,22a7.28,7.28,0,0,0,3,1.26V27h2.41V23.21a7.28,7.28,0,0,0,3-1.26l2.68,2.68,1.71-1.71L22,20.25a7.28,7.28,0,0,0,1.26-3H27V14.79H23.21a7.28,7.28,0,0,0-1.26-3l2.68-2.68L22.93,7.37,20.25,10a7.28,7.28,0,0,0-3-1.26V5H14.79V8.79a7.28,7.28,0,0,0-3,1.26L9.07,7.37,7.37,9.07,10,11.75a7.28,7.28,0,0,0-1.26,3H5v2.41H8.79A7.28,7.28,0,0,0,10,20.25Zm6-9.16A4.91,4.91,0,1,1,11.09,16,4.92,4.92,0,0,1,16,11.09Z"/></g></g></svg>