<svg xmlns="http://www.w3.org/2000/svg" viewBox="0 0 46.86 41"><defs><style>.cls-1{fill:#fff;}</style></defs><title>interactive_icon</title><g id="Capa_2" data-name="Capa 2"><g id="Search_results" data-name="Search results"><path class="cls-1" d="M45.39,0H1.46A1.46,1.46,0,0,0,0,1.46V39.54A1.46,1.46,0,0,0,1.46,41H45.39a1.46,1.46,0,0,0,1.46-1.46V1.46A1.46,1.46,0,0,0,45.39,0ZM43.93,2.93V8.79h-41V2.93Zm-41,14.64V11.71h41v5.86Zm0,2.93h7.32V38.07H2.93ZM13.18,38.07V20.5H43.93V38.07Z"/><rect class="cls-1" x="5.86" y="4.39" width="2.93" height="2.93"/><rect class="cls-1" x="11.71" y="4.39" width="2.93" height="2.93"/></g></g></svg>