<svg xmlns="http://www.w3.org/2000/svg" viewBox="0 0 32.5 40"><defs><style>.cls-1{fill:#50535B;}</style></defs><title>pdf_icon</title><g id="Capa_2" data-name="Capa 2"><g id="Search_results" data-name="Search results"><path class="cls-1" d="M8.54,33.49A1.81,1.81,0,0,1,7,32.65c-.23-.3-.92-1.42.4-3.15a11.3,11.3,0,0,1,4.68-3.61c.32-.9.65-1.91,1-3s.68-2.28.9-3.16a8.9,8.9,0,0,1-2.14-5.14c-.19-1.93,1-2.59,1.68-2.67h0c.06,0,1.85-.07,2.29,2.62a11.84,11.84,0,0,1-.49,4.87,30.64,30.64,0,0,0,3.13,3l1.25,1.06c3.4-.59,5.13-.08,5.83.23a2,2,0,0,1,1.23,2.39c-.13.58-.9,1.67-2.77,1.41-1.1-.15-1.9-.46-4.62-2.69a30.38,30.38,0,0,0-3.57,1,28.27,28.27,0,0,0-2.73,1c-1.07,3-2.34,5.69-3.52,6.38A2.09,2.09,0,0,1,8.54,33.49Zm2.92-5.85a9.15,9.15,0,0,0-3,2.61C7.6,31.35,8,31.85,8,31.87l.08.1c.13.21.4.4.88.13S10.36,30.44,11.47,27.64Zm9.63-3.11C23,26,23.52,26.16,24.21,26.25c1.23.17,1.39-.47,1.39-.48a.8.8,0,0,0-.54-.95A7.83,7.83,0,0,0,21.09,24.54ZM15,20.83c-.2.71-.43,1.51-.7,2.4-.2.65-.41,1.32-.64,2,.55-.22,1.14-.43,1.79-.65,1-.33,1.91-.59,2.75-.79l-.51-.43A35.38,35.38,0,0,1,15,20.83Zm-1.34-7.69c-.2.05-.65.28-.55,1.29a7.17,7.17,0,0,0,1.28,3.68,8.6,8.6,0,0,0,.25-3.4C14.42,13.34,13.82,13.16,13.67,13.14Z"/><path class="cls-1" d="M31.25,0H8.75a1.25,1.25,0,0,0-.88.37L.37,7.87A1.25,1.25,0,0,0,0,8.75v30A1.25,1.25,0,0,0,1.25,40h30a1.25,1.25,0,0,0,1.25-1.25V1.25A1.25,1.25,0,0,0,31.25,0ZM7.5,4.27V7.5H4.27ZM30,37.5H2.5V10H8.75A1.25,1.25,0,0,0,10,8.75V2.5H30Z"/></g></g></svg>