<svg xmlns="http://www.w3.org/2000/svg" viewBox="0 0 22 32"><defs><style>.cls-1{fill:#FF2737;}</style></defs><title>pensions_icon</title><g id="Capa_2" data-name="Capa 2"><g id="Reulation_tracker_list" data-name="Reulation tracker list"><path class="cls-1" d="M11,0A11,11,0,0,0,0,11v2A11,11,0,0,0,10,23.95V32h2V23.95A11,11,0,0,0,22,13V11A11,11,0,0,0,11,0Zm9,13a9,9,0,0,1-8,8.94V16.41l3.71-3.71-1.41-1.41L12,13.59V10.41l2.71-2.71L13.29,6.29,11,8.59,8.71,6.29,7.29,7.71,10,10.41v6.17L7.71,14.29,6.29,15.71,10,19.41v2.53A9,9,0,0,1,2,13V11a9,9,0,0,1,18,0Z"/></g></g></svg>