<svg xmlns="http://www.w3.org/2000/svg" width="11.542" height="117.827" viewBox="0 0 11.542 117.827"><title>regulatio-tracker-left</title><g id="Capa_2" data-name="Capa 2"><g id="Collapsible_panels" data-name="Collapsible panels"><path d="M11.62,120.1v1.177H1.058v-1.527c0-2,.533-3.866,2.914-3.866a2.759,2.759,0,0,1,2.913,2.647l4.735-3.362v1.443l-4.636,3.194v.294Zm-5.673,0v-.364c0-1.331-.252-2.675-1.891-2.675-1.737,0-1.905,1.274-1.905,2.689v.35Z" transform="translate(-0.554 -3.454)" fill="#fff"/><path d="M1.058,110.894v-5.477H2.151v4.3H5.289v-4.174H6.381v4.174h4.146v-4.3H11.62v5.477Z" transform="translate(-0.554 -3.454)" fill="#fff"/><path d="M6.311,90.8a5.024,5.024,0,0,1,3.727,1.092A5.221,5.221,0,0,1,11.8,95.8,5.463,5.463,0,1,1,3.16,91.26l.8.854a4.3,4.3,0,0,0-1.989,3.628,4.382,4.382,0,0,0,4.412,4.314,4.256,4.256,0,0,0,2.983-1.232,4.438,4.438,0,0,0,1.345-3c0-1.835-1.345-3.768-3.306-3.768V95.2H6.311Z" transform="translate(-0.554 -3.454)" fill="#fff"/><path d="M7.348,85.188A3.908,3.908,0,0,0,9.7,84.727,2.726,2.726,0,0,0,10.709,82.6a2.8,2.8,0,0,0-.938-2.073,3.637,3.637,0,0,0-2.423-.518H1.058V78.829H7.67a3.712,3.712,0,0,1,2.928.925A3.883,3.883,0,0,1,11.8,82.6a3.951,3.951,0,0,1-1.079,2.731A3.723,3.723,0,0,1,7.67,86.365H1.058V85.188Z" transform="translate(-0.554 -3.454)" fill="#fff"/><path d="M10.528,72.771V69.857H11.62v4.09H1.058V72.771Z" transform="translate(-0.554 -3.454)" fill="#fff"/><path d="M8.623,64.314l3,1.275v1.289L.554,62,11.62,57.255v1.3l-3,1.246ZM3.3,62.031l4.23,1.807V60.267Z" transform="translate(-0.554 -3.454)" fill="#fff"/><path d="M11.62,51.63v1.177H2.151v2.55H1.058v-6.3H2.151V51.63Z" transform="translate(-0.554 -3.454)" fill="#fff"/><path d="M11.62,43.847v1.177H1.058V43.847Z" transform="translate(-0.554 -3.454)" fill="#fff"/><path d="M6.353,28.428a5.5,5.5,0,1,1-5.477,5.5A5.476,5.476,0,0,1,6.353,28.428Zm-.014,9.833a4.328,4.328,0,1,0-4.37-4.328A4.367,4.367,0,0,0,6.339,38.261Z" transform="translate(-0.554 -3.454)" fill="#fff"/><path d="M.61,23.968l8.629-8.236H1.058V14.555H12.1L3.482,22.791H11.62v1.177Z" transform="translate(-0.554 -3.454)" fill="#fff"/><path d="M3.118,4.771A1.94,1.94,0,0,0,1.969,6.592,1.676,1.676,0,0,0,3.608,8.343c.91,0,1.331-.938,1.653-1.653l.308-.7c.6-1.372,1.289-2.535,2.97-2.535A3.262,3.262,0,0,1,11.8,6.773a3.264,3.264,0,0,1-2.731,3.292L8.749,8.917A2.176,2.176,0,0,0,10.709,6.8,2.123,2.123,0,0,0,8.65,4.631c-1.232,0-1.653.967-2.1,1.947l-.28.644c-.56,1.233-1.19,2.3-2.7,2.3A2.772,2.772,0,0,1,.876,6.563,3.031,3.031,0,0,1,2.515,3.832Z" transform="translate(-0.554 -3.454)" fill="#fff"/></g></g></svg>