<svg xmlns="http://www.w3.org/2000/svg" width="32" height="32" viewBox="0 0 32 32"><title>banking_icon</title><g id="Capa_2" data-name="Capa 2"><g id="Reulation_tracker_list" data-name="Reulation tracker list"><path d="M31,0H1A1,1,0,0,0,0,1V31a1,1,0,0,0,1,1H31a1,1,0,0,0,1-1V1A1,1,0,0,0,31,0ZM30,30H2V2H30Z" fill="#cfd8e5"/><path d="M16,19a3,3,0,1,0-3-3A3,3,0,0,0,16,19Zm0-4a1,1,0,1,1-1,1A1,1,0,0,1,16,15Z" fill="#cfd8e5"/><path d="M10.046,20.248,7.369,22.925l1.706,1.706,2.678-2.678a7.275,7.275,0,0,0,3.041,1.261V27h2.413V23.215a7.275,7.275,0,0,0,3.041-1.261l2.678,2.678,1.706-1.706-2.678-2.678a7.276,7.276,0,0,0,1.261-3.041H27V14.793H23.215a7.276,7.276,0,0,0-1.261-3.041l2.678-2.678L22.925,7.369l-2.678,2.678a7.275,7.275,0,0,0-3.041-1.261V5H14.793V8.785a7.275,7.275,0,0,0-3.041,1.261L9.075,7.369,7.369,9.075l2.678,2.678a7.276,7.276,0,0,0-1.261,3.041H5v2.413H8.785A7.276,7.276,0,0,0,10.046,20.248ZM16,11.09A4.91,4.91,0,1,1,11.09,16,4.915,4.915,0,0,1,16,11.09Z" fill="#cfd8e5"/></g></g></svg>