<svg xmlns="http://www.w3.org/2000/svg" width="31.414" height="32" viewBox="0 0 31.414 32"><title>consumer_icon</title><g id="Capa_2" data-name="Capa 2"><g id="Reulation_tracker_list" data-name="Reulation tracker list"><path d="M15.707,18a3,3,0,1,1-3,3h-2a5.008,5.008,0,0,0,4,4.9V28h2V25.9a5,5,0,0,0-1-9.9,3,3,0,1,1,3-3h2a5.008,5.008,0,0,0-4-4.9V6h-2V8.1a5,5,0,0,0,1,9.9Z" fill="#cfd8e5"/><path d="M16.414.293A1,1,0,0,0,15,.293l-15,15,1.414,1.414,2.293-2.293V31a1,1,0,0,0,1,1h22a1,1,0,0,0,1-1V14.414L30,16.707l1.414-1.414ZM25.707,30h-20V12.414l10-10,10,10Z" fill="#cfd8e5"/></g></g></svg>