<svg xmlns="http://www.w3.org/2000/svg" width="32" height="22" viewBox="0 0 32 22"><title>financial_crime_icon</title><g id="Capa_2" data-name="Capa 2"><g id="Reulation_tracker_list" data-name="Reulation tracker list"><path d="M31,0H1A1,1,0,0,0,0,1V21a1,1,0,0,0,1,1H19V20H2V2H30V12h2V1A1,1,0,0,0,31,0Z" fill="#cfd8e5"/><path d="M16,5a6,6,0,1,0,6,6A6.007,6.007,0,0,0,16,5Zm0,10a4,4,0,1,1,4-4A4,4,0,0,1,16,15Z" fill="#cfd8e5"/><path d="M8,4H5A1,1,0,0,0,4,5V8H6V6H8Z" fill="#cfd8e5"/><path d="M28,8V5a1,1,0,0,0-1-1H24V6h2V8Z" fill="#cfd8e5"/><path d="M4,14v3a1,1,0,0,0,1,1H8V16H6V14Z" fill="#cfd8e5"/><polygon points="29.293 13.293 27 15.586 24.707 13.293 23.293 14.707 25.586 17 23.293 19.293 24.707 20.707 27 18.414 29.293 20.707 30.707 19.293 28.414 17 30.707 14.707 29.293 13.293" fill="#cfd8e5"/></g></g></svg>