<svg xmlns="http://www.w3.org/2000/svg" viewBox="0 0 26 32"><defs><style>.cls-1{fill:#cfd8e5;}</style></defs><title>pdf_icon-gray</title><g id="Capa_2" data-name="Capa 2"><g id="User_profile_panels" data-name="User profile panels"><path class="cls-1" d="M6.83,26.79a1.45,1.45,0,0,1-1.2-.67C5.45,25.88,4.9,25,6,23.6a9,9,0,0,1,3.74-2.89c.25-.72.52-1.53.8-2.43s.54-1.83.72-2.53A7.12,7.12,0,0,1,9.5,11.65c-.15-1.54.81-2.07,1.34-2.13h0c.05,0,1.48-.06,1.83,2.1a9.47,9.47,0,0,1-.39,3.9,24.52,24.52,0,0,0,2.5,2.41l1,.85c2.72-.47,4.11-.07,4.66.19a1.63,1.63,0,0,1,1,1.91c-.1.47-.72,1.34-2.22,1.13-.88-.12-1.52-.37-3.69-2.15a24.3,24.3,0,0,0-2.86.77,22.61,22.61,0,0,0-2.19.84c-.86,2.37-1.87,4.55-2.82,5.1A1.67,1.67,0,0,1,6.83,26.79Zm2.34-4.68A7.32,7.32,0,0,0,6.75,24.2c-.67.87-.35,1.27-.34,1.29l.06.08c.11.17.32.32.7.1S8.29,24.35,9.17,22.11Zm7.7-2.48c1.5,1.18,1.94,1.3,2.5,1.37,1,.14,1.11-.38,1.11-.38a.64.64,0,0,0-.43-.76A6.26,6.26,0,0,0,16.87,19.63Zm-4.87-3c-.16.57-.34,1.21-.56,1.92-.16.52-.33,1.05-.51,1.59.44-.17.91-.35,1.43-.52.8-.26,1.53-.47,2.2-.63l-.41-.35A28.31,28.31,0,0,1,12,16.66Zm-1.07-6.15c-.16,0-.52.22-.44,1a5.74,5.74,0,0,0,1,2.94,6.88,6.88,0,0,0,.2-2.72C11.54,10.67,11.05,10.53,10.94,10.51Z"/><path class="cls-1" d="M25,0H7a1,1,0,0,0-.71.29l-6,6A1,1,0,0,0,0,7V31a1,1,0,0,0,1,1H25a1,1,0,0,0,1-1V1A1,1,0,0,0,25,0ZM6,3.41V6H3.41ZM24,30H2V8H7A1,1,0,0,0,8,7V2H24Z"/></g></g></svg>