<svg xmlns="http://www.w3.org/2000/svg" width="22" height="32" viewBox="0 0 22 32"><title>pensions_icon</title><g id="Capa_2" data-name="Capa 2"><g id="Reulation_tracker_list" data-name="Reulation tracker list"><path d="M11,0A11.012,11.012,0,0,0,0,11v2A11.011,11.011,0,0,0,10,23.949V32h2V23.949A11.011,11.011,0,0,0,22,13V11A11.012,11.012,0,0,0,11,0Zm9,13a9.01,9.01,0,0,1-8,8.941V16.414l3.707-3.707-1.414-1.414L12,13.586V10.414l2.707-2.707L13.293,6.293,11,8.586,8.707,6.293,7.293,7.707,10,10.414v6.172L7.707,14.293,6.293,15.707,10,19.414v2.527A9.01,9.01,0,0,1,2,13V11a9,9,0,0,1,18,0Z" fill="#cfd8e5"/></g></g></svg>