<svg xmlns="http://www.w3.org/2000/svg" width="11.543" height="117.827" viewBox="0 0 11.543 117.827"><title>regulation-tracker-left</title><g id="Capa_2" data-name="Capa 2"><g id="Collapsible_panels" data-name="Collapsible panels"><path d="M11.62,120.1v1.177H1.059v-1.527c0-2,.532-3.866,2.913-3.866a2.76,2.76,0,0,1,2.914,2.647l4.734-3.362v1.443l-4.637,3.194v.294Zm-5.673,0v-.364c0-1.331-.253-2.675-1.892-2.675-1.736,0-1.9,1.274-1.9,2.689v.35Z" transform="translate(-0.554 -3.454)" fill="#7e838e"/><path d="M1.059,110.894v-5.477H2.151v4.3H5.288v-4.174H6.382v4.174h4.146v-4.3H11.62v5.477Z" transform="translate(-0.554 -3.454)" fill="#7e838e"/><path d="M6.312,90.8a5.02,5.02,0,0,1,3.726,1.092A5.217,5.217,0,0,1,11.8,95.8,5.463,5.463,0,1,1,3.159,91.26l.8.854a4.3,4.3,0,0,0-1.989,3.628,4.383,4.383,0,0,0,4.413,4.314,4.257,4.257,0,0,0,2.983-1.232,4.438,4.438,0,0,0,1.345-3c0-1.835-1.345-3.768-3.307-3.768V95.2H6.312Z" transform="translate(-0.554 -3.454)" fill="#7e838e"/><path d="M7.348,85.188A3.91,3.91,0,0,0,9.7,84.727,2.725,2.725,0,0,0,10.71,82.6a2.794,2.794,0,0,0-.939-2.073,3.635,3.635,0,0,0-2.423-.518H1.059V78.829H7.67a3.712,3.712,0,0,1,2.928.925A3.884,3.884,0,0,1,11.8,82.6a3.953,3.953,0,0,1-1.078,2.731A3.724,3.724,0,0,1,7.67,86.365H1.059V85.188Z" transform="translate(-0.554 -3.454)" fill="#7e838e"/><path d="M10.527,72.771V69.857H11.62v4.09H1.059V72.771Z" transform="translate(-0.554 -3.454)" fill="#7e838e"/><path d="M8.622,64.314l3,1.275v1.289L.554,62,11.62,57.255v1.3l-3,1.246ZM3.3,62.031l4.23,1.807V60.267Z" transform="translate(-0.554 -3.454)" fill="#7e838e"/><path d="M11.62,51.63v1.177H2.151v2.55H1.059v-6.3H2.151V51.63Z" transform="translate(-0.554 -3.454)" fill="#7e838e"/><path d="M11.62,43.847v1.177H1.059V43.847Z" transform="translate(-0.554 -3.454)" fill="#7e838e"/><path d="M6.354,28.428a5.5,5.5,0,1,1-5.478,5.5A5.476,5.476,0,0,1,6.354,28.428Zm-.015,9.833a4.328,4.328,0,1,0-4.37-4.328A4.367,4.367,0,0,0,6.339,38.261Z" transform="translate(-0.554 -3.454)" fill="#7e838e"/><path d="M.61,23.968l8.629-8.236H1.059V14.555H12.1L3.481,22.791H11.62v1.177Z" transform="translate(-0.554 -3.454)" fill="#7e838e"/><path d="M3.117,4.771A1.941,1.941,0,0,0,1.969,6.592a1.676,1.676,0,0,0,1.64,1.751c.91,0,1.33-.938,1.652-1.653l.309-.7c.6-1.372,1.288-2.535,2.969-2.535A3.261,3.261,0,0,1,11.8,6.773a3.263,3.263,0,0,1-2.73,3.292L8.749,8.917A2.176,2.176,0,0,0,10.71,6.8,2.123,2.123,0,0,0,8.65,4.631C7.418,4.631,7,5.6,6.55,6.578l-.28.644c-.561,1.233-1.19,2.3-2.7,2.3A2.772,2.772,0,0,1,.876,6.563,3.031,3.031,0,0,1,2.515,3.832Z" transform="translate(-0.554 -3.454)" fill="#7e838e"/></g></g></svg>