<svg xmlns="http://www.w3.org/2000/svg" width="234.976" height="234.976" viewBox="0 0 234.976 234.976"><title>icon-supervisory</title><g style="isolation:isolate"><g id="Layer_2" data-name="Layer 2"><g id="ICON_-_Supervisory" data-name="ICON - Supervisory"><path d="M232.218,170.5l-33.958-27.167V95.459a80.855,80.855,0,0,0-73.43-80.4V0H110.145V15.058a80.855,80.855,0,0,0-73.43,80.4v47.873L2.757,170.5A7.338,7.338,0,0,0,0,176.232v22.029A7.343,7.343,0,0,0,7.343,205.6H81.515a36.714,36.714,0,0,0,71.945,0h74.172a7.343,7.343,0,0,0,7.343-7.343V176.232A7.338,7.338,0,0,0,232.218,170.5ZM117.488,220.29A21.992,21.992,0,0,1,96.812,205.6h41.351A21.993,21.993,0,0,1,117.488,220.29Zm102.8-29.372H14.686V179.76L46.631,154.2H161.546V139.517H51.4V95.459a66.087,66.087,0,1,1,132.174,0v51.4a7.338,7.338,0,0,0,2.757,5.733L220.29,179.76Z" fill="#ff2737" style="mix-blend-mode:multiply"/></g></g></g></svg>