<svg xmlns="http://www.w3.org/2000/svg" width="205.604" height="234.976" viewBox="0 0 205.604 234.976"><title>icon-insurance</title><g style="isolation:isolate"><g id="Layer_2" data-name="Layer 2"><g id="ICON_-_Insurance" data-name="ICON - Insurance"><path d="M198.261,0H7.343A7.339,7.339,0,0,0,0,7.343V168.889a7.33,7.33,0,0,0,3.492,6.253l95.459,58.744a7.347,7.347,0,0,0,7.7,0l95.459-58.744a7.33,7.33,0,0,0,3.492-6.253V7.343A7.339,7.339,0,0,0,198.261,0Zm-7.343,14.686V44.058H14.686V14.686ZM14.686,58.744H95.459v155.75L14.686,164.787Zm95.459,155.75V58.744h80.773V164.787Z" fill="#ff2737" style="mix-blend-mode:multiply"/></g></g></g></svg>