<svg xmlns="http://www.w3.org/2000/svg" width="234.976" height="161.546" viewBox="0 0 234.976 161.546"><title>icon-financialcrime</title><g style="isolation:isolate"><g id="Layer_2" data-name="Layer 2"><g id="ICON_-_Financial_crime" data-name="ICON - Financial crime"><g style="mix-blend-mode:multiply"><path d="M227.633,0H7.343A7.341,7.341,0,0,0,0,7.343V154.2a7.341,7.341,0,0,0,7.343,7.343H139.517V146.86H14.686V14.686h205.6v73.43h14.686V7.343A7.341,7.341,0,0,0,227.633,0Z" fill="#ff2737"/><path d="M117.488,36.715a44.058,44.058,0,1,0,44.058,44.058A44.106,44.106,0,0,0,117.488,36.715Zm0,73.43A29.372,29.372,0,1,1,146.86,80.773,29.4,29.4,0,0,1,117.488,110.145Z" fill="#ff2737"/><path d="M58.744,29.372H36.715a7.341,7.341,0,0,0-7.343,7.343V58.744H44.058V44.058H58.744Z" fill="#ff2737"/><path d="M205.6,58.744V36.715a7.341,7.341,0,0,0-7.343-7.343H176.232V44.058h14.686V58.744Z" fill="#ff2737"/><path d="M29.372,102.8v22.029a7.341,7.341,0,0,0,7.343,7.343H58.744V117.488H44.058V102.8Z" fill="#ff2737"/><polygon points="215.098 97.61 198.261 114.447 181.423 97.61 171.04 107.994 187.877 124.831 171.04 141.668 181.423 152.051 198.261 135.214 215.098 152.051 225.481 141.668 208.644 124.831 225.481 107.994 215.098 97.61" fill="#ff2737"/></g></g></g></g></svg>