<svg xmlns="http://www.w3.org/2000/svg" width="567" height="493.376" viewBox="0 0 567 493.376"><title>map-middleeast</title><g id="Layer_2" data-name="Layer 2"><g id="MAP_-_Middle_East" data-name="MAP - Middle East"><g id="MIDDLE_EAST" data-name="MIDDLE EAST"><path d="M271.656,42.26H269.1l.568.948V43.3l-.813.669-1.65-2.659-2.559-2.559h-7.58L252.8,36.2V30.321l.948-4.643-1.611-3.127-2.653-.663v-1.8l-2.559-2.748-2.653-.663-6.254-5.211-2.464-.663-2.179,1.8h-1.8l-3.885-1.516-1.421,1.8-1.705-.568L223.9,9.665h-1.9L222.29,9l-.663.948-1.8,3.79-3.7,2.274L211.2,18.476l-.852,2.274h-4.643l-1.8,1.422-6.064-1.327-1.8-1.137h-2.18l-.947-.568-2.937.852h-5.4l-6.349,2.559-5.022-1.042L169.8,19.14,168,20.371l-5.78-2.842h-2.937l-5.211-3.506h-1.611l-1.327,1.9-2.464-.568-2.558-3.506-.663-3.6-2.369-1.99h-1.705l-3.6,3.6-1.232-.568-1.327.853-5.4-4.927V2.274h-.853l-3.6,1.8h-5.306l-2.274-.758-2.937.758h-7.3l-3.6.758L97.121,7.865H94L88.5,8.907l-1.611,2.179-2.559.663-2.464,2.559-1.327.758-1.421,3.6-1.327.948v1.611H72.486l-7.865-2.937H62.158l-1.8,1.327-3.221-.663-4.454,1.137-2.274-.758-3.7,1.042-.663,1.989L48.8,26.815h4.927l3.506.568-.568,1.611H50.6l-5.306,1.611-1.9,2.464,1.042,1.421,2.842-.852,1.137,1.705-2.274.758H39.322L36.385,34.49,32.879,36.1l-1.705-2.464h-1.9L26.72,36.574H24.256l-3.6-2.842H17.15l-6.727,5.211L9.38,41.691,8.243,44.249l1.137,1.9v3.032L8.338,50.408l1.042,1.8,3.979-1.327H14.5l2.937-.663h3.6l-3.506,3.222v2.274l1.422,2.369V61.21l.947.663,2.653-1.705v1.516l-1.8,1.9-3.7,2.274,1.327.853h2.084l-2.084,1.421-1.327,2.559H15.444L13.834,66.8,12.7,66.232,12.223,68.7l1.042,2.748-1.327,1.421V74.95L14.4,76.56l.568-1.232,2.937,2.464h2.274l3.411,1.99.852,3.506-2.369,2.369,1.9,1.8v1.8h1.9l3.7,3.6-1.327,2.369-2.369-.663L25.3,96.269l1.9.758,4.549-1.137H38v1.232l-1.421,1.516-3.222,1.421H28.52l-1.137,1.705h1.8l2.464-.852h3.127l1.611-.758v2.18l.852.758,1.705-2.179,1.99-2.464h2.179l1.422,1.8h1.9l2.842,1.705,1.327-1.9h2.274v1.611l-1.137.568,1.327,1.99v1.989l3.126,2.559,1.137-.568,3.411,1.327,3.6-.568,1.705-1.327H68.98l1.705-1.422,2.559,1.327,1.8-1.042V103l.568-1.8-.568-3.221,6.348-.568h5.4l7.2,3.7h2.559l4.738,6.348,4.074,2.559L118.82,108.3l4.074-1.705h1.327l.663.663,1.9-1.327.663-2.464,6.443-7.3H135.5l6.064,2.18,3.7,1.705,4.643-.853V97.88l3.221-2.369,2.464.758v2.179l-2.274,3.6-2.937,2.369v1.422l2.653,3.126-.568,2.085,2.937.568,3.126-.568,2.937-1.042v-3.317l1.9-1.137v-3.412l.853-2.369.167.04-.736,2.044-.095,5.59-1.9,1.137.285,3.317L159,113.04l-3.032.568-2.937-.568-.095.284-1.99.758.663,4.548,2.464,4.927.947,3.885-.663,3.126-.379,5.78-.095.758-1.989.474-.758,10.613-2.464,3.79-2.653,3.79v4.074l-.474.474-3.126,3.6-1.137,10.8-4.264,8.622-4.643,6.159,1.611.758,2.937,4.263,1.611,5.5,4.169,6.443,3.222,7.675-1.232,3.6,1.9,5.116,1.705-2.748.189-.19.095,1.422-1.327,3.7v.663l-.474,5.5.285,6.254-1.611,4.264.379,1.611,2.084-.853.663,1.137,1.99-1.326,3.316,1.895-.852.569,6.538,7.3.663,3.222,1.421.663.568,3.032,3.317,2.937,1.516.094,4.264,7.3.19,2.369,1.042,2.559,2.369.474.663,3.7,1.516,2.084,3.411,1.422L183.157,289l2.179,1.421.853,4.549-.853,1.9v2.179l3.127,2.179.095,2.464,1.989,1.232,2.275-2.179,3.126,2.558,4.738,2.085,3.7,3.885,1.137,3.222,1.137.284.474,3.7,1.422,1.232,1.232,5.022,2.937,2.653.947,5.211.853,1.611-1.042,4.832-1.137,1.043,1.137,2.369,1.421,5.4.568,5.591,2.748,2.369.474,2.084,7.485,8.054,2.559,1.137,3.032.19,1.989,2.937h1.516l4.358,3.695.095,2.275,3.7.663-.474,2.18,1.99.758,3.506,12.791,3.126,1.9.19,3.885,11.276,11.37h1.705l.947,6.348,4.738,1.422,2.653,7.58,1.232.284.947,2.748,1.327,7.58v4.453h-1.705v1.611l-2.369-.663,1.042,2.179h1.611v.1l3.6,4.643,1.9,13.834,3.79,3.506V469.5l-1.611,1.042,1.611,4.074,3.127,3.411.568,3.7,1.232,2.464h3.032l.758-1.042,4.169,1.327,2.464-.568,3.032-2.558h2.937l1.611,1.611,2.842-1.137,2.842-3.979h1.421l1.705-3.885,3.7-2.369,1.9-.568h2.369l.568.853h4.264l.853,1.137,2.937.663,7.012-2.653,5.59-.568,1.9-1.611v-1.8l5.306-4.169h2.274l1.9,1.421h2.18l1.421-1.327.948.853h2.084l4.359-3.6,3.126-5.022,2.748-1.327h1.611l16.393-4.832,1.421-1.611,9.475-1.705,5.875-2.937,2.937-2.748,6.443-1.327L417.2,437v-.852l-1.232-1.232v-3.7l5.022-6.159,5.78-1.232,3.042-.782.179.213,1.99-.474.758.568h2.274l1.9-3.127h3.222l5.306-2.842h2.937l2.558-.474,2.369,1.422h1.8l3.6-5.306v-.663h.758v-1.705l-1.422-.758v-3.316l2.085-2.085,1.327-1.421h5.116l3.7-.663,1.8.758,2.842-2.842,1.327-1.232v-4.643l5.4-6.633,3.317-.852,2.084,1.042,1.516-1.042,7.39-.663.568-1.422-1.232-1.137-1.9-5.306h.853l-1.422-2.653h-.663l.948-2.369v-2.559l2.558-4.832h1.705l-1.042-1.9h.663l1.8-3.221,1.422-1.137,1.327.474-.758,1.421v1.611l1.516.852h1.705l1.705-5.685,1.705-1.516,1.611-3.411,3.6-3.221,5.5-8.812.474-2.274v-1.9l1.8-3.222v-2.842l-.948-1.042-2.748-.474-5.5-4.548-1.327-2.653-2.558-2.369-1.137-3.79-4.169-5.5h-1.99l-3.7.758-6.633-1.232h-2.842l-1.9.852-3.7-1.042-8.338-7.012v-1.989l-4.927-6.064-.758-8.907h-3.032l2.842-.474-.284-3.7-.474-1.989-1.327.474-.758-.663v-2.274l1.232-2.369v-4.169h-.663l.568-1.705-.758-.948.663-.474h.663l-.758-1.137h-2.274L462.2,270.9l-.758.948-.758-.948-.474,1.422v1.327l.284.085v1.9l-.853,1.516-9.191,5.5v4.074l-8.527,7.3L440.5,296.2l1.232.474.853,1.8L438.7,302.45l-1.326-1.9-1.232.948h-1.9l.19,2.274-.853.284-.758,1.327-4.358.758-3.127.379-1.327-1.705-2.937.285-1.232-.758-2.179.474-5.022-1.137-6.064,4.738-2.369-.663-2.275-.19-2.369.948-.852-6.728-1.232,1.327-1.232-.663-.095-.095-.758.379-1.326-2.369.095-1.516,1.326-1.611-2.464.19-.379-.758h-.095l1.705-.379L395.4,289l-1.516-2.937h-1.042l-.568-5.022h.663l1.042-4.832-.568-1.042h-1.232l-.285-1.611-2.558-1.99H388.2l-.379,1.327-1.137.095v1.232l-1.042.852.568,2.369h-.663l.758,4.454-.758-.568h-1.232l-.474,4.548.663,2.085,1.042,1.231v3.032l-.758.474-.852.568-2.464-3.506-.663-3.79-7.58-9.475-1.9-3.6,1.705.474v-1.705l-2.748-7.2v-1.705l-1.9-2.937h-1.327l-4.832-6.917-1.8-.095-2.179-2.369.285-1.042.852-.19,1.232.758-1.232-1.8-2.464-.474-5.022-1.232-2.842-7.581-1.516-3.506-1.989-1.042v-2.464l-.948.568-1.137-1.421-9.1,4.169-.852-5.4-13.644-4.169-1.99-.095,3.317-6.253,3.221-7.3,6.633-3.032,5.211,1.99,3.412-1.137,1.421.663,1.611-3.506,1.516-.663,1.327-.568-.095.948,2.274,2.937,1.8-.095,1.705-1.516.095-2.843-2.274-1.8,1.8.285,1.989-.19.853-.852-.568,1.705-.474,1.705,3.411,1.516,1.327-.568,1.421,2.748,1.516.095,4.548-3.79,1.611.758,3.127,4.169.379,2.842,5.4,6.538.474,4.548,1.516,1.042,2.274-.379,1.611,2.748h-1.137l-1.042-.663-.663.758,2.653,2.274,1.421-.474.568,2.369,4.454,9.949,3.032,1.8,5.4-.474,3.79,1.232,1.611,1.611,4.738.285.663.947,2.842.285.474,1.327-1.8,1.611,4.358,4.548,3.506.853,2.369,1.516,2.464.379,5.117,4.643,1.516-.853,3.6-.568,4.927,1.232,5.875,3.979,5.116-4.264,6.254-3.79.094-1.705.285,1.326,3.127-.094,3.885-2.937,3.032-.948,5.022.758v.947l1.422-.095.285,1.611,2.748,3.79,1.516,5.4,2.937,5.591.285,3.979,1.611,1.137.568,1.516,7.865-.095,3.316-.095,2.843,2.179,3.411-2.937,1.232.095,3.979,3.7,8.243-.568,4.548,1.989,6.538.285,2.559.852,1.422-.379,2.084,1.8.948-.19.663-2.558,1.9-.285,1.516,2.559,3.695,1.327,4.927,1.8,2.274-1.232.663-1.232h.853l-.095-2.464.663-5.211-1.422-3.6,2.274-3.127-.758-2.559,1.516-2.937,4.453-1.8,1.516-1.611,7.2-2.179,3.885,1.516L567,260.1l-.379-5.78-3.885-2.653-3.6.284-.758-2.653-.284-4.169-1.043-3.411-.094-5.022-4.074-.379L552.5,234.7l-2.842-1.137-4.927-.379L543.5,231.67l-3.79-1.99-3.885-4.074-1.705-3.506-7.675-10.233,11.086-15.255,1.232-1.8-1.516-5.875.284-4.074-2.369-5.212-12.886-.189-.474-5.4-1.516-2.748,1.137-1.99-2.18-7.012-3.979-7.675.758-3.885,4.643-5.685h-1.327l-5.022-1.137v-2.937l-.948-5.4-.758-.568,2.748-3.979-2.464-1.99-1.232-1.99,3.127-.852,3.885-2.559-.189-1.99.758-.663-1.895-2.558,1.042-2.274-.285-2.085.19-4.169-1.422-2.653.095-2.274-1.232-3.6,1.042-2.275-2.369-4.169-3.79-1.611-6.538-.568-5.969-8.338L492.524,83.1l-3.126.758-1.327-1.042-.853-4.359-3.126-.568-5.969-2.464-2.369,1.611-2.369.095-8.718-5.5L460.119,70.4l-5.4-4.359-3.316.19L448.464,65l-2.937.758-1.137,3.506-5.5-1.137-6.348,1.137-6.254,5.306-2.464.19-1.895,2.463-1.327,3.98-7.3.474-3.032,1.705,1.422,3.885,2.274,3.317-1.042,3.885-3.411-.663-8.528-.758-7.391.947-9.854,2.842h-4.359l-9-2.558-3.317-.379-7.58-2.937-2.179-2.842L356.27,84.9l-2.085-.094-3.506-2.275-3.506,1.327L344.71,83H341.2l-2.937-3.127-2.179-.285-.948-1.421.568-3.411-.379-3.506-2.179-3.126v-.948l-1.232.853-2.464-.568-.948-1.705-2.463-1.137-5.022-5.5.22-.147,4.8,5.264,2.464,1.137.947,1.705,2.464.568,1.232-.852V61.21l-.758-1.327V57.515l-1.042-3.885.852-2.369,1.137-1.042,1.99,2.179-.948,3.222.948,1.705.852-1.9V50.314l1.422-1.327V46.808l-.948-1.611V42.544l1.422-1.8-.568-3.127V33.732l4.548-3.79h3.98l1.989-1.516H350.3L348.122,25.3l-3.885-1.611h-3.979l-3.222-2.464-.568-2.369-5.022-3.506-1.9-4.169V8.243l-4.643-5.969L321.78,0l-5.211,6.253L312.3,8.622l-1.327,2.559-6.822-.663-1.9-3.7-6.917-5.591H291.08l-1.516,5.4L293.449,9l2.18,3.032-.853,5.4-5.4-2.748h-5.59l-8.338-4.738-5.591,2.179v2.464l.474-.285,2.842,2.653,5.4.663,3.032,3.032-1.042,3.411V27.1l5.969,4.927v3.032l-.106.121-.179-2.869-6.064-4.927-.19-3.032,1.043-3.412L278.1,17.908l-5.4-.663L269,13.834l-8.338.19-1.9-.379-6.727,1.516-4.549,1.611,2.274,2.464.285,1.8,2.653.663,1.611,3.127-.948,4.643.19,5.875,4.264,2.559,4.643.189,2.842-.189,2.653,2.558,1.042,1.8,2.653-.094,2.369-1.327m-3.79,2.369,2.084,2.464h.942l-.942.094L270.235,43.3l-.565-.094ZM153.689,171.218h.379l-.663-1.327-.663-2.559.948-4.358.663-3.79.842-1.777.119-.006.745,1.025,2.179,2.085.379,5.306-.852,2.369,1.421.189-1.516-.189-1.9,1.611-.947,1.516Zm-6.254,19.329-1.327-1.422.568-4.643v-6.917l-.852-1.516.758-4.075h3.6l.284,2.369,1.516.19,1.768-1.582.032.918.285,1.9-.474,1.327-.379,3.979.095,2.274-.476,5.5-1.135.378h-1.8Z" fill="#d8dde5"/><polygon points="9.38 33.353 7.959 37.711 7.959 39.701 14.118 34.395 21.888 30.415 23.498 26.341 26.531 25.109 31.553 25.109 32.879 23.877 36.29 23.877 38.28 25.014 41.975 25.014 44.534 22.456 44.534 20.561 41.502 18.856 38.091 15.35 34.869 15.35 30.416 11.37 30.416 6.064 27.099 5.211 24.92 6.917 20.846 3.695 16.582 3.695 14.876 5.59 12.507 5.59 10.139 8.149 9.475 12.223 12.507 13.55 12.507 17.245 8.622 19.614 9.286 22.835 7.58 26.246 4.359 27.099 4.074 26.91 5.306 29.468 7.675 30.889 9.38 30.889 11.181 31.458 14.023 31.458 11.086 33.353 9.38 33.353" fill="#d8dde5"/><polygon points="32.785 105.27 33.447 105.27 34.774 105.27 34.774 104.228 33.827 104.228 32.785 105.27" fill="#d8dde5"/><polygon points="2.274 37.806 0.095 37.806 0 38.943 2.274 39.89 5.211 39.133 5.211 37.522 3.79 36.574 2.274 37.806" fill="#d8dde5"/><polygon points="416.207 492.884 419.091 493.376 422.313 493.376 418.333 492.239 416.207 492.884" fill="#d8dde5"/><polygon points="415.206 493.187 416.207 492.884 415.206 492.713 415.206 493.187" fill="#d8dde5"/><polygon points="446.759 484.186 443.822 484.849 441.737 485.418 439.842 485.418 439.084 483.902 437.189 483.902 435.483 485.323 435.483 487.597 433.683 488.545 435.104 488.829 436.905 490.25 440.031 490.913 444.485 490.25 447.706 488.165 449.98 488.165 451.117 486.838 451.117 485.702 448.748 485.228 446.759 484.186" fill="#d8dde5"/></g></g></g></svg>