<svg xmlns="http://www.w3.org/2000/svg" width="517.616" height="593" viewBox="0 0 517.616 593"><title>map-europe</title><g id="Layer_2" data-name="Layer 2"><g id="MAP_-_Europe" data-name="MAP - Europe"><g id="EUROPE"><path d="M152.154,190.122l.931.931,2.436-.788,3.295.716,2.149,1.361h3.224l1-.788h1.648L164.69,193.7l-2.866-.43-1.074.573-3.51-1.791-2.221.573-1-.43-1.719,1.433h-2.364v.931l3.653,1.648-1.361,1.5h1.791l1.218-.788h3.009l-2.221,1.5h-3.152l-.86.43h-.931v.644l1.648.717h1.218l-1.863,1.074h-.931v1l1,.717.788,1.289h2.579l1.361-1,3.367-.5,2.292.573.86.573,1.5-1v1.36l1.5-.43.573,1.218h1.648l2.435-1.791h1.075l-.43.931-1.218.86,2.149.573,1-1-.43-1.218,1.576-2.364-.43,1.791,1.719,2.006-1.289,1.719-2.937.716-1.433,1.075.788.644-1,1.719h-2.579v-1l1.289-1V206.74h-2.077l-2.292,2.221v1.218l-1.576-2.006-1.934-.43-2.436.43-1.433-.43-2.722,1.361h-1.361l-1.576-1.075h-.573l.86,2.078-.573,1.074,1,.86.616-.14-.258.283v1.791l-.86.788-1.576-.86.716,2.436,1.289,1.074,3.152-3.51,2.221.931-.931.931v1.791l-2.65,1.433.43.788h1.648l-.86,1.361,1.218,1.791-.788,2.149h.645l1.719-2.65,1.5-.86v-2.221l4.083-1.719h2.006l1.719-.5-1.218.788-2.149,1.648v2.65l.645,1.647-1.576-1.361v-2.364h-1.218l-1.433,2.65-1.218.43,2.078.788-1.791,2.364h-1.433l-.645,1.5,1.075.5h3.08l.788,1.289h-2.221l-.788,1.289v1.5l-2.364-1.647-1.074.5-.43,1.863-.5-2.221-1.433.931-1.934,2.65.788,2.006,3.009,3.152.573-1.791.788.645,1.648-.788-.43-.931.931-2.149,2.364,1.791-1.074.716,1.361,1.433-.5,1.863-1.433,1,1.289,3.152,1-1.218,2.722-.788,1.074,1.5h-2.292l-1.074.86,1.218,1.863v.788l-4.012-2.865-1.361.5-1.289-1h-1.719v3.009l-1.218,1.289,2.794,4.728,2.292.43,3.08,2.65,4.226,1.647.5,1.361-1,.5,1.648,1.5,1.5-.717-.644-2.149h1.361l1.433,1.146v.644l2.221,2.794,1-1.289.86.43,1.934-.86,2.364-2.221h1l.931-1.074h.5l.573,1.576h1.361l3.869-3.868V254.45l-1.719-2.149,2.937,1.863,2.364-2.364-.645-.788,1.433-1v-1.5l1.719-1.146h1.863l.5-1.361-1.791-2.221.645-1.5-1.576-2.149-1.934-1.433v-1.863l1.074.644,2.149,2.364.86,3.08.788.86h1.361v1.218l1,1.289,2.149-1-.573-1.218-1-.788.788-1.433,1.791,1.647v.788l2.794-2.65.716-2.435-.644-2.149-1.5-.645-.788-1.218,1-.645v-1h1.075l.86-1-1.146-1.361v-2.077l1.719-1.289,1.576,1.576-1.289,2.006.43,2.65-.5,1.791,1.289,2.006v1.5l2.364,2.435h2.65l1.075.931-.645.86,1.361.931,1.289,2.292,1.146-2.156v.007l-1.218,2.292-1.289-2.292-1.361-.931-.358.215-1.719,1,.43,4.8.86,1.289v3.653l1.647.86.573.86v2.364l2.435-1.075-1.5-1.647v-1.719h1.074l-.5,1.074,1.863,1.075.573,1.218-2.221,1.863-.358,1.791.716,1.719v2.436l-1,1.074,1.289,1.791,1.863.43,1.29,2.577,1,.86,2.006,4.155v3.152l2.292.931.573,2.149,2.149,2.149,2.364-1.361.645,2.722-1.648,3.08h-2.794l-.43,1.218,1.5.931v2.006l2.292.716,1,5.3-1.289,2.078,1.218,1.074h2.221l5.731-1.5,2.794,1,2.221-2.006v-1.791l-1.289-1.074,1.5-3.653,3.51-.43.788-3.582.573,1.647,4.083.645,2.436-1.361,2.077.931,1.218,1.5,2.435-2.937.788-4.441,1.791-1.863.43-5.516,1-1.791-1.934-1.719v-2.292l1.863-2.149-1.791-2.292,1.934-1.791-2.435-1.5,1.074-1.934-1.361-2.149,2.436.931,2.65-.5-2.364-2.221,1.218-2.579v-1.361l-3.3-1.218h4.155l-2.221-2.292h-1.863l1.289-1.5h1.218v.5L266.843,249v-1.433L268.706,249v-2.292l1.5-1.719h1.5V243.56l.86-1.218.788,1-.43,2.006h1.289l1.934-3.009h1.5l1.5-1.289V238.9l-1.361-1.218-2.722-.788-1.934,1.074-1.146-.5-1.791,1-1.433-1.934-2.364-.43-1.433-.931h-3.009v1.074l-.86-.644h-3.439v-.86l1.576-.645,1.863.931,1.647-2.149.931.931,1.719-.5.788-1.433,1.934.43.931,1h1.361v-1.361l1.074,1.075,2.579.931v1.433l1.863,1,3.08-.788.788-2.292,2.794-3.08,1.433-3.367-2.221-2.149V223l-3.295-1.934.573-1.289-4.012-3.08-.5-1.934-1.5-1.289-1.934,2.364-1.218-2.006-1.075.645v-2.149h-1.5l-1.075-1.719-1.289-1.361,1.5-1.934-1.218-2.435,1-.573v-2.221l-1.719-.717,1.719-2.149-.644-3.295.5-.717,1.433,1.289v-2.221l-1.719-1.791.573-3.295-.43-2.579.573-.86v-2.794l-2.579-3.3,1.791.645,3.224-.573,1.791-2.722-.931-1.934.573-1.218,1.934.5,3.08-2.65v-1.289h-1.5l.645-1.863,1.5-1.5.931,1.218h1l.573-2.364h.931l.931,1.433,1.5-1.361V163.4l1-2.292h2.22v1.647h1.361l1.146-2.292,2.722-1.5-.86-2.078v-1.934l1.218,1.5,2.292-2.221h1.433l2.221-3.725v-3.653l1.648-1.934H299.8l2.221-2.794h-1.648l-1.289-1.791,1.361-.5L299.8,138.4H298l-2.221-1.719,2.722-.5-.5-1.647,1.361-3.94.644-1.289-1.074-1.361h-1.361l-1-1.648.716-.788,1.36.215.5.788h.86v-1.289l-2.078-.931,1.719-.931h1.934l1.863-1.719-1.5-1-1.433-2.722,1.5.5,1,1.218,1.647-.358.788-1.791v-2.149l1.218-.931,1.361,2.435,1.791-2.221.86,1.863,1.863.788.931-1.863,1.791,1,2.65-1.719,1.289,1.5h2.149l1.362-.954v1.168l.788.86h2.149l2.006,2.149h4.226l2.866,2.794-1.648.788,1.075,1.5v3.367l-.788.717,3.367,3.152-2.435-.5h-.931l2.865,2.364v1.361l-3.367-1.863H330.1l-3.009,1.934v1.791l-2.077,2.149v1.5l-.931.717-3.51,3.653-.5,3.653h-.86l-.573-1.075h-1l.788,2.221-.5,1.791h-2.292l-1.361,1.863.573,2.794,1.5,1.075-2.722-.86-.788-1-1.5.573-.86,2.364v1.074l-1.5-.644-.573.86,1.5,1.5v1.075l-1.361,1.433-.644,1.289-2.006,1.289-1.074-.788v-.788l-1.5-.5-1,.382v1.41l-.132.076.2.712-1.289,1.074.86,2.149-.86,2.078H300.01l-1.075,1.863.86,2.221.573.43-.645,2.221.43,1.5,1.433-.644,1.218,1.289-.358,2.435-.573,1.218.788,2.149-.5,1,2.221,3.582,1.075.931-.788,1.361,1.719,2.65-1.648.716v3.51l-.788,1.361v4.585l1.289,1.648-1.218,2.435v1.719l.86,1.218,3.009-1.361,1.075.86.5-1.361,2.579,2.722h1.5l1.5,1.361h3.224l.931.43-.685,1.313.112-.024v.358h.931l2.722-1.863v1.5l-1.361,1.863,2.794,4.012.573,1.361-.788,2.292.788.43,1.218-3.3,1.361-.644v1.433l1.934-.86h1.647l3.653-2.65h2.078l4.441-2.866v-1.218l2.865.86h1.934l1.791-2.722.43.931-.931,1.863,1.218.5,1.218-2.722h1l-.931-2.292.931-.931,1.074,2.221h1.289l.5-1.648,1.146,2.436,1.433-.5v-1.5h1.289l.5,1.218,1.433-1.361,2.865-.573,1.648,1.433,3.51-.5v-1.218l-.931-.931,3.009-.215,1.5.5v1.361l2.221.573a17.461,17.461,0,0,1,.86-1.863l.573.072-.169-1.271a1.511,1.511,0,0,1,.456-.521,1.975,1.975,0,0,0,.28-.107l-.173-1.317,5.175-4.934,2.664-1.3,2.985-5.336,3.152-4.693,2.343-5.58,4.519-7.686,3.237-8.007-.726-3.4-4.847-5.581-2.908-.97-5.175-7.282.893-3.314,2.1-2.915-.244-3.314-3.389-2.347-1.213-2.591-.161-4.124.886-1.047-.969-2.106-2.741-.486-1.457-1.861v-3.719l1.535-2.025-2.184-.566-.077-1.942.481-7.278,2.023-.486-5.007-11.65-4.61-8.493-.97-3.157-2.664-2.909,1.862-5.339,2.26-3.639,1.053-3.318-1.374-1.3-5.092-3.237-.885-2.1-1.7-2.588-3.068-1.7-1.534-.241-1.939-5.1-1.535-1.861.809-3.8.488-2.992-.757-.254-.052.31-1.349-.432.945-.681.047.015,1.187-.819,2.957-1.176-.007-.1,1.339-.228.084-3.935,2.992-2.885,2.678-.363,1.736-2.354-.244-3.209,1.863-.16,2.308.932,1.374-1.746-.1-2.305.042-.07,2.421.3.448.4v-.46l-.931-.86h-2.435V32.81l-.072.091V31.377h-.645l-1.647-1.289h-.86l-.788.5v1.289l-.86-.86-.573-1.289h-1.218v3.582l-.788-.5-1-1.576-1.648,1.074-.573,1.218-.573-1.791-.573-2.436h-.86l-.86-2.435-.86-.5h-1.863l-2.15-1.147h-2.65L350.657,23.5l.5-.43,3.3.86h2.722l2.364.43,4.441.573,3.08-1.075,2.006-4.012,4.226-1.074,1.791-1.5V16.62l-1.361-.43-.43-.86-1.576-.5h-1.934l-2.722-2.292h-1.5l-1.791,2.006H362.62v-.788l1.791-1.146V11.1l-2.149-.86-.43-.573h-1.576l-1.433,2.507h-.788V10.388h-1l-.86,1.289h-1l-.358-1.146,1.433-1V8.239L354.1,6.949h-2.149l-1.289.788v3.08l-1.5.644v1.075l1.289,3.152v1.433L349.3,18.2l-.931-1.934H347v.716h-1.791L342.49,18.2l2.149-2.937,1.647-.43,1.075-2.149V11.606h-.788l-2.221,1.647-1.289-.358v-1l1.433-1.218V9.743l-1.934-.5-.358-.86,1.648-.5.644.644h2.364l1.361-3.51-.358-1.433-2.221.573-1-.717.43-1.576L344.5.359l-1.433,1.289h-1.218L340.557.574l-1.576,1.5V3.152L340.27,4.8l-.86,1.218h-1L336.831,3.8l-1.146,1.074-.573,1.934.5.788h1.719l.788.788v.931l-1.361.573v1l-1.289.645v1.5l.358.645-1.218.788.717,2.221-.645.716-1.433-1-1.289,1v.86l-1.433,1V17.121l1.791-3.94-1.791-.644v-1l1.289-1.289V6.877L331.172,5.8H330.1L327.3,10.459v2.579l-2.865,3.869-.645,2.794.573,1.218v2.221L321.5,26.291l-1.5.645v-1.72l-.645-1.433,1.863-2.937-.358-1.934.788-1.5-.86-1.934,3.3-3.582.573-2.149.5-.358V8.167h-1.719l-1.791-1.791h-.86V8.382L319.5,9.814V7.881l-1.5-1.433L316.2,6.09l-1.361.716V9.528l-.645,1.289-.931-1.146-1.218-.717-.931.931v.86l2.507,1.719.573,1.934-.573.644L312.547,13.9l-1.361,1.218v1.218l.644.86-.644.716L309.18,16.62h-1.074l-1.146,2.364-1.5.644v.86l.86.645-2.078,1.361-.5,1.647,1.719,1.791-1.289,1.289,1.719.788.788.788-.931,1h-2.722l-.716-2.937-1.289-.358,1.218-1.361-1.719-.931h-4.37L292.7,21.491h-2.579l-1.146,1.433-.788-1.5L286.471,23l-2.006.43v.931l2.436,2.865h1.719l1,1.146h2.507l-1.074,2.077V32.38l1.719,2.364v1.5l-1.5-1.075-1.146-2.794-1.934-.788-1.146-1.433-.573,1.934-1.648,1.433-.358-2.65-1.647,1.433v1.146l-1.934,1.719v1.791l2.364,1.075,1,2.077H282.46l-1-1-1.5,2.221-.5,1.719-2.435,1.934V43.769l1.647-1.218-.573-1.576,1.576-3.152-1.218-6.3-1.576,1-2.507,4.083v2.722l.358,1.075L273,42.623V40.474l1.074-2.364-.788-3.08h-1.146L270,36.463l-1.5,2.794,1,2.149V43.34l3.08,2.221.86,1.5-1.218,2.364-1-3.009-2.221-1-1.5-3.94-.644-.43-2.866,1-.358,1.433,2.866,2.221h1.361l.716.86h-1.934l-1.934.645,1.289,2.149-2.149-1.5V45.274l-.86-.5-.5-1.719-1.289,1-.5,2.794,1,1.289-.358,2.508-1.791-.931-1.576.5-2.149,2.507h1.934l1.433,1.719h-1.791l-1.289.86,1.218.86-.86,1h-1.576v1.146l.573.5h-1.289l-.931-1.146-1.647.43-1.433,1.863.573,1.075-.644.644H247.86l-1.075,2.078,1.791.573,4.871-1.433,1.146.788,2.006-1h1.218v1.433l-1.433,1.576-.43,3.009-.5.645-.86-1.075v-1.5l-1.791.5-.788-1h-2.221l.716.788-.644,1.289-1.648-1H247l1.647,1.218.645,1.719h-1l-.645,1.289v1.648l-.43,1.146-.931-1.576V70.776l-1.5-2.006-1.5,1.647-1.576.43-.788-1.289.573-.931H240.2L238.4,70.561l1.5,1.647h2.364l1.934,1.218-1.075,1.719-4.083.573-.86-.788h-1.647l-.86,2.078,1.361,1.289-1.361,1.863h1.647l.595-.677-.38,1.966,1.074,1.648,2.364,1.433V86.25l-1.648-1.289h-1.361l-1.719-2.221h-1l-1.361,1.433,1.5,1.218h-2.078l-1.934,1.433v1.361l2.149.931,1.791-1.218,1.218,1.218,1.863-.573.573,1.791,1.361.788v1.289l-2.866-1.863h-2.292l-1.074.716-3.152.5v1.719l-1.791.931-.788-.716-2.722,1.433h-1.5v1.074l1.719.717,1.289,1.576-1.5.573-.86-.43-.573.5,1.361,1.289-.5.86H223v-.573l-.717.645,1.433,1.218-.931.788v1.289H224l-1.218.788h-1.361l-.788-.788v1.289l-.716,1.218,1.218.5,3.009,1,.43,1.361H225.8l1.719-.788-1.863,1.933v1H223.79l-.86-.86h-3.08l-2.149,1.934.645.716h2.221v1.433l1.074,1v1.934l-1.289-1.361h-1l-.86,1.361v1.433h-.573l1,1.218v1.433h-.43l-1.218-1.075-.788.573v1.791l1.863.5v2.149l-2.436-1.647-1,.573v1.791h.645v1.934l.86,1.863H217.7l.931-1.719h1l-.931,2.579h-1.361l-1.863,2.006h-1.648l-1.361.573v1l-1.791.788-1.433,1.289,1.5.788-.5.931h-2.794l-1.289,1.791v.86l2.221.644-1.719.86-.86,1.863h-1.647v-1.719l-1.074-.644-.717,1h-1.433l.5,1.289-1,.931v1.289l.573,1.074h-2.579l-1.075.573v2.292l-1.934,1.289v3.08l-1.433,1.218-1.934,1.863.573.86,2.221-1.433h1.218v1.289l-1.433.573v2.221l1.289,1.719,2.364-1.361h2.579l3.438-3.3v-1.5l-1.791.5,1.5-2.006.143-2.077h.788l1-.931H209.1l-3.152,2.006v1.433l3.08.931-1,1.361h-1.647l-3.152,3.295,1.934,1-1.074,1.433v2.078h-1.934l-1.647-1.648h-2.292l-1.361,1.075v2.292l-1.791,1-1.719.931,1.289-1.433.931-.716-1.361-1.791v-2.006l-1.5-2.221h-1.5l-.86,1.5h-2.149v1h2.722l-2.794,2.579-1.863-.86h-1.576l-2.149,1.934h1.218l1.074-.5.573.573L183.1,169.92l-1,1.289-1-1h-1.5v1l2.436,1.433h2.865l-.573,1.5,1.289.5v1.361l-2.579-.788-.43-1.5h-1.934L178.731,172l-.381-1.207-.478.418-.358-.3v1.451l1.934,2.65,2.078,1.5h1.791l.931,1h-1.863L179.3,176.3l-2.866-3.224-1.361.86-1.791-1.361h-2.221l-1.074-.931-.86,1v1.719l-1.218,1.074,1.719,1.791,3.653-1.074.573.788-1.648,1.074.86.5,2.794-1.361h1.289l-.644,1.218-3.224,1.361L172,181.6l-2.221-.573-1.863-2.435h-.931l-1.075.931-1.647-1.433-1.361.86-.931-.573-1.719,1,.5.86,3.51.5,2.221,1.433L169.2,183.6l-.788,1.791.931,1.433-1.648.86-.644-.86v-2.865l-1.863-.645h-2.078l.788,1.433v1.075l-2.435-1.5-2.149,2.221,2.149,1.433h-1.719l-1.218.5-.573-2.149h-.106l-1.326.787v-.787h-1.716l.253.7.675,1.446-1.361.931L153.8,187.4l-.311-.287h-.476l.2-.257-1.273-1.175h-1V186.9l2.149,1.934ZM367.419,34.457h.072v2.364l-.072.1ZM280.74,64.473l-1.047-.628.044-.017,1,.6ZM279.02,49.787l2.55.779-.043.009-2.507-.766ZM277.158,63.04l1.411,1.2-.05.019-1.433-1.218Zm-8.6-2.507,3.725,1,2.292,1.5h-.072l-2.292-1.5-3.678-.99ZM256.312,70.561l2.507,1.146,1.075,1.218h-.072l-1.074-1.218-2.463-1.126Zm-18.164,8.668,1.259-1.433h.572l1,1.433Zm-21.88,77.8,2.507-4.441,2.436-1.433,3.009.644h3.8l1.863-2.553v.046l-1.934,2.65h-3.8l-3.009-.644-2.435,1.433-2.439,4.321Zm-.788,75.36,1.391-.728.042.084-1.5.786Z" fill="#d8dde5"/><path d="M175.866,341.487V340.2l.645-.788v-.5l-2.149-.717-1.719-1.5-3.152-1.648-3.3.5-1.934,1.719-1.863-.788-1.218.788h-2.722l-2.579,2.794-4.083,2.221-.86-.573-2.364.931v2.722l-2.221,1.719.716,2.65-.5,2.364-.931,1.934-.788,1.361-1.719,1.289v1.719l2.579,2.292,2.292.644h-2.579l-1.218,1-.788.717,1,1.289h1.289v1.074H143.63l-1.863-1.934-1.934-.931-1.863.788.716,1h1.791l1.648,1.5h.573l2.149,1.433-2.077-.788h-1.289l-3.08-1h-2.006l1.289.573.315.482-1.247-.554-2.292,1.791-1.5,2.794,1.219.88v.408l-4.012,1.361-.931-.788-3.224,1.863-.788,2.221.5,2.65-.645,4.155-3.224,3.152v1.361l-3.582,1h-1.863l-2.077-.644-4.227,2.292-1,1.934.788,1.361,1.934.645-2.65,1.863-3.224.716-4.441-.573-1.934-1-1.647.931-.717-1.5-1.433-1.074.645-1.791-1.791-.86-1.863.716h-2.65l-1.218-.5.788,2.579L89.258,395l3.725,3.51-.717,1.074.5,1.719-.43,1.719,1.218,1.5v1.934l-3.94-.5-1.719.573-1.648-.43-1.934.5-1.934-1.718-2.435,2.078-3.152-4.155L75,402.235l-2.65.573L70.2,404.742l-1.075-.573-1.289,1.218-1.074-.788H64.473l-1.433,1.433H59.673l-1.5,1.791.86,1.433,1.934-.645,1.934.573.5.788-2.149-.43H59.959l.788,2.149.716-1.648,1.361.5v1.433l-1.289.5-2.006.788v.573h1.934l.86,2.364v1.361l2.292-1.5,1.648.43h1.361l3.582,1.433.788,1.289h1.433l2.435,1.647,1.791-1.647h1.075L78.3,420.5l.573.788,1.863-1.075,1.075,1.075-.86,2.221,1,1.647h1.361l2.149-1.361h2.292l1.433,1.934-1.791-1H85.39L84.1,426.519l1.218.5.43,2.221-1,1.863.43,1.433h1.863l2.794,3.51,2.722.43,2.65,1.5v1.934l1,1.647-.86,2.221h-.5l-.5,1.934,1.863.43,3.438,2.65,2.65,6.376-2.865-2.794-.788-2.722-2.292-1.218-1.075.788L94.2,454.815V458.9l1.791,1.218L94.56,461.19l-.573,7.665-2.006,6.662L89.4,477.093l1.934,1.075v.573H92.7l.43,2.364v.864l-.287-1.58H91.479v-.573l-1.934-1.075.286-.215-1,.573H87.18l-1.075,1.648-5.945-3.51H78.226l-2.077,2.077-4.012-.788-.788-1.791H67.266l-5.444,2.292-3.653-.86-8.023-1.289-2.866-1.647-.788-1-3.582,1-2.865,1.218-2.65-1.074H35.1L33.1,477.094l-2.364-3.009-2.794-.573-1.719,1.218-.573-.788-4.083,2.292v1.5l1.361.931L21.2,479.959l-3.582.43-1.433-.645-4.226,1.5-1.218,2.435.5,3.009,1.433-.5v1.289l.931.43-.573,3.152h.86l1.791-1.719-.5,2.364.86.86-1.289,1.361H16.62l-2.65,2.292v.644l.286.144.215,2.292,1.719,3.869-.788,7.02.43,1.146-.86,3.152,1.647,1.862L15.4,517.926l-1.361,2.937-.143,3.653-2.579,3.653v2.149l-2.937,4.227-1.576,6.519.143,1.647H9.241l1.074-1.647,2.292-1.433-.358,1.433.644,1.218L9.528,543.93l-.143,2.364,1,1.075,1.719-1.576,2.866.071-1.146,1.5.717,3.009-1.075,2.65.143,5.946L12.536,563.2l-.86,1.289.86.644,3.3-2.292,4.656,1.862,2.149,1.289L26,564.131l2.937-.287.5-.931.071.072.072.143,1.863.5,3.295.358,4.585,4.441-.5.717,2.149,5.158,3.725,3.725,3.653.573,3.295-1.791v-1.719l1.576-1.433,4.155-.5,3.51-3.51,4.012.645,1.863-1,4.585,1.289h3.08l.788-.931H77.3l1.863,1.433,1.791-1.5,1.075-1.934,2.149,1.863,2.364,1.075,2.65-4.227V564.06l6.805-3.224h3.8l.931-1.433-.931-.931.43-3.295,3.582-5.015v-2.65l3.725-.931,2.436-2.364-2.794-3.8-1.719-.931-.5-2.221-1.863-3.224,1.289-1.648,4.37-7.164,2.292-1.074,3.224-5.516.941.332,1.423-.906.573-2.65-1.218-1,2.507-1.361,2.794-2.006h4.3l3.582-1.433a27.507,27.507,0,0,0,1.934-2.436l4.227-2.579,1.146-2.149v-2.794l-.573-3.582,1.791-1.218v-2.292l-.86-3.224.86-3.8v-1.863l2.579-2.292,3.94-4.155h1.289l1.289.931h2.579l2.722,1.647h1.934l1.719-1.361h1.648l6.805,4.227,1.863,1.647h5.015l2.149-1.791-.43-1.074,1.934-2.436,7.164-5.3h.788l0-.012,5.3-.919,1.934-2.436V468.5l5.8-3.224,7.164,1.934,2.221,1.433,3.295,1,.931,1.791.645,1.218.931,1.719,2.006,3.3V479.6l1.791,1.075v3.152l2.65,1.289,1.719,2.149,3.08,2.865v2.078h3.224l2.078,2.722.43,1.791,1.433.5,4.585,5.874,4.441,3.295h2.149l1.863,1.289.43,1.863h2.077l1.433-1.361,2.292.931H250.8l2.364,4.441,1.433.931,1.289-.5,1.863.717v1.5h4.012l1.433,1.863v2.221l-.5.931,1.074,1.075h2.292l.931,1.863,2.866.716,1.289-.788,1.647,1,1,3.582.5,3.439,1.218,1.5.931,4.012,1.289,1.863v2.078L276.513,543h-.86l-.644.358v4.37l-1.361,1.5-1.361.788-.573.86V552.6l2.436,2.436h3.224l1.647-2.221.43-2.364,3.08-2.435v-5.158l1.863-1.934,1.934-.5.788-1.648-.573-1,.358-2.865-.644-1.289-3.152-3.009h-1.791l-.788-1.146v-1.648l1.647-1.074.358-1.719v-1.433l1.289-1.361.788-2.722,1-.645h1.5l2.292,1.075.716,1h3.511l1.218.716v1.719l.931,2.078,1.576,1.934,2.006.86V527.6l.573-.5V525.3l.931-1.361v-2.866l-.86-1.5-1.863-1.289-3.653-.931-2.221-2.364-3.439-2.579-8.811-4.8-4.227-1h-1.29l-1.075-1.791v-1l2.794-1.934.43-1.5-1.934-1L272,499.8l-1.791-.5h-4.227l-1.433-.86-2.077-.43-1.576-1.648-3.295-2.579-1.576-2.507-2.077-2.078-1.5-2.221v-2.292l-.931-.5v-1.934l-7.164-7.164-1.361-1.863-2.722-1.433-4.943-2.65-1.218-1.719V464.2l-1.289-2.794,1-.86,1.719-2.579-1.5-1.934-1.218-2.364.86-1.719h2.435l2.292-2.006h2.436l1.647-1.647,1.5-.788,2.507.644-.019-.129.736.344-.072,1.576-1.862.5-.062,1.72h-.082l.717,4.441,2.579,2.364v.86l1,.86,2.722-4.441.43-2.364,1.719-1.934h2.722l.573,2.221,2.221,1.791.645,3.3,1.647,3.152,3.367,3.152h.86l1.934,2.149-1.719-.573h-1.934l-.86,1.863,1,1.934H267.2l2.436,2.364,2.435.86.86,1.934,1.218,1.361,2.579-.5,4.943.43,2.722,1.361,5.439,5.582.091-.222.2.227-.788,1.934,1.433.287,4.227.716,1.146-.573,2.436,3.223.716,1,2.221.931,4.227,5.3.286,1.719,2.507,1.218,3.3,1.647-.286,1.719-1.075.5-1,4.943,1.361,3.582-1,2.364v2.722l1.146,2.077-.788,2.507,1.146,1.361,4.083.215,2.077,5.229,1.934,1.361,1.5-.716,1.5-3.367.143-1.719v2.292l-1.5,3.3-1.5.788v3.224l4.083,3.08,2.292,3.367h1.075v1l3.152,4.441.788,3.08,1.433.573,1.863-2.292,1.719,2.149h2.65L339.7,547.8h1.863l3.009,1.791,1.791-.86v1.5h1.433l1.218.931,2.364.43-1.719,1-1.5,1.5-1.5-1.289-2.078-.5-4.441-2.866-1.934.645-1.863,1.074-1.934-.931-1.647,2.006H331.53l-.788,1.934,2.364,2.722,2.435,1.218,2.364,2.221v1.647l-.931,1.075v2.149l2.077,2.65,1.361,1.5.573-1.433-.5-1.074.86-1.934.788,2.436,3.009,1.289.717,1.647-.43,1.863,1.289,1.5v-3.152l1.074-2.579h1.863l.86,2.006,3.3,2.221-1.361-2.292v-1.5l-1.218-2.221-1.5-3.653-1.361-2.149v-.86h1.361l2.435,1.289-.788.931.788.86,1.289-1.361,2.579.86v-.86l-1-.788v-.931h-.86l-1.863-1.218v-1.074l-2.221-1.719,2.149-.931h1.934l1.218-1,3.08,2.149v.931h2.149l.573-1.289-1.863-2.722.5-2.579-.788-1.433-5.158-3.224-1.647-.43-.788-1.289h-1.433l-.931-1.218H346.86l-2.221-1.934H347l1.361-1.648v-1.218l-2.221-.573,1.218-1.5v-1.289l1.719.644,1.433,1.146-.573,1.218v1.218h1.218l.788-2.65-1.5-1.791L347,529.889l-1.433-1.074v-1.5l-2.65-2.221.931-1.218-.43-4.441,1.433-2.292,2.722-.573v2.221h-1.289V520l3.51,1.647v2.722l2.221,1.791h2.435l-1.791-1.218-.931-1.719v-1.5l2.292.788,1.791,2.436,1.5.573.86-1.433-1.719-1.289-1.5-.573v-1.289h4.155l1.5,1.5.717-.788.43-2.149h-2.435l-2.006-2.364,1.218-1.361,2.221.644,1.791-1,.86-3.009,1.647-.573,2.436,1.863h1.863l2.077-2.149v-1.074h.931l1.5,1.791h4.585l3.438.931,2.436-.645,1.289-2.579-.5-2.435,2.937-1.791v-2.794l-2.292-1,.5-2.937.071-.215h-.071l.071-.143,1.791-1.934,1.791-.143,1.289-1.5h3.223l3.081,2.435,1.647-1.289,2.435.645v-.143L399.942,494l-2.221-3.224-1.863-.286-.43-1.218,3.152-2.364.717-2.221-.5-4.943,3.08-2.722,2.006.286,1.5-1.361.358-4.227-.143-.573-.788-2.722,1.218-2.006.143-3.3-.931-1.647,1.5-1.5.573-2.364,3.868-.286,2.436-.5,1.576-2.937v-1.648l-1.146-.931,1.146-1.146v-.072l.43-1.934-1.075-1.361.215-1.361.072-1.648,1,1.433h1.432l4.227-5.086-.645-1.433h1.146l2.292-2.937v-2.865l1.647-1.289,2.65-.143,2.221-2.794,1.218,1.218-.071.573h2.077l.931-1.289.931-1.5.716,1.289,1.361,1,1.719.573,3.439-.86-2.364,1.433-1.5.788-2.006-.645-3.869.5h-2.507l.931,1.433H435.9l3.295,1.075-.43.86-1.218.788,1.647,1.433,1.576.143,2.006,1.146,2.364-1.218,2.722-.5,2.579,1.146,1.719,1,.86-1.576,1.074.43.5,2.866,1.289,1.5-.931.573-3.367.645-3.94,2.364-2.364,3.438,2.006.86,1.5-1.218,2.507,1.146,1.29-.143,3.51,2.793.215,1.576-1.361,4.083-.644.86,2.006,1.576,4.083.143,3.868-1.791,5.23-3.94,3.582.143,1.934-2.722,2.651-1.433,4.37.716,3.868-.286,1.361-1.648-1-2.077,1.075-.931.86-1.433-3.009-.143-3.51.43-.86,2.292-2.149-1.361-1.289.071-1.863,1.934-1.289-.5-5.444-5.945-.86-3.009-1.647-2.364-1,.644,1.146,2.866,3.868,4.728,3.8,3.582-1.146.645-2.507-.788-1.289-1.361-.5-2.579L467.423,444l-1.361,1.218.359-1.719h-1l-1.075.645-.072-1,1.146-1.361-.788-1.146-1.289.717-1.361-1-1.361-1.647-3.582.286-1.433-1,.358-.931,2.436.43,1.361-1.218,1.647,1.146h2.364l.358-1.361,2.006-.287,3.439-3.582.43-1.289,1.146.717.358,1-2.221,2.579-.86.573.573,1,1.289-.788,2.436-3.367.5-1.5-1.289-1.576-.644-1.361,1-.072,1.432,2.436,1.433.286,2.292-1.5,3.009.716,1.863-1.433,2.292-.286.86.286,2.364-2.579,1.218-1.719,2.436-.143.931-1.934,1.432-1.146,2.866.286,2.794-1.218,1.146.215.287,1.146,2.077-.716.4-2.926.358.067.342-2.759,1.458-.646L508,410.64l5.412-.325,2.022-1.536-.4-2.832,1.374-4.124-.488-3.237-1.77-1.24.665,1.015-2.543-1.714.281-1.738.284.433.579-3.873,2.343-.486,1.862-2.508-.084-2.993L516,384.593l-.97-2.588-1.695,1.7-3.4-.649-2.908-1.781-2.421.4-2.1-1.292-2.992-.08-4.039-.891-1.534,1.536-1.053-2.186-3.466-2.183-2.511-5.5-1.771.241-3.8,2.912-2.42-.486-2.587.73-3.146-1.7-2.022,2.267-5.092-4.935-1.206-3.639V363.4l-2.106-.322-.322-2.347-2.259-1.942-6.221.89-3.068-4.047,1.29-2.508-2.343-1.942-1.695-5.175-2.581-.16-2.831,1.536H437l-5.572-1.862-1.7,1.537.244,2.347-2.581.566-1.806-.419v-2.846L423,343.791l.32-3.077-2.267-3.566-.16-2.751.969-1.784,2.427,2.267,5.823-.807,2.267-3.727,1.3-1.135-2.915-1.946-.32-2.105-4.206-3.726-3.724-.972-.969-3.73-2.267-1.62-2.915-4.05-1.29-3.077-2.588-2.755v-3.4l-1.946-2.27.809-2.912-.642-2.595-4.854-1.782h-1.618l-1.3-1.62-3.236.971-2.908,2.27-2.106-3.727-2.427-.324-2.748,1.3-2.267-3.565-2.427,1.46-1.939-1.3-.9.21-.384-3.171-1.535-2.106-1.213-3.234-.732-1.051-1.451-2.751.32-1.452-.641-1.862-.969-.89.481-1.055-.32-1.938-1.456-.212-.1.223-1.44-.221-.023-.02,1.271-1.935h.3v.659l.882-1.327-.321-2.1,1.771-1.537V259.7l-5.168-9.384.809-8.412,1.311-.9.767-3.205,1.765-2.239.293-.712-.133-.363-1.025-1.747-.042-.209.7-2.451-1.185-1.628-.717,2.435,1,1.719v.86l-.43-.717v1h-9.026l-4.012-2.579h-4.155l-2.221-1.075-1.863.5-2.292-2.077v1.5h-1.433v.931l1.289,1.075-2.077,1.361-1-.645h-4.012l-.788-1-.573,2.221h-2.077l-2.221.645v1.863h-1.433l-3.582,1.5-1.289,2.149v7.164h1.433l.788-.573H335.9l-1,1.647h-1.647v2.866l1.863,2.865,3.152,2.866h1.074v-1.863l2.221-1.791.86,1.647-1.218,5.874v.253l-.5.177v2.866l1,4.871-1.218,3.94L336.9,276.8h-2.65l-2.65-2.579-.287-1.934-5.3-5.659-.143-3.3-1,.072-1.934,2.006-3.152.716-1.074,1.075-2.292.143-1.719,2.508.286,2.364-1-.359.143,3.869-3.009,3.51-.215,2.221.143,2.149-1.648,1.5,1.289,5.373,1.29,1.218v.43l.286,3.367.716,2.793-.931,1.576.573.358,3.869-.788,3.08,4.155,2.865,1.5,4.155-1,1.576.788.359,2.221,1.361.286,1.146,1.218-1.289,1.791.358,3.94,2.221-.215-14.829,1.5-14.255-.86-1.289.5-3.8,3.439-3.295.716-.788-.716,3.223-1.791,2.937-3.08-1,.071-2.364,2.436-4.155,1.934-4.871-1.361-1-2.65.716-1.863,2.579.358,1.146.788.143-.788-3.152-1.576-5.731-1.433-4.441,2.292-3.224-.215-3.295,1.218-2.006,2.866-3.223.072-2.078,2.292v1.791l-3.51.072-5.229,2.865-3.582.286-1.289,2.722-.86,2.722-.788.43.215,1.075-1.146.072-2.006.143-1.361-1.218-1.863.287-2.077-1.648.43-2.149-1.289-1.934-2.292.43-2.794-2.793-1.934-.359-.788-1.146-1,.5-2.435.215-2.364,1.648-.788-.86,1.146-1.218.358.359.86-.931,2.364-.931-2.937-.287-1,.5-.215,1.146-2.292,1.146-.143,1-4.083.644-1.576,2.149-.359,1.647-2.364.215-.717-1.218-2.006-.215-1.075.43-2.794-.86,2.006-1.361,1.361.215,1.433-1.791v-1.863l-.931-.5-1.719,1.361-.645.86-2.794-2.078-.86-1.146-1.074.573-.645,1.218-1.719,1.289-.645-1.863-1.791-.573-.573-1.218,1.074-1.146,1.218-2.579-2.221-.215-2.215-2.359.425-1.008-1.5-1.5h-.86v-1.5l1.289-1.074v-1.719l-1.074-.5v-1.5l4.3-2.221-.931-.788,1.648-1.791.931.573,2.292-.86v-3.08l-1-2.078,1.361-1.361h1.934l1.361,1.5.788-.573h.86l.788-1.074.645-1.863-1.934-2.149-1.074.86h-2.65l-1.289-1.361-1.218-1.791h-1.074l.931-1.218v-2.292l-2.149-1.433h-3.3l-1.647.788h-1.791l-.86.788,1.863,2.579-.5.86,1.791,2.221v.645l-1.719-.645-1.863.43v-1l1.218-1.289-1.218-2.149h-.573l-1.791,2.436,1,1.433-2.149,1.5-1.289-1.433h-1.863l-1.289-.716-1.5,1.647,2.364,1.791v2.149l-1.433-1.074h-.931l.43,2.794,1.5.86v2.579l1.289,1.289-3.08,1.433-1.289,3.224,1.289,1,1.863-1,2.579,2.292.5,3.438-.931.573.334,1.144-.047,0,.143.5-.215,1.863,1.576,1.074,1.146.072-.143,1.576,2.435,2.292-2.006.788H188.76l.072,1.934,1.934-.788V322.5l2.078,1.289-1.791,1.361V326.8l1.5.931,2.722.143,3.51,3.653,4.656,1.934-4.871-.931-3.51-3.869-2.436.931-1.791-.931-1.791.287-1.361,2.221.43,1.934.143,3.223,1,2.078-2.508-2.794.215-2.507-1.648-1.5-1,.43v1.647l1,1.934-1.074,1.218-1.863-2.221v-2.579l-2.507-1.791-1.433.716-5.015,1.361-.43,2.221,1,1.934,2.507.43.5,2.149-.215-.072-.072.43-.645.86-.143,1.218-.931,2.006m-1.822,13.915L172,355.385l.029-.022,1.189,2.027Zm1.822-11.766-.011.009.011-.009Zm7.629,127.975-.752-2.326.039-.094.749,2.314Zm78.19-22.241h-1.113l1.114-.072.139-.766Zm23.353-7.88,0,0,.082.032Zm90.665-172.606.384,1.11v.144l-.645-.645Z" fill="#d8dde5"/><polygon points="289.838 484.329 289.832 484.323 289.83 484.329 289.838 484.329" fill="#d8dde5"/><polygon points="285.755 482.968 287.116 484.687 289.48 485.188 289.83 484.329 288.333 484.329 285.755 482.968" fill="#d8dde5"/><polygon points="256.313 464.414 257.173 464.414 256.17 461.477 253.73 459.769 254.808 461.549 254.307 462.193 256.313 464.414" fill="#d8dde5"/><polygon points="261.399 465.131 261.641 465.131 261.399 464.772 261.399 465.131" fill="#d8dde5"/><polygon points="259.608 462.122 259.536 462.193 259.536 463.626 261.613 464.199 259.608 462.122" fill="#d8dde5"/><polygon points="262.975 473.082 262.402 471.148 260.109 469.286 262.975 473.082" fill="#d8dde5"/><polygon points="253.304 459.472 253.73 459.769 253.375 459.185 253.304 459.472" fill="#d8dde5"/><path d="M254.235,455.746V458.9l1.648.43.86,1.146,1.647-.644-3.224-4.871.143-.359A7.174,7.174,0,0,0,254.235,455.746Z" fill="#d8dde5"/><polygon points="277.445 482.036 277.643 482.036 277.445 481.965 277.445 482.036" fill="#d8dde5"/><polygon points="285.325 485.833 283.892 484.472 280.024 484.472 279.952 484.759 281.886 485.833 285.325 485.833" fill="#d8dde5"/><polygon points="258.963 466.277 257.244 465.56 257.029 465.561 258.963 467.924 258.963 466.277" fill="#d8dde5"/><polygon points="283.176 482.036 277.643 482.036 280.812 483.183 283.176 482.036" fill="#d8dde5"/><polygon points="280.741 481.177 282.889 480.103 281.886 479.458 277.445 479.458 277.445 479.816 278.52 481.177 280.741 481.177" fill="#d8dde5"/><polygon points="264.121 467.065 262.688 465.131 261.641 465.131 263.333 467.638 264.121 467.065" fill="#d8dde5"/><polygon points="142.125 362.62 143.2 362.62 142.34 361.402 140.406 362.261 141.767 362.047 142.125 362.62" fill="#d8dde5"/><polygon points="143.486 360.685 143.486 361.402 144.633 361.402 145.063 360.829 142.985 359.969 141.409 359.969 142.125 361.187 143.486 360.685" fill="#d8dde5"/><polygon points="41.549 187.757 41.549 185.823 39.4 184.39 38.612 184.39 37.967 184.319 39.829 187.184 41.549 187.757" fill="#d8dde5"/><polygon points="37.036 189.333 35.316 187.184 35.316 188.831 37.036 189.333" fill="#d8dde5"/><polygon points="35.316 186.826 35.03 186.826 35.316 187.184 35.316 186.826" fill="#d8dde5"/><polygon points="42.981 184.533 42.122 184.39 43.411 185.966 42.981 184.533" fill="#d8dde5"/><polygon points="39.686 193.918 41.334 195.852 41.334 194.348 40.617 193.273 40.689 193.202 39.686 193.918" fill="#d8dde5"/><polygon points="41.119 202.729 41.119 200.437 41.119 199.29 39.4 198.431 41.119 202.729" fill="#d8dde5"/><polygon points="40.832 191.124 42.695 191.124 40.546 189.476 37.752 184.82 37.036 185.823 37.896 188.187 40.832 191.124" fill="#d8dde5"/><path d="M6.089,361.545H7.737l-.5,1.075,2.794-.645,1.433,1,3.725-.5,3.582-1,2.866-1.934L20.7,357.39l2.077.143-.573,1.289h2.221l2.077-2.149,1.5.072.5-2.078,6.3-.716.5-1.433,1,1.648,1.361-1.29,1.218.5h3.3l-2.221-2.865,1.576-.717,1.72-2.077-.359-1.791,1.791-2.006.645-2.292-.86-5.015-1.361-.86,1.576-1v-2.292l-1.432-2.221.43-2.292L41.979,326.8l.86-1.289,1.361.143-2.436-1.576-.33-.072h.33l2.436,1.647.286.144v-1.648h1l1.719-1.361v-1.576h2.65l.358-1.863H48.569l.645-1.719-.645-1.289h1.218l1.289,3.868-.717-4.943H47.351L49,314.051,45.7,309.395v-2.077l-1.648-.931H40.689l-2.149,1.361H37.251l-.717.788-2.077.43-1.075,1.146-1.5.788-.645,1.934H28.941l2.292-.287.644-1.934,1.5-.86,1.074-1.146-1,.215,2.221-1.791,2.006-1.146-2.364-1.218-1.647-1.5.716,1.576H32.093l.43,2.507-1.648,2.364.215-1.576.86-1.075-1.075-1.934-1.5.358L30.3,306.6l-1.791.072-.931-.931-3.08.788v1.5h-1L22.78,309.9l1.5.645-.43.86H22.279l.215.86-2.221.573.573,1.791h2.435l-.358.644,1.934-.644h1.361l-2.579,2.722-3.223,1.218,1.146,1-3.152.573-1.647-.717-1.433,1.647-.645-2.077-5.158-.788v.931l-2.866-.788-.5,3.152,1.361-1.432.359,1.863.644.358.645,1.863H7.88l-.215-1.075-2.722.143,3.152,2.292,2.221-.573.717,1.719-2.794.573-.358,1.289.788,1.074-3.152.072.716,1.934-1.074.43,1.647,1,1.361-.5-.86,1.074,2.579-.5.717,2.722,6.089-.071-2.006,2.006-1.361-.86-2.292,3.8,1-.143-1.862,2.65-3.94,2.65H7.808L9.957,344.5l1.289.788,2.65.072,1.791-1.791.143.788,2.221.215-4.943,1.361-3.725.143-.86,1.432-2.435.788.86,1.146-.573,1.146,1.075.286-1.791.358-1.576-1.361-.573.931-.5-.645L0,351.731l.358.86,6.877-.43L4.943,354.1l-2.937.644L1.075,357.1H2.866l.43,1.361,5.229-1.719-3.94,2.579-1.647,1.361H5.731l3.582-2.006-.143,1.433Zm20.44-43.676,4.7,4.348h.331l-.33.072-4.728-4.37Z" fill="#d8dde5"/><polygon points="90.906 218.776 90.906 216.125 89.402 216.483 88.972 217.844 90.619 218.776 90.906 218.776" fill="#d8dde5"/><polygon points="37.609 286.79 39.4 285.397 37.609 285.397 37.609 286.79" fill="#d8dde5"/><polygon points="93.914 216.411 93.914 213.904 93.126 213.331 93.126 214.764 92.267 216.053 93.27 217.12 93.914 216.411" fill="#d8dde5"/><polygon points="93.413 217.271 93.27 217.12 93.198 217.199 93.413 217.271" fill="#d8dde5"/><polygon points="41.048 259.68 38.684 258.605 37.466 260.181 38.684 261.399 37.681 262.187 37.323 261.9 38.326 262.76 40.26 262.76 42.194 263.261 43.627 261.256 42.911 260.754 43.555 259.106 45.489 257.316 45.489 254.45 40.475 258.032 41.048 259.68" fill="#d8dde5"/><polygon points="96.422 211.039 94.989 212.472 95.562 213.546 96.422 211.039" fill="#d8dde5"/><polygon points="36.176 276.084 36 276.084 36.033 276.227 36.176 276.084" fill="#d8dde5"/><polygon points="34.099 276.944 33.956 276.944 33.097 278.09 33.097 279.236 34.601 278.305 34.099 276.944" fill="#d8dde5"/><polygon points="91.335 226.942 92.983 225.724 92.338 225.079 91.335 226.942" fill="#d8dde5"/><polygon points="34.672 270.21 34.672 270.926 36.105 271.5 36.105 271.786 36.678 270.21 34.672 270.21" fill="#d8dde5"/><polygon points="37.179 268.921 37.394 268.563 37.394 267.345 34.601 267.345 33.741 267.846 35.245 269.422 37.179 268.921" fill="#d8dde5"/><polygon points="71.493 249.579 70.777 248.433 69.774 248.433 69.774 248.648 70.992 250.582 71.493 249.579" fill="#d8dde5"/><polygon points="91.479 222.143 92.287 223.827 93.198 224.149 92.697 222.358 93.7 221.283 93.7 220.065 94.631 219.062 93.055 218.561 91.766 217.916 91.121 218.561 91.622 219.349 91.622 220.423 89.33 220.423 87.969 220.996 88.828 222.143 91.479 222.143" fill="#d8dde5"/><polygon points="36.176 271.929 35.03 271.929 35.03 273.219 34.457 274.58 34.887 276.084 36 276.084 35.604 274.365 36.176 273.291 36.176 271.929" fill="#d8dde5"/><polygon points="92.338 223.934 92.287 223.827 91.98 223.719 92.338 223.934" fill="#d8dde5"/><polygon points="55.59 296.859 54.658 295.927 54.372 295.927 54.372 297.432 55.59 298.435 55.59 296.859" fill="#d8dde5"/><polygon points="43.34 289.838 43.688 289.594 43.555 289.623 43.34 289.838" fill="#d8dde5"/><polygon points="114.617 364.912 114.164 365.16 115.19 365.7 116.337 365.7 115.692 364.912 114.617 364.912" fill="#d8dde5"/><polygon points="42.337 282.388 40.403 284.752 41.835 284.108 42.337 282.388" fill="#d8dde5"/><polygon points="57.81 322.003 56.95 324.868 57.022 324.653 58.885 324.653 61.535 321.931 61.105 320.785 61.463 318.851 57.81 322.003" fill="#d8dde5"/><path d="M59.1,336.76l3.08,1.576,2.65-2.077H62.9l-.86-1.863H59.673s-.573,1.791-.573,1.863Z" fill="#d8dde5"/><polygon points="93.771 376.231 90.763 377.807 90.763 377.95 92.195 377.95 93.7 379.096 95.204 379.096 95.204 378.308 95.92 377.019 94.846 377.019 93.771 376.231" fill="#d8dde5"/><polygon points="40.403 284.752 40.403 284.752 40.403 284.752 40.403 284.752" fill="#d8dde5"/><polygon points="45.203 267.202 44.128 267.703 44.128 270.211 41.764 268.563 41.764 270.497 40.976 269.996 40.117 270.783 42.194 272.288 42.194 271.5 42.982 272.073 42.982 272.789 44.486 275.44 47.065 275.44 47.065 277.589 47.638 277.446 48.498 277.446 49.142 275.511 49.775 275.15 49.858 274.867 50.27 274.867 50.647 274.652 50.291 274.393 49.572 274.652 48.999 274.294 48.999 274.079 48.57 274.079 46.349 272.861 46.349 269.136 45.203 267.202" fill="#d8dde5"/><polygon points="50.291 274.393 51.363 274.007 50.933 274.437 51.649 275.368 50.36 274.867 50.27 274.867 49.775 275.15 49.5 276.084 50.217 276.586 49.142 276.586 48.497 277.589 49.715 278.019 49.715 278.95 47.71 278.162 47.351 279.523 48.139 280.096 47.71 280.956 46.778 281.672 44.844 281.672 43.984 282.532 44.701 283.033 46.348 283.033 47.495 283.033 47.495 283.535 46.563 283.535 48.282 285.183 48.856 285.183 49.715 286.114 54.3 281.529 53.583 282.89 54.3 283.32 52.939 283.822 51.864 286.472 51.864 287.117 50.431 289.839 51.005 289.839 49.786 293.063 49.786 295.14 48.927 296.358 49.572 297.361 50.36 297.003 48.927 299.295 48.927 302.519 47.852 303.594 47.852 304.595 50.216 304.595 50.216 302.947 51.219 300.583 51.219 299.15 52.437 297.646 51.506 293.707 52.437 293.707 55.231 290.339 53.082 293.563 53.082 295.927 53.87 296.5 53.87 295.139 55.303 293.993 55.947 296.142 57.093 293.563 57.093 291.772 58.025 291.271 57.667 293.634 60.031 295.425 57.953 294.853 57.237 297.861 57.667 300.082 58.884 300.082 59.601 302.016 57.738 303.879 55.876 308.75 56.306 310.899 54.658 309.896 54.658 312.259 56.878 315.34 56.162 312.475 57.666 312.045 61.606 314.91 61.606 312.689 59.959 311.4 60.962 311.4 64.114 313.406 66.334 313.406 66.334 311.758 68.412 311.758 68.985 309.825 74.5 309.825 70.847 310.828 68.626 317.132 71.348 322.074 72.709 321.287 72.709 323.865 74.5 321.716 76.721 321.716 75.933 324.439 76.65 324.868 74.429 326.587 75.074 329.596 73.856 331.888 75.217 333.679 76.864 335.112 78.154 335.112 77.294 335.757 75.79 335.757 74.501 333.966 73.283 334.468 74.286 336.259 75.36 336.975 73.641 336.617 72.208 335.184 68.627 336.33 66.979 336.33 63.254 338.193 61.32 340.915 58.669 342.634 57.523 344.282 59.242 344.282 60.102 344.282 60.102 343.279 63.898 342.276 63.898 344.282 65.188 345.643 63.755 346.717 64.543 348.222 65.402 348.222 62.967 352.949 61.176 353.594 59.385 354.955 58.526 354.955 56.233 356.388 54.585 356.388 51.935 358.107 54.084 358.107 54.084 359.683 52.58 360.4 55.302 360.83 54.657 361.474 55.732 362.047 57.236 361.617 59.027 360.543 61.892 359.611 61.892 360.973 64.185 361.546 62.322 362.047 62.322 363.121 65.474 363.121 65.474 362.549 67.05 362.119 68.698 363.982 70.131 365.701 73.712 365.701 74.572 364.268 76.291 363.551 78.655 362.692 79.586 361.402 81.521 360.471 78.87 363.623 76.22 366.202 76.22 369.211 74.357 369.211 72.924 369.712 71.276 368.781 66.62 368.279 63.325 369.139 63.325 370.858 61.892 372.219 60.029 372.219 60.029 376.088 58.096 377.878 57.594 378.881 55.445 379.311 54.872 381.532 53.727 381.532 53.225 382.678 50.575 384.612 49.357 384.182 47.494 385.472 47.494 387.191 49.5 387.191 49.5 385.687 51.936 386.331 52.724 388.838 53.942 387.692 53.44 386.833 54.515 385.328 55.017 386.045 56.378 384.756 57.237 384.756 57.882 383.108 59.959 383.681 61.607 382.964 62.896 382.964 63.828 382.463 64.759 383.681 65.834 383.681 67.338 384.97 69.129 384.97 69.129 383.824 70.561 383.179 70.919 382.105 70.561 380.171 71.779 378.953 72.782 378.953 73.212 378.165 77.224 377.234 79.301 377.234 81.737 378.881 82.668 378.881 85.319 378.881 86.752 379.383 87.396 377.664 89.832 376.446 91.479 376.947 93.843 375.371 95.491 375.729 96.35 375.729 97.497 374.87 97.497 375.729 98.93 376.517 100.577 375.443 104.231 375.443 106.523 374.941 108.744 375.658 109.818 375.658 111.466 374.297 113.329 374.297 114.976 372.792 116.051 372.792 117.197 372.792 117.197 371.574 119.776 369.784 121.423 369.784 121.423 368.136 120.922 366.99 121.423 365.629 118.486 365.629 116.409 366.416 115.191 366.416 113.257 365.7 112.541 365.7 113.185 365.055 113.758 365.055 113.758 364.697 111.967 364.267 110.463 364.84 112.612 363.336 114.045 363.336 115.764 362.477 115.262 361.044 113.543 361.044 114.833 359.897 115.764 358.966 116.767 359.826 118.343 358.68 118.988 357.677 118.2 357.677 118.701 356.889 116.91 356.889 117.627 355.671 118.773 355.671 118.773 356.53 120.062 354.811 121.352 354.31 121.352 351.086 122.57 348.077 121.638 346.859 121.137 344.065 118.199 340.413 112.97 340.413 109.746 340.413 109.746 342.848 108.886 344.21 107.167 342.275 105.089 341.774 108.313 338.55 108.313 336.545 105.734 332.39 104.731 332.39 102.511 331.1 101.579 329.524 100.433 329.524 99.645 329.524 98.284 329.023 97.496 329.023 99.001 328.593 100.004 328.593 101.651 328.593 102.654 329.095 103.514 330.026 104.66 330.026 105.735 330.026 102.726 326.301 101.293 324.51 102.152 323.077 102.94 323.077 101.436 322.289 100.791 321.143 100.147 321.143 98.356 317.919 95.706 316.558 91.98 315.699 91.98 314.194 91.121 313.693 89.903 309.609 88.542 307.389 87.611 302.159 86.536 300.44 85.533 300.44 82.381 295.784 80.518 295.354 79.086 294.136 76.722 293.205 75.791 294.065 73.928 295.282 71.278 294.423 69.988 294.423 67.839 293.707 67.194 292.56 68.484 293.205 71.062 293.205 73.211 292.488 73.856 290.769 76.005 290.769 77.939 289.265 75.934 288.334 75.934 287.187 75.146 286.543 72.352 288.047 71.922 287.474 74.071 285.898 76.65 285.898 78.154 284.609 78.154 283.463 79.157 282.818 80.661 279.953 81.593 278.592 81.593 277.66 82.667 275.726 82.381 275.941 83.312 273.29 85.103 271.786 85.103 270.067 82.453 267.631 81.88 268.061 77.367 268.061 74.573 267.559 73.785 268.133 72.424 268.133 70.705 267.559 69.487 267.559 69.487 268.133 67.767 268.634 65.905 269.637 65.189 269.637 63.971 270.64 63.612 270.282 65.26 268.348 66.98 265.554 65.69 266.27 64.114 265.697 65.045 265.124 65.045 263.835 69.415 260.54 70.704 258.391 72.209 257.889 72.925 255.955 72.137 255.096 72.997 253.735 72.997 252.875 70.776 252.875 69.916 253.806 68.484 253.377 66.335 254.308 64.401 254.308 62.753 255.024 61.822 255.024 60.819 255.955 60.819 254.952 59.959 254.594 58.168 256.17 58.741 254.738 56.234 253.591 55.804 255.167 54.944 255.812 54.944 257.245 54.443 257.245 54.443 259.036 52.58 259.465 53.44 260.97 52.652 262.474 51.792 262.474 53.941 264.408 54.729 265.769 52.509 264.623 51.721 265.34 50.073 264.265 50.073 265.053 50.503 266.056 50.002 266.844 49.142 265.196 48.354 266.987 49.214 267.918 48.497 268.85 49.786 270.354 51.076 270.354 49.572 270.927 48.067 270.067 48.067 272.503 48.067 273.291 50.861 272.861 48.999 273.792 48.999 274.079 49.859 274.079 50.291 274.393" fill="#d8dde5"/><polygon points="43.913 300.225 43.913 300.098 43.698 300.225 43.913 300.225" fill="#d8dde5"/><polygon points="113.83 365.342 114.164 365.16 113.829 364.984 113.83 365.342" fill="#d8dde5"/><polygon points="44.916 279.236 44.916 280.311 44.988 280.311 45.991 279.236 44.916 279.236" fill="#d8dde5"/><polygon points="69.917 247.143 70.634 247.931 71.135 246.57 71.135 248.146 73.212 248.146 74.359 248.863 74.359 247.143 71.923 247.143 72.711 246.212 71.421 244.923 69.774 244.923 69.917 245.138 69.917 247.143" fill="#d8dde5"/><polygon points="72.854 244.994 72.854 243.848 71.779 243.848 71.995 244.063 72.854 244.994" fill="#d8dde5"/><polygon points="37.609 286.973 37.609 286.79 37.466 286.901 37.609 286.973" fill="#d8dde5"/><polygon points="37.681 265.483 37.736 265.452 37.681 265.411 37.681 265.483" fill="#d8dde5"/><polygon points="39.83 263.62 38.899 264.121 38.469 265.053 37.736 265.452 39.114 266.485 41.549 264.336 39.83 263.62" fill="#d8dde5"/><polygon points="43.841 294.136 43.995 293.625 43.483 294.137 43.841 294.136" fill="#d8dde5"/><polygon points="49.644 287.832 48.856 286.041 47.423 286.041 45.632 284.036 43.627 285.469 46.492 286.902 44.844 287.761 45.274 288.477 43.688 289.594 47.71 288.692 47.71 289.337 49.644 287.832" fill="#d8dde5"/><polygon points="44.486 291.987 43.995 293.625 44.486 293.134 44.486 291.987" fill="#d8dde5"/><polygon points="47.853 295.64 49.572 291.844 45.775 295.426 46.563 297.431 47.853 295.64" fill="#d8dde5"/><polygon points="45.99 298.864 45.059 295.211 41.835 296.5 41.835 299.366 43.913 298.076 43.913 300.098 45.99 298.864" fill="#d8dde5"/><polygon points="43.913 277.23 42.839 277.23 42.839 277.374 43.698 279.165 44.486 278.448 43.913 277.23" fill="#d8dde5"/><polygon points="52.008 299.795 51.936 299.795 52.509 303.019 54.658 303.879 55.303 301.658 53.798 298.506 52.008 299.795" fill="#d8dde5"/><polygon points="192.915 494.716 193.345 496.363 194.992 497.223 194.992 498.082 194.133 498.584 194.849 499.659 196.354 500.518 196.354 502.022 197.141 502.022 197.715 503.025 196.855 503.025 196.067 504.243 196.64 505.246 200.007 506.679 201.941 505.461 203.159 501.879 203.159 499.014 204.52 493.856 203.302 489.343 203.302 486.477 202.729 483.254 201.583 483.254 201.153 485.188 201.798 486.62 201.798 488.626 200.938 488.626 199.577 487.194 198.216 488.555 194.849 489.772 193.345 492.495 194.634 493.713 194.205 494.716 192.915 494.716" fill="#d8dde5"/><polygon points="259.178 580.751 259.106 582.398 261.399 584.332 262.616 582.971 262.545 581.252 259.178 580.751" fill="#d8dde5"/><polygon points="219.563 493.068 220.853 493.641 220.423 492.638 219.563 493.068" fill="#d8dde5"/><polygon points="267.058 552.167 265.84 552.167 263.404 550.806 261.04 553.385 255.954 553.385 251.799 554.674 248.791 554.101 246.642 552.669 244.206 552.669 242.845 553.743 242.057 552.74 239.335 554.029 239.335 557.683 241.699 559.903 244.063 559.474 248.289 562.339 250.582 562.912 252.731 565.204 257.745 567.067 258.748 566.423 260.969 568.07 261.399 569.861 266.556 571.939 267.917 571.223 267.917 568.429 269.063 567.068 269.063 564.632 266.986 561.838 269.063 556.394 271.141 554.531 271.571 551.523 269.852 549.445 267.058 552.167" fill="#d8dde5"/><polygon points="191.625 510.404 192.557 509.33 191.697 508.542 191.339 509.616 190.623 509.974 190.623 511.407 190.909 511.407 191.625 511.407 191.625 510.404" fill="#d8dde5"/><polygon points="213.331 485.547 210.824 486.55 210.609 486.621 209.606 487.624 210.824 488.126 213.116 487.338 214.907 487.338 214.907 486.12 213.833 484.83 213.331 485.547" fill="#d8dde5"/><polygon points="203.946 519.932 206.382 518.284 206.382 516.565 205.809 513.914 204.376 512.267 202.729 509.258 201.869 510.118 199.935 508.613 198.216 508.613 194.132 513.485 192.342 513.485 189.763 511.98 189.763 514.416 189.333 516.063 191.124 517.854 191.554 519.573 192.986 520.863 192.986 523.513 191.411 525.233 192.055 526.594 194.276 526.594 194.276 527.525 192.915 529.173 191.912 533.113 192.843 534.546 193.989 539.13 195.709 540.921 196.712 541.637 196.998 540.992 198.073 541.494 199.72 540.849 199.72 538.271 200.365 536.766 202.514 536.766 203.875 538.127 205.165 538.127 206.024 536.48 206.024 532.325 206.454 531.107 205.952 526.594 206.812 522.511 203.946 519.932" fill="#d8dde5"/><polygon points="115.477 519.072 115.2 518.975 115.047 519.072 115.477 519.072" fill="#d8dde5"/><polygon points="122.282 539.058 122.282 541.064 123.571 542.64 124.861 540.849 126.079 539.631 125.219 538.199 122.282 539.058" fill="#d8dde5"/><polygon points="135.893 529.817 133.672 531.25 133.171 533.184 135.463 533.901 137.254 535.548 137.254 535.476 138.257 532.54 140.764 530.247 138.472 530.247 135.893 529.817" fill="#d8dde5"/><polygon points="144.274 526.093 143.773 527.597 143.773 527.955 147.426 527.955 149.217 528.958 149.79 527.812 147.498 525.448 144.274 526.093" fill="#d8dde5"/><polygon points="206.884 266.127 203.875 269.136 201.01 270.425 199.004 270.425 197.643 272.503 196.496 275.081 194.276 276.586 191.84 276.586 188.975 278.878 188.187 278.305 186.539 278.305 185.823 280.741 184.104 282.46 185.178 283.319 186.181 282.747 187.968 284.75 187.614 282.674 188.115 281.099 191.84 278.735 192.342 279.164 194.204 279.164 196.64 279.666 198.287 279.093 200.508 279.093 202.371 279.881 203.589 279.308 205.809 275.511 205.308 273.147 205.738 272.144 205.236 269.852 206.884 266.915 206.884 266.127" fill="#d8dde5"/><polygon points="188.831 282.173 188.831 284.465 189.333 284.537 190.479 284.035 192.27 282.03 192.27 280.597 190.479 280.597 188.831 282.173" fill="#d8dde5"/><polygon points="188.545 285.397 187.968 284.75 188.115 285.612 188.545 285.397" fill="#d8dde5"/><path d="M210.394,311.974l1.289-2.579s-1.719-1.648-1.433-1.719h-.072l-.573,3.152-.86,1.791.43,1.075Z" fill="#d8dde5"/><polygon points="226.154 301.228 227.658 301.73 226.942 298.864 226.154 301.228" fill="#d8dde5"/><polygon points="225.223 300.296 225.939 297.646 225.939 295.21 225.295 293.348 222.716 293.348 219.779 294.064 218.704 296.07 219.492 297.073 221.211 298.219 221.211 299.365 220.065 299.365 219.563 299.938 217.558 298.577 217.558 297.503 216.483 296.141 215.409 296.858 214.549 298.577 213.188 299.007 213.188 300.655 214.048 302.016 214.048 304.308 215.337 305.884 216.77 305.884 219.349 306.6 219.779 307.603 218.776 308.75 219.635 309.968 221.354 309.968 220.925 309.752 221.785 308.534 221.785 307.03 224.148 306.027 225.295 304.953 224.865 303.591 222.859 302.23 222.859 301.442 225.223 300.296" fill="#d8dde5"/><polygon points="233.031 318.134 232.529 319.781 232.816 319.567 233.461 320.355 235.753 321.143 237.186 319.137 238.547 319.566 238.547 318.563 237.544 316.844 238.046 314.982 236.398 314.982 235.61 315.411 234.894 314.982 233.174 315.411 233.174 316.773 234.894 316.773 234.392 317.346 233.031 318.134" fill="#d8dde5"/><polygon points="208.101 297.431 207.314 294.566 207.314 297.646 206.239 299.366 206.382 299.366 208.101 299.008 208.101 297.431" fill="#d8dde5"/><polygon points="249.006 303.879 248.934 303.95 248.361 306.887 248.934 308.965 252.516 310.183 252.945 308.249 251.012 305.097 249.006 303.879" fill="#d8dde5"/><polygon points="222.93 310.971 222.644 310.612 223.002 311.472 224.005 310.039 225.509 310.039 225.509 308.821 223.861 309.538 222.93 310.971" fill="#d8dde5"/><polygon points="212.686 315.269 215.91 316.343 219.062 316.343 220.136 314.982 220.709 316.701 221.211 316.701 221.211 314.91 222.214 312.977 221.856 311.4 221.426 311.4 219.635 311.4 218.918 313.12 217.773 313.12 216.34 313.549 214.262 310.612 214.262 311.042 213.188 311.042 212.328 312.475 213.116 313.478 211.827 313.98 212.686 315.269" fill="#d8dde5"/><polygon points="206.74 312.977 207.528 312.26 205.135 311.371 206.74 312.977" fill="#d8dde5"/><polygon points="205.021 311.329 205.135 311.371 205.093 311.329 205.021 311.329" fill="#d8dde5"/><polygon points="209.964 272.502 208.889 273.863 210.609 273.863 212.399 272.502 209.964 272.502" fill="#d8dde5"/><polygon points="209.247 307.603 208.675 305.813 207.242 302.661 205.737 302.661 203.302 301.371 199.863 302.016 199.863 302.518 199.362 305.24 200.508 307.675 202.585 309.896 204.448 309.896 205.666 310.684 207.886 310.254 209.247 307.603" fill="#d8dde5"/><polygon points="149.432 218.489 150.22 217.486 148.697 217.486 149.432 218.489" fill="#d8dde5"/><polygon points="258.533 37.608 258.557 37.608 258.39 37.394 258.533 37.608" fill="#d8dde5"/><path d="M266.485,26.147l-2.937.788v2.579h.072a33.24,33.24,0,0,0,2.865-1.863Z" fill="#d8dde5"/><polygon points="229.807 92.625 230.667 90.763 229.377 90.763 228.777 91.663 229.807 92.625" fill="#d8dde5"/><polygon points="270.711 33.525 270.711 33.597 270.729 33.516 270.711 33.525" fill="#d8dde5"/><polygon points="268.992 22.995 267.058 23.64 267.631 25.144 267.631 25.215 268.992 22.995" fill="#d8dde5"/><polygon points="233.676 68.197 233.676 63.899 233.389 63.684 228.303 66.764 228.303 68.985 231.312 67.051 233.676 68.197" fill="#d8dde5"/><polygon points="240.266 65.69 241.126 63.971 243.705 62.538 247.573 58.312 244.708 55.518 244.851 55.661 243.346 54.515 243.346 56.163 244.708 58.096 241.126 58.096 239.621 60.962 239.049 58.884 240.41 52.939 237.759 57.093 237.759 59.171 236.255 61.034 236.255 63.039 235.109 63.684 234.679 66.406 235.897 66.406 238.547 62.896 238.547 65.117 240.266 65.69" fill="#d8dde5"/><polygon points="275.511 27.651 275.725 27.651 275.081 26.29 273.003 24.642 272.502 21.562 271.212 22.422 272 25.359 272 27.364 274.508 28.439 275.511 27.651" fill="#d8dde5"/><polygon points="271.356 30.588 270.729 33.516 272.359 32.665 271.356 30.588" fill="#d8dde5"/><polygon points="270.783 30.015 270.783 29.37 268.849 29.37 268.061 28.081 264.551 31.018 267.416 33.955 268.92 33.955 269.565 32.952 268.992 33.239 268.992 31.304 270.783 30.015" fill="#d8dde5"/><polygon points="150.22 191.196 148.143 189.835 148.071 189.835 149.146 192.557 150.22 191.196" fill="#d8dde5"/><polygon points="150.005 194.921 147.426 193.703 147.928 195.351 150.005 194.921" fill="#d8dde5"/><path d="M149.361,215.767l-.072-.048v.048Z" fill="#d8dde5"/><path d="M147.641,214.621l1.647,1.1V213.26Z" fill="#d8dde5"/><polygon points="258.533 44.199 258.476 44.37 258.677 45.274 258.533 44.199" fill="#d8dde5"/><polygon points="250.868 56.306 250.869 56.306 252.802 55.446 251.585 53.583 250.868 56.306" fill="#d8dde5"/><polygon points="258.104 42.695 256.599 42.193 256.241 40.403 252.803 40.045 253.304 42.408 251.585 41.119 250.224 43.555 252.875 44.916 250.009 44.916 249.006 47.494 251.227 47.494 249.364 49.858 251.227 49.858 251.227 51.936 252.23 51.936 252.803 49.142 255.382 49.142 256.241 47.853 258.605 47.351 258.103 45.488 258.476 44.37 258.104 42.695" fill="#d8dde5"/><polygon points="177.024 166.33 176.439 164.834 174.075 164.834 176.224 167.198 177.024 166.33" fill="#d8dde5"/><polygon points="177.084 166.266 177.024 166.33 177.084 166.482 177.084 166.266" fill="#d8dde5"/><polygon points="216.627 117.268 219.277 115.047 217.2 115.047 216.247 116.067 216.627 117.268" fill="#d8dde5"/><polygon points="220.638 72.997 220.71 72.997 221.713 71.134 220.71 70.561 219.779 71.707 220.638 72.997" fill="#d8dde5"/><polygon points="214.764 112.182 215.48 114.975 217.271 112.11 216.841 109.961 214.764 112.182" fill="#d8dde5"/><polygon points="223.073 72.925 227.085 69.845 227.085 68.061 223.718 68.985 223.073 72.925" fill="#d8dde5"/><polygon points="235.825 55.947 235.109 52.939 234.894 53.225 233.461 53.225 233.891 54.3 231.956 56.592 229.879 56.091 229.091 58.383 229.951 59.816 232.816 57.524 234.32 57.524 231.598 59.457 232.816 60.532 235.825 59.673 235.825 55.947" fill="#d8dde5"/><polygon points="247.931 52.724 245.639 51.577 243.991 52.294 244.708 53.01 244.708 52.938 247.931 54.299 247.931 52.724" fill="#d8dde5"/><polygon points="240.553 50.718 240.553 48.426 242.917 46.707 242.344 44.629 239.407 45.775 239.407 47.781 236.398 50.217 236.398 53.44 237.544 54.228 237.544 54.3 240.553 50.718" fill="#d8dde5"/><polygon points="227.085 68.061 227.372 67.982 227.085 67.982 227.085 68.061" fill="#d8dde5"/><polygon points="228.661 91.837 228.777 91.663 228.733 91.622 228.661 91.837" fill="#d8dde5"/><polygon points="216.197 116.122 216.247 116.067 216.197 115.906 216.197 116.122" fill="#d8dde5"/><polygon points="182.671 165.407 185.178 165.407 186.826 163.401 185.68 162.112 183.961 162.112 183.316 163.258 181.095 163.258 179.734 165.837 181.167 166.266 182.671 165.407" fill="#d8dde5"/><polygon points="179.232 161.539 179.396 161.395 179.304 161.395 179.232 161.539" fill="#d8dde5"/><polygon points="184.247 159.82 182.743 158.458 179.396 161.395 181.955 161.395 184.247 159.82" fill="#d8dde5"/><polygon points="231.957 61.105 230.739 63.111 230.739 63.183 233.891 62.753 231.957 61.105" fill="#d8dde5"/><polygon points="212.615 131.81 209.749 132.311 208.89 133.959 208.961 134.03 210.323 134.604 212.615 131.81" fill="#d8dde5"/><polygon points="218.99 74.645 218.417 71.493 216.411 75.003 216.411 77.223 218.99 74.716 218.99 74.645" fill="#d8dde5"/><polygon points="215.265 80.375 214.406 81.951 215.552 82.668 216.197 81.521 215.265 80.375" fill="#d8dde5"/><polygon points="212.973 121.064 212.042 120.419 211.97 120.491 210.824 122.21 211.827 123.5 212.973 122.425 212.973 121.064" fill="#d8dde5"/><polygon points="205.451 136.108 203.732 137.97 205.738 137.97 206.526 139.331 206.526 139.188 207.673 138.185 210.251 135.033 208.603 135.75 205.451 136.108" fill="#d8dde5"/><polygon points="262.76 39.543 265.41 39.543 265.41 38.253 266.915 36.319 265.482 34.098 264.193 35.889 261.542 35.889 261.542 37.608 258.557 37.608 260.683 40.331 262.76 39.543" fill="#d8dde5"/><polygon points="155.091 187.113 155.061 187.028 154.733 186.325 154.808 186.325 154.447 185.322 154.447 185.25 153.212 186.856 153.49 187.113 155.091 187.113" fill="#d8dde5"/><polygon points="178.301 170.637 178.35 170.791 179.018 170.206 178.445 167.771 176.439 169.992 176.439 169.992 177.513 170.905 177.513 170.637 178.301 170.637" fill="#d8dde5"/><polygon points="306.743 5.373 308.176 7.593 309.179 7.593 309.824 6.519 309.752 6.161 308.678 4.871 306.743 5.373" fill="#d8dde5"/><polygon points="305.669 13.611 305.669 15.759 308.678 14.614 309.466 12.679 306.887 10.745 303.807 11.891 303.95 11.891 305.669 13.611" fill="#d8dde5"/><polygon points="158.817 185.752 158.1 184.462 156.524 183.983 156.524 186.325 157.85 186.325 158.817 185.752" fill="#d8dde5"/><polygon points="156.381 242.272 156.094 242.201 156.094 244.278 157.814 243.705 156.381 242.272" fill="#d8dde5"/><polygon points="156.452 183.961 156.524 183.983 156.524 183.961 156.452 183.961" fill="#d8dde5"/><polygon points="280.239 23.353 278.734 24.786 278.734 28.511 280.382 29.155 281.671 31.018 281.814 30.946 282.817 29.012 281.528 27.293 282.531 25.072 280.239 23.353" fill="#d8dde5"/><polygon points="293.921 20.344 296.357 21.562 298.577 22.493 298.577 22.35 299.007 20.273 297.932 19.126 295.569 19.126 293.921 20.344" fill="#d8dde5"/><polygon points="301.514 20.702 301.872 20.702 301.872 18.769 303.663 16.62 303.019 14.112 299.007 17.622 301.514 20.702" fill="#d8dde5"/><polygon points="153.73 223.862 154.446 221.785 152.727 219.564 153.73 223.862" fill="#d8dde5"/><polygon points="153.229 226.226 153.229 224.814 151.51 226.226 153.229 226.226" fill="#d8dde5"/><polygon points="314.624 3.009 314.695 3.08 315.483 1.433 313.907 1.433 313.12 3.009 314.624 3.009" fill="#d8dde5"/><polygon points="317.776 4.155 320.283 4.513 322.647 6.376 324.939 5.874 325.942 3.367 322.79 3.367 324.295 1.504 322.504 1.074 321.214 0 321.214 1.791 320.14 2.794 318.779 2.149 317.776 3.08 317.776 4.155" fill="#d8dde5"/><polygon points="148.573 217.486 148.697 217.486 148.644 217.415 148.573 217.486" fill="#d8dde5"/><polygon points="155.163 225.366 155.163 225.438 155.306 225.151 155.163 225.366" fill="#d8dde5"/><polygon points="148.644 210.394 148.214 209.32 148.214 209.391 146.352 210.824 147.498 211.541 148.644 210.394" fill="#d8dde5"/><polygon points="150.292 219.994 148.214 220.638 149.647 222.429 150.292 219.994" fill="#d8dde5"/><polygon points="155.163 225.438 154.303 227.157 155.163 227.157 155.163 225.438" fill="#d8dde5"/><polygon points="153.229 224.292 153.229 224.814 153.516 224.578 153.229 224.292" fill="#d8dde5"/><polygon points="297.144 11.39 295.998 13.611 294.709 12.106 292.775 13.539 290.769 13.109 291.629 15.473 295.139 16.548 296.643 16.548 296.715 16.19 302.589 10.316 302.159 8.883 298.577 12.178 297.144 11.39" fill="#d8dde5"/><polygon points="151.295 229.736 153.014 232.243 153.802 230.596 152.584 229.306 151.294 229.736 151.295 229.736" fill="#d8dde5"/><polygon points="291.056 252.874 289.91 251.871 288.978 252.444 288.978 252.444 289.91 254.307 291.056 252.874" fill="#d8dde5"/><polygon points="290.626 263.906 291.844 262.76 293.85 262.187 293.348 261.399 291.056 261.399 289.838 262.76 289.838 262.832 290.626 263.906" fill="#d8dde5"/><polygon points="215.91 259.321 214.477 259.321 214.334 259.608 214.334 261.184 215.48 261.184 215.91 259.321" fill="#d8dde5"/><polygon points="288.405 265.124 289.336 264.264 288.047 263.548 286.829 264.264 284.465 264.264 282.961 266.198 281.886 268.204 280.382 269.78 281.099 272.359 280.311 272.86 282.531 276.084 283.391 276.084 282.889 277.947 281.6 279.595 281.6 280.598 282.101 280.167 284.68 279.451 285.181 278.09 284.394 277.517 284.823 276.156 287.402 274.15 287.402 272.717 289.05 270.783 289.05 269.78 287.474 268.347 288.405 266.413 288.405 265.124" fill="#d8dde5"/><polygon points="281.385 240.41 281.385 237.616 283.606 235.681 283.606 233.819 280.955 233.819 278.806 236.971 278.806 237.043 280.454 239.693 281.385 240.41" fill="#d8dde5"/><polygon points="267.488 276.658 266.771 279.953 265.553 280.741 265.339 286.901 265.339 288.979 265.339 290.483 266.055 291.199 266.843 289.265 268.061 285.683 268.491 281.959 269.637 278.162 270.066 274.867 268.849 273.577 267.488 275.655 267.488 276.658" fill="#d8dde5"/><polygon points="310.54 214.334 310.54 216.125 311.472 217.2 312.833 216.268 310.54 214.262 310.54 214.334" fill="#d8dde5"/><polygon points="322.79 222.715 322.822 222.842 322.862 222.787 322.79 222.715" fill="#d8dde5"/><polygon points="319.566 219.993 319.566 221.784 320.426 221.784 319.782 220.208 319.566 219.993" fill="#d8dde5"/><polygon points="320.999 224.435 321.787 225.438 323.22 224.435 322.822 222.842 322.074 223.862 320.999 224.435" fill="#d8dde5"/><polygon points="333.321 128.085 329.882 127.583 327.805 129.088 329.309 131.308 331.244 131.308 332.103 130.234 332.318 130.306 331.315 129.088 333.321 129.088 333.321 128.085" fill="#d8dde5"/><polygon points="299.509 163.616 299.652 163.73 299.724 163.544 299.509 163.616" fill="#d8dde5"/><polygon points="301.873 161.969 300.512 160.822 300.512 162.255 300.297 162.327 301.013 162.9 301.873 161.969" fill="#d8dde5"/><polygon points="305.454 215.194 305.695 215.194 305.383 214.907 305.454 215.194" fill="#d8dde5"/><polygon points="295.927 225.151 297.431 224.292 296.93 222.357 295.282 222.357 294.064 220.423 294.852 219.564 296.428 219.564 296.428 217.845 293.133 215.552 291.987 215.552 291.987 217.271 293.706 218.346 293.061 219.349 290.482 218.417 289.336 220.208 290.698 221.211 291.916 222.715 294.136 223.432 295.927 225.151" fill="#d8dde5"/><polygon points="302.302 164.427 302.302 163.974 300.87 164.691 299.652 163.73 299.008 165.407 300.297 166.983 302.17 165.912 301.801 164.618 302.302 164.427" fill="#d8dde5"/><polygon points="318.523 217.295 315.197 217.988 315.483 217.988 315.053 219.349 316.63 220.208 318.635 218.56 318.635 217.629 318.348 217.629 318.523 217.295" fill="#d8dde5"/><polygon points="307.532 215.194 305.695 215.194 306.242 215.695 307.532 215.194" fill="#d8dde5"/><polygon points="317.776 245.782 319.71 244.922 321.644 244.922 322.755 246.792 323.435 245.567 325.369 244.278 326.73 244.708 325.799 242.487 323.793 242.487 322.719 241.412 321.501 241.412 321.501 242.2 320.426 243.561 316.916 245.209 317.776 245.782" fill="#d8dde5"/><polygon points="330.957 250.152 329.954 247.644 327.089 247.644 327.089 248.934 327.232 248.863 329.811 250.868 330.957 250.152" fill="#d8dde5"/><polygon points="323.005 247.215 322.755 246.792 322.719 246.857 323.005 247.215" fill="#d8dde5"/><polygon points="329.452 243.06 328.951 241.914 327.017 241.914 326.945 241.771 327.375 243.06 329.452 243.06" fill="#d8dde5"/><polygon points="318.134 259.464 317.131 261.613 318.062 261.613 319.782 260.181 319.782 259.035 321.357 255.954 324.438 255.381 325.942 254.45 327.232 252.516 328.736 252.516 329.238 252.516 328.736 251.799 327.661 251.155 325.942 249.866 322.504 249.866 321.572 249.364 320.498 250.725 319.782 250.725 318.707 252.086 318.134 251.012 316.916 250.653 316.916 251.585 315.842 252.015 317.346 252.516 317.346 253.591 316.2 254.379 316.2 255.668 317.919 256.098 319.638 257.745 319.065 259.464 318.134 259.464" fill="#d8dde5"/><polygon points="326.014 545.506 326.73 544.646 326.73 542.712 325.942 542.712 324.939 544.503 324.939 545.219 324.724 545.506 325.297 545.506 326.014 545.506" fill="#d8dde5"/><polygon points="371.932 524.301 372.267 524.301 372.362 524.158 371.932 524.301" fill="#d8dde5"/><polygon points="387.907 533.901 385.543 534.259 384.325 535.047 381.818 535.906 380.815 537.625 382.463 538.986 383.251 538.7 384.325 538.7 384.325 537.339 384.826 536.05 386.474 536.05 386.474 537.411 385.543 538.199 384.97 539.058 386.474 539.775 388.695 539.775 388.695 537.411 388.337 535.763 387.835 535.763 388.265 534.474 387.907 533.901" fill="#d8dde5"/><polygon points="358.536 539.202 358.178 537.769 357.032 537.339 356.316 537.339 356.316 537.626 358.178 539.989 358.536 539.202" fill="#d8dde5"/><polygon points="370.858 556.824 373.221 559.188 374.153 559.188 374.153 557.97 372.219 556.251 371.288 554.89 370.285 554.89 370.428 554.961 369.855 555.964 370.858 556.824" fill="#d8dde5"/><polygon points="372.29 526.737 373.293 527.597 374.153 527.597 375.442 528.169 375.442 526.02 376.803 524.516 375.657 523.871 374.511 524.946 373.723 524.301 372.267 524.301 371.789 525.018 372.29 526.737" fill="#d8dde5"/><polygon points="382.821 549.087 382.821 549.947 384.039 550.878 385.543 550.162 385.973 548.299 385.471 545.506 385.042 545.076 383.68 544.503 382.391 545.219 382.391 545.935 383.824 547.01 383.824 548.658 382.821 549.087" fill="#d8dde5"/><polygon points="378.308 565.779 379.096 567.068 379.884 566.853 380.887 565.563 380.887 564.417 379.884 564.417 378.308 565.779" fill="#d8dde5"/><polygon points="385.328 561.337 385.21 561.184 385.041 561.337 385.328 561.337" fill="#d8dde5"/><polygon points="386.975 558.758 384.611 559.188 384.611 560.406 385.21 561.184 386.617 559.904 386.975 558.758" fill="#d8dde5"/><polygon points="389.555 586.409 388.981 587.341 388.981 588.487 387.62 589.633 386.617 588.773 385.471 589.203 384.253 589.203 384.253 588.129 383.68 586.696 383.251 586.696 380.242 586.266 377.878 585.192 374.726 585.192 372.076 586.839 370.07 587.341 368.351 586.481 367.563 585.622 366.202 585.622 367.133 584.762 366.345 583.401 364.626 583.401 364.626 584.261 365.199 584.261 364.554 584.833 362.906 584.833 362.477 583.186 361.975 583.186 361.975 584.117 361.975 585.263 361.115 585.263 361.187 585.98 360.471 584.619 360.471 586.195 359.754 587.627 359.754 589.347 361.402 590.063 365.127 589.562 366.703 589.991 368.207 589.49 370.428 590.134 372.863 591.567 372.863 593 375.657 593 377.95 591.567 380.528 591.567 384.683 591.567 387.549 591.567 389.196 590.564 389.913 588.988 389.555 587.412 389.555 586.409" fill="#d8dde5"/><polygon points="329.094 557.397 328.091 556.036 326.73 555.391 325.799 555.821 325.799 557.039 327.303 558.615 328.593 558.615 328.593 557.899 329.954 557.899 329.094 556.896 329.094 557.397" fill="#d8dde5"/><polygon points="352.806 573.802 352.447 574.303 352.376 574.375 351.803 575.736 352.447 576.81 352.447 577.885 353.522 578.458 354.31 576.81 353.164 575.306 352.806 573.802" fill="#d8dde5"/><polygon points="352.447 572.225 352.304 573.157 353.092 573.157 352.447 572.225" fill="#d8dde5"/><polygon points="326.3 552.741 327.661 553.457 328.378 552.383 327.948 551.81 327.948 550.735 326.945 549.732 326.945 548.801 326.229 547.225 324.939 546.15 324.939 548.801 324.008 548.801 322.647 549.159 322.647 551.523 323.65 552.597 324.223 552.025 324.223 550.878 324.724 551.451 324.724 552.741 326.3 552.741" fill="#d8dde5"/><polygon points="355.599 537.268 355.097 536.766 354.238 537.339 354.238 537.339 355.026 538.342 355.599 537.268" fill="#d8dde5"/><polygon points="350.8 539.631 349.224 540.992 348.579 541.065 349.582 541.065 351.516 541.065 352.59 541.924 353.02 542.641 354.023 543.071 354.883 544.288 356.244 544.288 357.103 545.649 359.109 546.724 360.542 546.724 361.115 547.655 362.548 549.804 363.407 550.664 363.407 551.882 363.981 553.028 365.628 554.102 366.559 553.601 367.634 554.174 368.422 551.882 366.416 551.882 365.772 552.383 364.267 550.95 364.267 549.302 364.267 548.156 364.267 547.225 363.336 545.506 360.685 542.855 360.685 543.214 359.252 543.214 359.252 542.784 357.319 541.781 355.384 541.064 353.665 539.202 350.8 539.631" fill="#d8dde5"/><polygon points="316.2 531.465 316.2 529.244 316.414 529.316 315.411 528.671 313.478 529.388 313.478 530.533 314.624 531.035 314.624 531.68 316.63 533.757 318.42 534.617 318.922 534.187 318.922 533.399 317.489 532.898 316.2 531.465" fill="#d8dde5"/><polygon points="378.451 561.91 379.454 561.265 378.451 561.265 378.451 561.91" fill="#d8dde5"/><polygon points="388.767 571.796 388.265 572.584 389.268 573.372 390.701 572.727 391.417 571.581 390.486 571.151 388.767 571.796" fill="#d8dde5"/><polygon points="366.488 514.631 366.344 514.989 365.7 516.995 366.918 516.995 367.491 517.353 368.924 516.636 368.924 515.418 367.347 514.631 366.488 514.631" fill="#d8dde5"/><polygon points="368.135 572.655 369.353 572.225 369.353 571.08 367.921 571.08 366.846 572.655 367.132 572.655 368.135 572.655" fill="#d8dde5"/><polygon points="393.781 556.967 392.42 555.893 391.131 555.893 389.268 557.397 389.196 556.752 388.695 557.54 389.841 557.54 391.059 557.54 391.99 558.615 393.065 558.615 393.566 557.97 394.784 557.397 394.784 556.537 394.139 556.537 393.781 556.967" fill="#d8dde5"/><polygon points="404.383 580.535 404.312 580.464 404.312 580.464 404.383 580.535" fill="#d8dde5"/><polygon points="398.796 582.47 397.578 583.974 398.151 584.977 398.509 587.269 398.366 587.341 399.082 587.341 399.87 585.192 398.796 583.831 398.796 582.47" fill="#d8dde5"/><polygon points="399.583 580.034 399.011 581.037 399.011 581.538 399.583 581.538 399.583 581.108 399.583 580.034" fill="#d8dde5"/><polygon points="367.849 539.846 367.061 539.846 366.918 539.99 368.064 541.852 368.637 541.852 369.21 543.142 369.926 543.142 369.926 541.279 368.78 540.849 367.849 539.846" fill="#d8dde5"/><polygon points="376.373 567.498 376.329 567.46 376.302 567.498 376.373 567.498" fill="#d8dde5"/><polygon points="376.875 564.847 375.8 564.847 375.37 566.638 376.329 567.46 377.376 565.993 376.875 564.847" fill="#d8dde5"/><polygon points="375.227 559.331 375.084 559.331 376.015 560.406 377.305 560.979 377.305 559.904 376.302 558.973 375.227 559.331" fill="#d8dde5"/><polygon points="377.233 517.639 376.803 518.427 376.803 518.57 378.881 519.43 380.099 519 380.099 517.997 378.738 517.639 377.233 517.639" fill="#d8dde5"/><polygon points="368.708 566.208 368.708 564.776 367.705 565.492 368.708 566.208" fill="#d8dde5"/><polygon points="365.843 560.119 366.201 560.836 367.347 560.334 366.559 559.259 365.843 560.119" fill="#d8dde5"/><polygon points="367.276 563.128 368.279 562.555 368.279 561.552 367.276 561.552 367.276 563.128" fill="#d8dde5"/><polygon points="406.317 575.019 403.882 577.025 403.882 578.171 404.24 578.601 403.667 579.819 404.312 580.464 405.243 580.464 406.246 579.246 407.464 578.1 408.538 578.1 408.538 577.383 409.111 576.38 409.541 575.163 410.329 574.518 410.329 573.372 408.896 573.945 406.317 575.019" fill="#d8dde5"/></g></g></g></svg>