<svg xmlns="http://www.w3.org/2000/svg" width="11.777" height="55.989" viewBox="0 0 11.777 55.989"><title>level-1-2</title><g id="Capa_2" data-name="Capa 2"><g id="Content"><path d="M9.024,56.028V53.534H9.96v3.5H.917V56.028Z" transform="translate(-0.065 -1.047)" fill="#FFF"/><path d="M7.346,52.056a1.826,1.826,0,0,0,1.883-1.847,1.929,1.929,0,0,0-1.163-1.715l.468-.815a2.846,2.846,0,0,1,1.583,2.6,2.728,2.728,0,0,1-2.9,2.758,2.732,2.732,0,1,1,.132-5.408ZM6.53,48.638a1.72,1.72,0,0,0-1.476,1.655A1.783,1.783,0,0,0,6.53,52.008Z" transform="translate(-0.065 -1.047)" fill="#FFF"/><path d="M8.113,44.438l-3.79-1.68V41.679l6.009,2.759L4.323,47.208V46.116Z" transform="translate(-0.065 -1.047)" fill="#FFF"/><path d="M7.346,40.271a1.826,1.826,0,0,0,1.883-1.847A1.929,1.929,0,0,0,8.065,36.71l.468-.815a2.846,2.846,0,0,1,1.583,2.6,2.728,2.728,0,0,1-2.9,2.758,2.732,2.732,0,1,1,.132-5.408ZM6.53,36.854a1.72,1.72,0,0,0-1.476,1.655A1.783,1.783,0,0,0,6.53,40.224Z" transform="translate(-0.065 -1.047)" fill="#FFF"/><path d="M9.96,33.589v.959H.065v-.959Z" transform="translate(-0.065 -1.047)" fill="#FFF"/><path d="M1.853,27.121l-.936-.528V24.614H9.96v1.007H1.853Z" transform="translate(-0.065 -1.047)" fill="#FFF"/><path d="M.426,11.308l11.417,5.625-.359.779L.065,12.1Z" transform="translate(-0.065 -1.047)" fill="#FFF"/><path d="M9.024,1.047H9.96V6.9l-5-4.233a2.335,2.335,0,0,0-1.511-.611A1.757,1.757,0,0,0,1.7,3.854,1.787,1.787,0,0,0,3.556,5.677V6.684A2.759,2.759,0,0,1,.762,3.89,2.737,2.737,0,0,1,3.436,1.047a2.8,2.8,0,0,1,1.907.684L9.024,4.861Z" transform="translate(-0.065 -1.047)" fill="#FFF"/></g></g></svg>