<svg xmlns="http://www.w3.org/2000/svg" width="13.061" height="36.807" viewBox="0 0 13.061 36.807"><title>update</title><g id="Capa_2" data-name="Capa 2"><g id="Content"><path d="M6.3,36.205a3.344,3.344,0,0,0,2.015-.4,2.331,2.331,0,0,0,.863-1.822,2.394,2.394,0,0,0-.8-1.775A3.117,3.117,0,0,0,6.3,31.767H.917V30.76h5.66a3.181,3.181,0,0,1,2.507.791,3.327,3.327,0,0,1,1.031,2.436,3.383,3.383,0,0,1-.923,2.338,3.188,3.188,0,0,1-2.615.888H.917V36.205Z" transform="translate(-0.065 -0.404)" fill="#50535b"/><path d="M5.126,28.057v-.023a2.378,2.378,0,0,1-.959-1.943,2.8,2.8,0,0,1,2.986-2.7,2.741,2.741,0,0,1,2.962,2.71,2.375,2.375,0,0,1-.947,1.932v.023h3.958v.96h-8.8v-.96Zm1.955.048a1.947,1.947,0,0,0,2.147-1.847,1.923,1.923,0,0,0-2.135-1.883A1.884,1.884,0,0,0,5.055,26.27,1.91,1.91,0,0,0,7.081,28.1Z" transform="translate(-0.065 -0.404)" fill="#50535b"/><path d="M9.18,17.858v.024a2.4,2.4,0,0,1,.936,1.943,2.78,2.78,0,0,1-2.962,2.7,2.762,2.762,0,0,1-2.986-2.711,2.438,2.438,0,0,1,.959-1.931v-.024H.065V16.9H9.96v.959Zm-2.1,3.683a1.947,1.947,0,0,0,2.147-1.847,1.923,1.923,0,0,0-2.135-1.884,1.885,1.885,0,0,0-2.039,1.9A1.911,1.911,0,0,0,7.081,21.541Z" transform="translate(-0.065 -0.404)" fill="#50535b"/><path d="M9.96,9.976v.959H9.18v.024a2.37,2.37,0,0,1,.936,1.943,2.78,2.78,0,0,1-2.962,2.7A2.762,2.762,0,0,1,4.167,12.89a2.436,2.436,0,0,1,.959-1.931v-.024h-.8V9.976ZM7.081,14.617a1.947,1.947,0,0,0,2.147-1.847,1.923,1.923,0,0,0-2.135-1.884,1.885,1.885,0,0,0-2.039,1.9A1.911,1.911,0,0,0,7.081,14.617Z" transform="translate(-0.065 -0.404)" fill="#50535b"/><path d="M9.96,7.188v.959H5.21v.588H4.323V8.147H2.3V7.188H4.323V6.181H5.21V7.188Z" transform="translate(-0.065 -0.404)" fill="#50535b"/><path d="M7.345,4.836A1.826,1.826,0,0,0,9.229,2.989,1.93,1.93,0,0,0,8.064,1.274L8.532.459a2.844,2.844,0,0,1,1.583,2.6,2.728,2.728,0,0,1-2.9,2.758A2.757,2.757,0,0,1,4.167,3.085,2.739,2.739,0,0,1,7.345.411ZM6.529,1.418A1.719,1.719,0,0,0,5.055,3.073,1.782,1.782,0,0,0,6.529,4.788Z" transform="translate(-0.065 -0.404)" fill="#50535b"/></g></g></svg>