<svg xmlns="http://www.w3.org/2000/svg" width="30" height="30" viewBox="0 0 30 30"><title>alert_archive_icon</title><g id="Capa_2" data-name="Capa 2"><g id="Search_results" data-name="Search results"><path d="M28.125,22.5H25.313a.937.937,0,0,0-.663.275L20.625,26.8V23.438a.937.937,0,0,0-.937-.937H1.875V3.75h7.5V1.875H.938A.937.937,0,0,0,0,2.813V23.438a.937.937,0,0,0,.938.938H18.75v4.688a.937.937,0,0,0,1.6.663l5.35-5.35h3.362A.937.937,0,0,0,30,23.438v-3.75H28.125Z" fill="#50535b"/><path d="M20.625,18.75A9.375,9.375,0,1,0,11.25,9.375,9.386,9.386,0,0,0,20.625,18.75Zm0-16.875a7.5,7.5,0,1,1-7.5,7.5A7.509,7.509,0,0,1,20.625,1.875Z" fill="#50535b"/><rect x="19.688" y="4.688" width="1.875" height="5.625" fill="#50535b"/><rect x="19.688" y="12.188" width="1.875" height="1.875" fill="#50535b"/></g></g></svg>