<svg xmlns="http://www.w3.org/2000/svg" width="17.177" height="18.353" viewBox="0 0 17.177 18.353"><title>button_pdf_1</title><g id="Capa_2" data-name="Capa 2"><g id="Search_results" data-name="Search results"><path d="M5.91.5S7,.438,7.306,2.291c.169,1.033.126,2.464-1.324,7.186S3.176,17.1,2.208,17.662a1.027,1.027,0,0,1-1.475-.3s-.7-.708.328-2.058c.632-.831,1.913-2.484,6.583-4.02s7.229-1.239,8.247-.769a1.213,1.213,0,0,1,.756,1.408s-.235,1.033-1.78.819c-.951-.132-1.636-.413-5.133-3.409C5.7,5.88,5.146,4.18,4.947,2.192,4.792.635,5.91.5,5.91.5Z" fill="none" stroke="#fff" stroke-miterlimit="10"/></g></g></svg>