<svg xmlns="http://www.w3.org/2000/svg" viewBox="0 0 28 32"><defs><style>.cls-1{fill:#50535b;}</style></defs><title>financial_icon</title><g id="Capa_2" data-name="Capa 2"><g id="Reulation_tracker_list" data-name="Reulation tracker list"><path class="cls-1" d="M27,6H21V2a2,2,0,0,0-2-2H9A2,2,0,0,0,7,2V6H1A1,1,0,0,0,0,7V31a1,1,0,0,0,1,1H13V30H2V8H7v3H5v2h6V11H9V8H19v3H17v2h6V11H21V8h5v7h2V7A1,1,0,0,0,27,6ZM19,6H9V2H19Z"/><path class="cls-1" d="M22,20a1,1,0,0,1,1,1h2a3,3,0,0,0-2-2.82V16H21v2.18A3,3,0,0,0,22,24a1,1,0,1,1-1,1H19a3,3,0,0,0,2,2.82V30h2V27.82A3,3,0,0,0,22,22a1,1,0,0,1,0-2Z"/></g></g></svg>