<svg xmlns="http://www.w3.org/2000/svg" viewBox="0 0 32 22"><defs><style>.cls-1{fill:#50535b;}</style></defs><title>financial_crime_icon</title><g id="Capa_2" data-name="Capa 2"><g id="Reulation_tracker_list" data-name="Reulation tracker list"><path class="cls-1" d="M31,0H1A1,1,0,0,0,0,1V21a1,1,0,0,0,1,1H19V20H2V2H30V12h2V1A1,1,0,0,0,31,0Z"/><path class="cls-1" d="M16,5a6,6,0,1,0,6,6A6,6,0,0,0,16,5Zm0,10a4,4,0,1,1,4-4A4,4,0,0,1,16,15Z"/><path class="cls-1" d="M8,4H5A1,1,0,0,0,4,5V8H6V6H8Z"/><path class="cls-1" d="M28,8V5a1,1,0,0,0-1-1H24V6h2V8Z"/><path class="cls-1" d="M4,14v3a1,1,0,0,0,1,1H8V16H6V14Z"/><polygon class="cls-1" points="29.29 13.29 27 15.59 24.71 13.29 23.29 14.71 25.59 17 23.29 19.29 24.71 20.71 27 18.41 29.29 20.71 30.71 19.29 28.41 17 30.71 14.71 29.29 13.29"/></g></g></svg>