<svg xmlns="http://www.w3.org/2000/svg" width="10.206" height="53.072" viewBox="0 0 10.206 53.072"><title>article-ref</title><g id="Capa_2" data-name="Capa 2"><g id="Content"><path d="M7.489,50.88l2.566,1.091v1.1L.581,48.9l9.475-4.065V45.95L7.489,47.018ZM2.932,48.925l3.622,1.547V47.414Z" transform="translate(-0.006 -0.002)" fill="#FFF"/><path d="M5.03,42.936v-.023a1.453,1.453,0,0,1-.768-1.248,1.7,1.7,0,0,1,.265-.863l.875.456a.933.933,0,0,0-.252.575c0,1.056,1.355,1.1,2.087,1.1h2.818v.96H4.419v-.96Z" transform="translate(-0.006 -0.002)" fill="#FFF"/><path d="M10.056,38.58v.959H5.307v.588H4.419v-.588H2.393V38.58H4.419V37.572h.888V38.58Z" transform="translate(-0.006 -0.002)" fill="#FFF"/><path d="M2.3,35.364a.684.684,0,1,1,0,1.367.684.684,0,0,1,0-1.367Zm7.76.2v.959H4.419v-.959Z" transform="translate(-0.006 -0.002)" fill="#FFF"/><path d="M6.1,29.377V29.4a2.171,2.171,0,0,0-.947,1.751,2.016,2.016,0,0,0,2.087,1.991A1.977,1.977,0,0,0,9.324,31.2a2.189,2.189,0,0,0-.972-1.835v-.023H9.636a3.079,3.079,0,0,1,.576,1.787,2.921,2.921,0,0,1-2.975,3,2.975,2.975,0,0,1-2.975-3.011,3.035,3.035,0,0,1,.564-1.739Z" transform="translate(-0.006 -0.002)" fill="#FFF"/><path d="M10.056,26.916v.959H.161v-.959Z" transform="translate(-0.006 -0.002)" fill="#FFF"/><path d="M7.441,24.647A1.826,1.826,0,0,0,9.324,22.8a1.929,1.929,0,0,0-1.163-1.715l.468-.815a2.846,2.846,0,0,1,1.583,2.6,2.728,2.728,0,0,1-2.9,2.758,2.732,2.732,0,1,1,.132-5.408Zm-.815-3.418A1.72,1.72,0,0,0,5.15,22.885,1.783,1.783,0,0,0,6.626,24.6Z" transform="translate(-0.006 -0.002)" fill="#FFF"/><path d="M10.056,14.2V15.2H1.013V13.9c0-1.715.456-3.311,2.5-3.311A2.363,2.363,0,0,1,6,12.854l4.054-2.879V11.21l-3.97,2.734V14.2ZM5.2,14.2v-.312c0-1.14-.216-2.291-1.619-2.291-1.487,0-1.631,1.092-1.631,2.3v.3Z" transform="translate(-0.006 -0.002)" fill="#FFF"/><path d="M7.441,8.22A1.826,1.826,0,0,0,9.324,6.373,1.929,1.929,0,0,0,8.161,4.658l.468-.815a2.846,2.846,0,0,1,1.583,2.6A2.728,2.728,0,0,1,7.31,9.2a2.732,2.732,0,1,1,.132-5.408ZM6.626,4.8A1.72,1.72,0,0,0,5.15,6.457,1.783,1.783,0,0,0,6.626,8.172Z" transform="translate(-0.006 -0.002)" fill="#FFF"/><path d="M10.056,1.429v.96H5.307v.527H4.419V2.389H2.176A2.891,2.891,0,0,1,.713,2.137,1.636,1.636,0,0,1,.006.686,2.293,2.293,0,0,1,.125,0H1.1A1.937,1.937,0,0,0,.965.649c0,.779.552.779,1.547.779H4.419V0h.888V1.429Z" transform="translate(-0.006 -0.002)" fill="#FFF"/></g></g></svg>