<svg xmlns="http://www.w3.org/2000/svg" width="13.036" height="52.761" viewBox="0 0 13.036 52.761"><title>regulation</title><g id="Capa_2" data-name="Capa 2"><g id="Content"><path d="M9.96,56.364v1.008H.917V56.064c0-1.715.455-3.311,2.494-3.311a2.363,2.363,0,0,1,2.5,2.267L9.96,52.143v1.235L5.99,56.112v.252Zm-4.857,0v-.312c0-1.14-.216-2.291-1.619-2.291-1.487,0-1.631,1.092-1.631,2.3v.3Z" transform="translate(-0.065 -4.611)" fill="#FFF"/><path d="M7.345,50.388a1.826,1.826,0,0,0,1.884-1.847,1.93,1.93,0,0,0-1.164-1.715l.468-.815a2.844,2.844,0,0,1,1.583,2.6,2.728,2.728,0,0,1-2.9,2.758,2.732,2.732,0,1,1,.132-5.408ZM6.529,46.97a1.719,1.719,0,0,0-1.475,1.655A1.782,1.782,0,0,0,6.529,50.34Z" transform="translate(-0.065 -4.611)" fill="#FFF"/><path d="M9.684,39.555a3.577,3.577,0,0,1,2.423.576,2.727,2.727,0,0,1,1,2.183,2.581,2.581,0,0,1-2.59,2.771v-.959a1.677,1.677,0,0,0,1.7-1.8c0-1.487-1.092-1.811-2.363-1.811H9.18v.023a2.5,2.5,0,0,1,.936,1.955,2.761,2.761,0,0,1-2.95,2.687,2.809,2.809,0,0,1-3-2.723,2.348,2.348,0,0,1,.959-1.919v-.023h-.8v-.96ZM7.081,44.2A1.947,1.947,0,0,0,9.229,42.35a1.923,1.923,0,0,0-2.135-1.883,1.884,1.884,0,0,0-2.039,1.895A1.911,1.911,0,0,0,7.081,44.2Z" transform="translate(-0.065 -4.611)" fill="#FFF"/><path d="M7.465,36.793c.947,0,1.764-.108,1.764-1.271S8.412,34.25,7.465,34.25H4.323v-.959h3.25c1.5,0,2.542.563,2.542,2.23s-1.043,2.23-2.542,2.23H4.323v-.959Z" transform="translate(-0.065 -4.611)" fill="#FFF"/><path d="M9.96,30.6v.959H.065V30.6Z" transform="translate(-0.065 -4.611)" fill="#FFF"/><path d="M9.96,23.667v.959H9.18v.024a2.37,2.37,0,0,1,.936,1.943,2.78,2.78,0,0,1-2.962,2.7,2.762,2.762,0,0,1-2.986-2.711,2.436,2.436,0,0,1,.959-1.931v-.024h-.8v-.959ZM7.081,28.309a1.947,1.947,0,0,0,2.147-1.847,1.923,1.923,0,0,0-2.135-1.884,1.885,1.885,0,0,0-2.039,1.9A1.911,1.911,0,0,0,7.081,28.309Z" transform="translate(-0.065 -4.611)" fill="#FFF"/><path d="M9.96,20.881v.96H5.21v.587H4.323v-.587H2.3v-.96H4.323V19.873H5.21v1.008Z" transform="translate(-0.065 -4.611)" fill="#FFF"/><path d="M2.2,17.665a.684.684,0,0,1,0,1.367.684.684,0,1,1,0-1.367Zm7.76.2v.959H4.323v-.959Z" transform="translate(-0.065 -4.611)" fill="#FFF"/><path d="M7.153,16.368a2.962,2.962,0,1,1,2.962-2.962A2.958,2.958,0,0,1,7.153,16.368Zm-.012-.959a2,2,0,1,0,0-4.006,2,2,0,1,0,0,4.006Z" transform="translate(-0.065 -4.611)" fill="#FFF"/><path d="M5.007,8.161V8.138a1.893,1.893,0,0,1-.84-1.607c0-1.56,1.127-1.919,2.446-1.919H9.96V5.57H6.781c-.911,0-1.727.072-1.727,1.188,0,1.319,1.223,1.4,2.23,1.4H9.96v.96H4.323v-.96Z" transform="translate(-0.065 -4.611)" fill="#FFF"/></g></g></svg>