<svg xmlns="http://www.w3.org/2000/svg" viewBox="0 0 16 15"><defs><style>.cls-2{fill:#979daa;}</style></defs><title>icon-folder-continent-close</title><g id="Capa_2" data-name="Capa 2"><g id="Collapsible_panels" data-name="Collapsible panels"><g><path class="cls-2" d="M15.5,3h-1V2a.5.5,0,0,0-.5-.5H8V.5A.5.5,0,0,0,7.5,0H.5A.5.5,0,0,0,0,.5v14a.5.5,0,0,0,.5.5h15a.5.5,0,0,0,.5-.5V3.5A.5.5,0,0,0,15.5,3Zm-2-.5V3H8V2.5ZM7,1V3H1V1Zm8,13H1V4H15Z"/><path class="cls-2" d="M8,12.5A3.5,3.5,0,1,0,4.5,9,3.5,3.5,0,0,0,8,12.5ZM7.5,6.55l1.88,4.53A2.5,2.5,0,1,1,7.5,6.55Z"/></g></g></g></svg>