<svg xmlns="http://www.w3.org/2000/svg" width="13" height="16" viewBox="0 0 13 16"><title>icon-file-pdf</title><g id="Capa_2" data-name="Capa 2"><g id="Collapsible_panels" data-name="Collapsible panels"><path d="M3.417,13.395a.724.724,0,0,1-.6-.334c-.093-.118-.368-.569.16-1.262a4.518,4.518,0,0,1,1.871-1.443c.126-.36.26-.763.4-1.213.152-.5.271-.913.362-1.264a3.559,3.559,0,0,1-.858-2.055c-.077-.771.405-1.035.671-1.067h.016c.025,0,.739-.028.916,1.049a4.737,4.737,0,0,1-.2,1.949A12.258,12.258,0,0,0,7.405,8.96c.184.157.35.3.5.424a4.019,4.019,0,0,1,2.33.093.817.817,0,0,1,.49.954c-.052.233-.36.669-1.11.565-.44-.061-.76-.185-1.847-1.077a12.152,12.152,0,0,0-1.429.383,11.306,11.306,0,0,0-1.094.419,5.776,5.776,0,0,1-1.409,2.551A.835.835,0,0,1,3.417,13.395Zm1.169-2.339A3.66,3.66,0,0,0,3.374,12.1c-.333.437-.176.637-.169.646l.031.042c.053.083.161.161.352.051A4.289,4.289,0,0,0,4.586,11.056ZM8.437,9.814c.75.588.971.648,1.248.687.493.069.557-.189.557-.192a.32.32,0,0,0-.216-.378A3.131,3.131,0,0,0,8.437,9.814ZM6,8.331c-.079.285-.172.6-.281.958-.079.258-.165.526-.254.8.219-.087.457-.173.716-.258.4-.132.766-.235,1.1-.314l-.2-.173A14.153,14.153,0,0,1,6,8.331ZM5.468,5.256c-.081.021-.262.112-.222.517a2.869,2.869,0,0,0,.512,1.471,3.442,3.442,0,0,0,.1-1.359C5.768,5.335,5.527,5.265,5.468,5.256Z" fill="#979daa"/><path d="M12.5,0h-9a.5.5,0,0,0-.353.146l-3,3A.5.5,0,0,0,0,3.5v12a.5.5,0,0,0,.5.5h12a.5.5,0,0,0,.5-.5V.5A.5.5,0,0,0,12.5,0ZM3,1.707V3H1.707ZM12,15H1V4H3.5A.5.5,0,0,0,4,3.5V1h8Z" fill="#979daa"/></g></g></svg>