<svg xmlns="http://www.w3.org/2000/svg" viewBox="0 0 234.16 238.52"><defs><style>.cls-1{isolation:isolate;}.cls-2{mix-blend-mode:multiply;}.cls-3{fill:#ff2737;}</style></defs><title>consumer-finance-b</title><g class="cls-1"><g id="Capa_2" data-name="Capa 2"><g id="Content_area" data-name="Content area"><g class="cls-2"><path class="cls-3" d="M117.08,134.17a22.36,22.36,0,1,1-22.36,22.36H79.81A37.33,37.33,0,0,0,109.62,193v15.66h14.91V193a37.27,37.27,0,0,0-7.45-73.79A22.36,22.36,0,1,1,139.44,96.9h14.91a37.33,37.33,0,0,0-29.82-36.52V44.72H109.62V60.38a37.27,37.27,0,0,0,7.45,73.79Z"/><path class="cls-3" d="M122.35,2.18a7.45,7.45,0,0,0-10.54,0L0,114l10.54,10.54,17.09-17.09V231.07a7.45,7.45,0,0,0,7.45,7.45h164a7.45,7.45,0,0,0,7.45-7.45V107.44l17.09,17.09L234.16,114Zm69.27,221.43H42.54V92.53L117.08,18l74.54,74.54Z"/></g></g></g></g></svg>