<svg xmlns="http://www.w3.org/2000/svg" viewBox="0 0 484.28 497.69"><defs><style>.cls-1{fill:#d8dde5;}</style></defs><title>europe-bg</title><g id="Capa_2" data-name="Capa 2"><g id="Content_area" data-name="Content area"><polygon class="cls-1" points="425.77 162.56 426.31 162.31 426.31 161.32 425.65 160.94 425.65 162.52 425.77 162.56"/><polygon class="cls-1" points="427.84 162.52 427.55 163.18 428.88 164.46 430.99 165.95 430.99 165.91 430.74 164.46 428.67 163.39 427.84 162.52"/><polygon class="cls-1" points="422.46 172.45 421.8 173.53 421.8 173.66 422.34 173.66 423.04 173.12 424.86 172.54 425.32 171.92 424.16 171.59 422.46 172.45"/><path class="cls-1" d="M432.9,166.82h-1l.25.79v.21A7.82,7.82,0,0,1,432.9,166.82Z"/><polygon class="cls-1" points="434.3 159.62 434.96 158.34 434.63 156.26 432.23 154.77 430.74 153.08 429.42 153.08 428.01 151.63 426.64 150.88 426.23 150.01 424.57 148.81 423.7 148.81 423 149.39 423 150.09 422.13 150.84 422.88 151.92 423.95 151.92 423.7 152.54 423.04 152.79 422.09 152 421.59 152 422.05 153.08 424.28 155.6 425.57 156.31 426.39 157.47 427.02 157.47 427.02 156.02 427.97 156.43 429.09 156.43 429.46 156.93 429.87 158.5 429.62 159.08 430.37 159.83 432.07 160.12 432.73 159.25 434.1 159.62 434.3 159.62"/><path class="cls-1" d="M287.52,280.85l-1.24-1.16a11.55,11.55,0,0,0-.46,1.16l1.28.66Z"/><polygon class="cls-1" points="390.17 180.49 390.17 180.32 390.08 180.32 390.17 180.49"/><polygon class="cls-1" points="393.23 143.1 391.78 142.64 391.49 141.81 390.66 141.36 389.17 141.36 388.3 142.23 388.3 142.93 389.17 143.39 389.83 143.14 390.79 143.51 390.79 144.67 391.86 144.92 392.81 146.29 393.15 146.41 393.64 146.66 393.64 145.91 393.02 145.13 393.64 144.09 393.23 143.1"/><polygon class="cls-1" points="408.84 179.08 408.84 179.7 408.84 179.91 409.25 180.4 410.16 179.2 410.16 178.25 409.33 178.25 408.84 179.08"/><polygon class="cls-1" points="390.17 179.78 390.17 180.32 390.54 180.32 390.87 179.91 392.32 179.62 393.02 179.16 391.37 179.16 390.17 179.78"/><polygon class="cls-1" points="415.38 172.29 415.55 172.33 416.13 173.03 416.95 173.03 416.95 172.37 416 171.88 415.38 172.29"/><polygon class="cls-1" points="381.55 135.73 381.88 136.89 383.62 138.34 383.62 139.12 385.36 140.49 386.52 140.94 387.18 140.57 388.22 140.28 389.3 138.63 388.88 136.89 389.17 135.6 389.96 134.44 389.34 135.94 389.34 136.89 389.92 137.76 390.37 139.45 391.16 139.7 391.99 139.08 391.99 138.21 392.69 136.89 393.02 137.55 393.02 138.13 393.02 139.29 394.31 141.24 395.8 142.15 396.83 142.15 397.7 141.53 398.32 141.86 397.99 142.35 397.29 142.35 396.87 143.14 396 143.72 395.75 144.46 396.91 145.5 396.91 146.45 396.17 146.45 395.42 146.2 395.42 146.99 396.13 147.69 398.03 147.69 399.36 148.31 400.68 147.98 402.34 148.65 402.34 147.49 403.08 147.74 403.5 148.52 403.99 150.3 404.99 151.13 405.86 151.13 406.77 150.05 406.48 148.73 404.78 147.98 404.2 147.61 404.78 147.28 405.73 147.49 407.02 148.27 407.6 149.23 408.18 150.51 408.63 150.51 408.92 149.39 409.46 149.19 410.2 150.22 411.65 150.92 412.56 150.92 412.56 150.14 411.49 149.23 411.49 148.69 412.03 148.44 413.35 149.14 413.85 149.76 414.22 149.76 414.63 150.97 415.42 151.5 416 151.17 416.25 150.14 415.75 149.14 414.35 149.14 413.68 148.65 413.93 148.19 414.55 148.48 415.3 148.48 416.13 147.41 416.46 146.62 416.46 146.41 415.05 145.38 414.3 145.75 413.27 145.46 412.32 143.76 410.99 143.76 408.84 142.06 408.09 140.74 406.69 140.74 405.11 137.92 402.88 135.19 401.92 132.25 400.72 130.18 400.72 126.99 399.77 125.13 399.19 121.57 398.9 120.74 399.48 119.66 399.48 118.88 398.36 118.59 397.37 119.04 396.58 118.42 396.87 118.01 398.65 118.01 400.1 117.14 400.35 114.65 400.06 113.53 398.94 113.78 397.78 114.11 398.24 113.53 399.98 112.87 400.31 112.13 399.81 111.55 397.41 111.55 394.26 111.09 393.06 110.3 392.03 110.3 389.75 111.8 387.56 111.8 386.77 112.46 385.07 113.66 385.07 115.11 384.66 115.94 384.99 117.22 386.11 117.22 386.56 117.67 386.27 118.38 385.11 118.38 383.75 118.79 382.67 120.66 382.67 122.11 383.29 122.81 384.33 122.48 385.98 121.61 386.27 122.19 385.11 123.22 384.86 124.3 385.57 124.3 386.4 123.27 387.23 123.02 387.51 123.6 386.48 124.55 386.23 125.5 387.18 126.54 388.51 126.54 387.76 126.95 386.89 126.95 386.06 127.74 386.06 128.61 386.77 129.93 386.19 130.39 385.53 130.06 384.37 130.39 383.42 129.89 382.59 129.89 381.47 131.3 381.47 132.62 381.84 134.28 381.55 135.73"/><polygon class="cls-1" points="412.4 171.38 411.45 172 411.41 172.04 412.27 172.29 412.86 172.87 414.06 173.16 413.56 171.88 412.4 171.38"/><polygon class="cls-1" points="410.74 171.75 410.12 171.5 409.21 172.04 409.42 172.04 409.42 172.41 410.2 172.41 410.74 171.75"/><polygon class="cls-1" points="406.27 446.64 405.03 445.46 405.03 445.48 406.27 446.64"/><path class="cls-1" d="M385.73,107.61l.54-.33.33-.75.91-.5,1.66-1.33,1.33-.46h1.33l.62.58v.62h-.58l-.79-.66h-.75l-.46.75-1.74,1-.7,1.08-.25,1.12.33,1.08-.29.5a3.64,3.64,0,0,1,0,.62l.08.29h1.9l1.86-1,1.53-.7,1.2.29.62.75,1.45.33,1-.58-.58-.7v-1h.58l.62,1.28,1.08.58h1.86l.33-.7,1-.25.66-1.57v-1.41l.83-1.41v-1.16l-.87-.79-.7-1.57-1.2-.29h-.87l-.46-.62.75-.37,1,.29.83-.29.7,1v.79l.66.37.62-.83-.5-1.9-1.37-1.82-1.28-1.78.37-.7.87,1v1l1.2.58,1.12.33.33-.75v-.83l-.5-.5v-.79l.75-1.33v-1.2l-1-1.2-1.37-1.7h1l1,1,.87-.25.54-1.41-.33-.37h-.83V87.49l.79-.25,1.12.79,1.7.66.54-.75-1-.62v-.7h1l.75.37,1-.83V84.84l-.41-.46.25-.5,1.7-.79.33-1-1.08-.7-.5-1,.66-1.12.62,1.12.79-.66,1.82-2.36.46-1.45.75-.7V73.74l1.86-1.16,1-1.82.75-2.36h1l2.4-1.78,2.61-3,2.11-1.7h.75l1.74-1.49,2.07-.62,1.2-1,1.82-2.24,1-.66h.7l1-.41V54.7l-.37-.62.62-1.2V50l-.41-.33H437V48l.66-1.57-.37-.58H436l-.66-.7h-1.2l-.7-1v-1l-.5-.66-1.49,1-.25.66-.79-.29-1-.46-1.08.29-1.61,1-.33,1.12-.79.62h-1l-.75.79v.91l-1,1.08v.66l.79,1.28V52h-1.12l-.58.66v1l-.62.46-.75,1-2.24,1.49-.79.66-.5-.25h-1.08l-1,.75-1,1.61-1,.62-.5-.37-.41-1h-.5v2.28l-.41.46-.41-1.12-.62-1.08-2,.21-2.44.66-.5.46h-1l-.37.66.75,1.66.54.54v.58l-.62.25-.79,1.12h-.5v-.75l.46-.5v-.91H403l-1,1.45-1,.66v.91l.83.41-.66.5-.5,1h-1.45l-.79.66v.79l-1.16.41-.7.75-.25,1.82.33.41h.79l-1,.91h-1.9l-.7.58-.25,1.7v1h1l.41.54-.21.66v1.08l-.87.7-.79-.29-1.53-.37-1.37.75-.33.91V82l-.41.54-1.16,1-.91-.5-.66-.87-.33-.91-.5.25-.37,1.66.25,1.41,1.16,1,.83-.25h.41v.83l-.62,1.37v.62l.79.41.66-.79h.58l.54.41h1.28l.83-.58.37.33-.46.91-1,.25h-1.53l-.58.75-.75-.29-.46.83.41,1.37,1,.58h.83l.87-.37.41.41-.29.5-1.45.62h-1.53l-.75.54v.7l.62.46h2.4v.46l-.79.29-1.28.21v.66l.41.25,1.61.21,1.82,1.16,1,.41V100l-.87-1-1.28-.58h-1.16l-1-.66h-1.12l-.75.75-.21.83-.5.46v.7l.46.58v.58l-.62.25h-.58l-.75,1-.41,1,.21.46-.37.54-1.08.29v.41l1.41,1.41Z"/><polygon class="cls-1" points="406.31 180.07 406.31 180.2 407.26 180.2 407.85 179.45 407.39 178.79 406.77 179.04 406.31 180.07"/><path class="cls-1" d="M480.68,209.31l-2.07-4.55,1-4.51,1-6.21-1.53-2.44-1-3.77L476,183.43l.37-2.9-.37-1.12-.66-.79v-2.4l.37-2-1.16-2.73v-4.84l-.66-.62-3.44-.29-3.6-2.07-2.15-.29-.25-1.24h-1l-1.08-1-1.86.7-1.24,1.08-.62-1.41.46-.7-.33-.87-4.14-1.53-1.86-1.28-6.25-.33-4.93.7-1.24-.41h-1.28l-1.08-.75-.54.29-1.08-.25-.79.75.62,1.37v1.08l-1.37.5v.54l1,1.49.87.5.7,2.36L438,166l.25-1.12h.79l1.08,2.11v1.2l1.49.41,1.78,1.9-1.74-.29-.58-.54h-1l-.54,2.15-1.24.83-1.78-.79-.91.7v.75L437,175l.5.46v.79l-.7.75h-3.27l-.75-1,.29-1-.62-1.28,1-1v-.7l-1.28-1.28-1-.37,1-1.12-.25-.46-1,.66h-.7l-1.7,1.7-1,.21-1.2,1v.7H424.7l-.7.75v.83l-1,.75h-2.82l-1-.37-.58.33h-.87l-.75-.58-1.7,1.08-.37.7-1.33.21-1.12,1.2v.58l1,.7-.33.83.29.75-.41.54-1-.79-.58-.87h-.62l-1.37,1.57-.62,1.57V181.4l-1.37-.5-.91.58h-.87l-.87.25-1.08-.21-.29-1,1.33-1.28h1.32l.54-1-.87-1.37.29-.5.83-.46-1.49-1.41-.75.41h-.87l-.46-.62,2.4-1.12h1l1.28-.66-.25-.5-2.32.33-3.48,1.28-1,.83.46.58.37,1.2.5.79-.7,1-.79.25-1.2-1.33.46-.62.46-.25-.21-.83h-.41l-2.4,2.36v.58l1,1,.75.33v1l-1.49,1.45-.7-.5.46-.75-.25-1h-.46v-1l-2.53.79-.33.83-1.78.83-1.41-.25-.79.41v.66l-2.65,3.23h-.75l-2.4,2.94-1.08.58-1-1h-.75l.54,1.28,1.7,1.28.29,1-2.11-.79-.54.75-3.48.46-.7.5,1,1.24v1.16l-.83,1.49.58,1.95-.46,1.37-2.32,1-.33.7h-1.37l-.58.79-.79-1.41-1.74,1.24H368.8l-2.61-3.4-2.69-2.28-1-.5v-1.9l.33-.75.7.41.54-1v-.75l.62-.7h2l.58-.87h2.32l.25-1-1.82-2.32-.25-1h-1.49L365,184.13v-1.2l-1.61-1-3.48-.33h-2.4l-1,.54h-1.57l-2.65-1.78h-1.49v.7l3.19,2.61L355.8,185l1,2.73v1.49l.7.87-.54.46v1.24l.29,1-.5.41v2.94l-.5,1.66.54,1.61h1.9l1.41.83,1,1-.25.62.25.87-.25.62V204l.58.46-.46,1v3l-.54.75.87,1.74v2.36l-.83-.75.08-1.61-1.61-1.24-1.57,1.49V209.8l-.7-.87-2-.25-1.86.25-1.28-1-1.61-.25-.87.7-1.49,3.15-2.11,1.74-1.53.29-1.08,1-.41,1.66-1.41,1.9-1.78,1.41v1.12l.7,1.9,2.86,2.94,1.74,2.57-1,1.12h-1v1.37l-1.12,1-.7,1.08-1.74-1.66L334.76,229h-1.41l-.46-.83h-2.28l-1.2-1-.87-1.37-1.82-.33-1.49-1h-1.49l-.29.83.37.83-.29.75.46.7-.83.83h-1.28l1,1.78.33,1.41,1.78.83,1.12,1.53,1.57.79,1.24-.54h.75l1-.75v1l1.45.54v.5l-.46.62,1,.87v2l-.79.33h-1.08l-1.41,1.53h-.7l-1.28-1h-1.86l-.83-.7h-2l-.58-.46v-1.57l-1.12-.7-.87-1.2h-.5l-1.2,1-2.61-1-.58-1-.62-.62.54-1-.25-1.53v-1.24l-1.28-1v-1.41l-1.78-1.74v-1.49l-1-.29.25-1.12,1-.33v-3.35h-.46v-.87l.46-.79h-.7l-1.41-2L307,214.27l-.79.58-.62-.7h-1l-.54.41-1.53-.25.54-.75h1.28l.33-1h-1.41v-.37l1-.41-.87-.62-.87.58-2.11.54L300,212l.58-.79,1.28-.62-.37-.46-1.9-.46-.33-1-1.53-1-.29-1.86-1.37-1,.29-.41h1.2l.33.37h1.66l.25,1.24,2.82,2.32h.87l.25-.46,1.33,1h2.11l.25-.54.83,1-.79.54.5.37v.75h1.28l.58-.62h2.07l-.54.29h2.4v.79l1.61,1.57,1-.7,1.08.33.25.62h1.78l1.08.33,1-.7,1.53,1.12,2.15.62,3.77.21,2.94-.33.37-.54h1.9l1-.75,2.11-.41,1.78-1,2.44-3.35.25-.87,1.41-1.82v-.87l.46-1,.29-1.9V198.5l-.5-.5h-.5l-1-1.61-.79-.5-.46-1.61-1.37-1.41-1.12-.25-.29.58-1.49-.7v-.83l-2.61-1.82V188.6l-1.37-1.37h-.7l.29.62,1,1.53-1,.41-1.61-1.49h-1l-1.86-1.74h-.66v.54l.25.75-1-.25-1.53-2.28-1.24-.41-1-1.08-4.47-2.94-6.63-3.56-1.53-.62v.54l-1.37-.83-1.57-.33v.62l-1,.54-1.28-.5h-1.86l-.83-1.12-1.24-.54v.33l.7,1V177l-.87-.62h-1.33l-.5.5.25.83-.83,1.57h-1.37l.79-1.24.79-.5-.46-.54h-1l.25-.75.33-.5-.54-.29-.58.58-1.08,1.37v-1.33l-.33-.41-.58.79h-.33v-1l-1.08-.37-1,.87-.33-1.16-.5-.37-.87.87-.37-1.16v-1.41l.7-.91v.83l1,1H293l1,.46,1.12-.87v-.7l-.79-.5-.33-.46-1-.41-.5.5-.7-.58-.7-1-1.28-.62h-1.24l-.29.41.46.75h.37v.5h-1.53v.5l1.12.75-.58.29h-.87l-.5.87v1.61l-.58-.83v-1.28l-.54-.5h-1.41v1.33l0,.05v-.88h-.37l-1-.75h-.5l-.46.29v.75l-.5-.5-.33-.75h-.7v2.07l-.46-.29-.58-.91-1,.62-.33.7-.33-1-.33-1.41h-.5l-.5-1.41-.5-.29h-1.08l-1.24-.66H272l-.75-1,.29-.25,1.9.5h1.57l1.37.25,2.57.33,1.78-.62,1.16-2.32,2.44-.62,1-.87v-.37l-.79-.25-.25-.5-.91-.29h-1.12l-1.57-1.33h-.87l-1,1.16h-.66v-.46l1-.66v-.87l-1.24-.5-.25-.33h-.91L276,162h-.46v-1H275l-.5.75h-.58l-.21-.66.83-.58v-.75l-1.24-.75H272l-.75.46v1.78l-.87.37v.62l.75,1.82v.83l-.66.62-.54-1.12h-.79v.41h-1l-1.57.7,1.24-1.7,1-.25.62-1.24v-.62h-.46l-1.28,1-.75-.21v-.58l.83-.7v-.54l-1.12-.29-.21-.5,1-.29.37.37h1.37l.79-2-.21-.83-1.28.33-.58-.41.25-.91-.33-.87-.83.75h-.7l-.75-.62-.91.87v.62l.75,1-.5.7h-.58l-.91-1.28-.66.62-.33,1.12.29.46h1l.46.46v.54l-.79.33v.58l-.75.37v.87l.21.37-.7.46.41,1.28-.37.41-.83-.58-.75.58v.5l-.83.58v-1.24l1-2.28-1-.37v-.58l.75-.75v-1.95l-.37-.62h-.62L257.79,161v1.49l-1.66,2.24-.37,1.61.33.7v1.28l-1.66,1.82-.87.37v-1l-.37-.83,1.08-1.7-.21-1.12.46-.87-.5-1.12,1.9-2.07.33-1.24.29-.21v-.7h-1l-1-1H254v1.16l-.75.83v-1.12l-.87-.83-1-.21-.79.41v1.57l-.37.75-.54-.66-.7-.41-.54.54v.5l1.45,1,.33,1.12-.33.37-.62-.66-.79.7v.7l.37.5-.37.41-1.16-.75h-.62l-.66,1.37-.87.37v.5l.5.37-1.2.79-.29,1,1,1-.75.75,1,.46.46.46-.54.58h-1.57l-.41-1.7-.75-.21.7-.79-1-.54h-2.53l-2-1.57H236.3l-.66.83-.46-.87-1,.91-1.16.25V169l1.41,1.66h1l.58.66h1.45l-.62,1.2v1.12l1,1.37v.87l-.87-.62-.66-1.61-1.12-.46-.66-.83-.33,1.12-1,.83-.21-1.53-1,.83v.66l-1.12,1v1l1.37.62.58,1.2h-1l-.58-.58-.87,1.28-.29,1-1.41,1.12v-.7l1-.7-.33-.91.91-1.82-.7-3.64-.91.58-1.45,2.36v1.57l.21.62-1,1.28v-1.24L227,177l-.46-1.78h-.66l-1.24.83-.87,1.61.58,1.24V180l1.78,1.28.5.87-.7,1.37-.58-1.74-1.28-.58-.87-2.28-.37-.25-1.66.58-.21.83,1.66,1.28h.79l.41.5h-1.12l-1.12.37.75,1.24-1.24-.87v-1.49l-.5-.29-.29-1-.75.58-.29,1.61.58.75-.21,1.45-1-.54-.91.29-1.24,1.45h1.12l.83,1h-1l-.75.5.7.5-.5.58h-.91v.66l.33.29h-.75l-.54-.66-1,.25-.83,1.08.33.62-.37.37h-1.28l-.62,1.2,1,.33,2.82-.83.66.46,1.16-.58h.7V192l-.83.91-.25,1.74-.29.37-.5-.62v-.87l-1,.29-.46-.58H213l.41.46-.37.75-1-.58h-.7l1,.7.37,1h-.58l-.37.75v1l-.25.66L211,197v-1.16l-.87-1.16-.87,1-.91.25-.46-.75.33-.54h-.75l-1,1.12.87,1h1.37l1.12.7-.62,1-2.36.33-.5-.46h-1l-.5,1.2.79.75-.79,1.08h1l.34-.39-.22,1.14.62,1,1.37.83v1l-1-.75h-.79l-1-1.28h-.58l-.79.83.87.7h-1.2l-1.12.83v.79l1.24.54,1-.7.7.7,1.08-.33.33,1,.79.46v.75l-1.66-1.08h-1.33l-.62.41-1.82.29v1l-1,.54-.46-.41-1.57.83h-.87v.62l1,.41.75.91-.87.33-.5-.25-.33.29.79.75-.29.5h-1.2v-.33l-.41.37.83.7-.54.46v.75h.7l-.7.46h-.79l-.46-.46v.75l-.41.7.7.29,1.74.58.25.79h.7l1-.46L199,219.2v.58H198l-.5-.5h-1.78l-1.24,1.12.37.41h1.28v.83l.62.58v1.12l-.75-.79h-.58l-.5.79v.83h-.33l.58.7v.83h-.25l-.7-.62-.46.33v1l1.08.29V228l-1.41-1-.58.33v1h.37v1.12l.5,1.08h.75l.54-1h.58l-.54,1.49h-.79l-1.08,1.16h-1l-.79.33v.58l-1,.46-.83.75.87.46-.29.54h-1.61l-.75,1v.5l1.28.37-1,.5-.5,1.08h-1v-1l-.62-.37-.41.58h-.83l.29.75-.58.54v.75l.33.62H183.3l-.62.33v1.33l-1.12.75v1.78l-.83.7-1.12,1.08.33.5,1.28-.83h.7v.75l-.83.33v1.28l.75,1,1.37-.79h1.49l2-1.9v-.87l-1,.29.87-1.16.08-1.2h.46l.58-.54h1.82l-1.82,1.16v.83l1.78.54-.58.79h-1l-1.82,1.9,1.12.58-.62.83v1.2h-1.12l-1-1h-1.33l-.79.62v1.32l-1,.58-1,.54.75-.83.54-.41-.79-1V250l-.87-1.28h-.87l-.5.87h-1.24v.58H179l-1.61,1.49-1.08-.5h-.91l-1.24,1.12h.7l.62-.29.33.33-1.33.83-.58.75-.58-.58h-.87v.58l1.41.83h1.66l-.33.87.75.29v.79l-1.49-.46-.25-.87H173l-1.12-1-.22-.7-.28.24-.21-.18v.84l1.12,1.53,1.2.87h1l.54.58H174l-1.78-.7L170.59,255l-.79.5-1-.79h-1.28l-.62-.54-.5.58v1l-.7.62,1,1,2.11-.62.33.46-1,.62.5.29,1.61-.79H171l-.37.7-1.86.79L168,259.9l-1.28-.33-1.08-1.41h-.54l-.62.54-1-.83-.79.5-.54-.33-1,.58.29.5,2,.29,1.28.83,1.57.83-.46,1,.54.83-1,.5-.37-.5v-1.66l-1.08-.37h-1.2l.46.83v.62l-1.41-.87-1.24,1.28,1.24.83h-1l-.7.29-.33-1.24h-.06l-.77.46v-.46h-1l.15.41.39.84-.79.54-.33-1.16-.18-.17h-.28l.11-.15-.74-.68h-.58v.7l1.24,1.12-.54.75.54.54,1.41-.46,1.9.41,1.24.79h1.86l.58-.46h1l-1.24,1.24-1.66-.25-.62.33-2-1-1.28.33-.58-.25-1,.83h-1.37v.54l2.11,1-.79.87h1l.7-.46h1.74l-1.28.87H157l-.5.25h-.54v.37l1,.41h.7l-1.08.62H156v.58l.58.41.46.75h1.49l.79-.58,1.95-.29,1.33.33.5.33.87-.58V273l.87-.25.33.7h1l1.41-1h.62l-.25.54-.7.5,1.24.33.58-.58-.25-.7.91-1.37-.25,1,1,1.16-.75,1-1.7.41-.83.62.46.37-.58,1H165.5v-.58l.75-.58v-1.16H165l-1.33,1.28v.7l-.91-1.16-1.12-.25-1.41.25-.83-.25-1.57.79h-.79l-.91-.62h-.33l.5,1.2L156,277l.58.5.36-.08-.15.16v1l-.5.46-.91-.5.41,1.41.75.62,1.82-2,1.28.54-.54.54v1l-1.53.83.25.46h1l-.5.79.7,1-.46,1.24h.37l1-1.53.87-.5v-1.28l2.36-1h1.16l1-.29-.7.46-1.24,1v1.53l.37,1-.91-.79v-1.37h-.7l-.83,1.53-.7.25,1.2.46-1,1.37h-.83l-.37.87.62.29h1.78l.46.75h-1.28l-.46.75v.87l-1.37-1-.62.29-.25,1.08-.29-1.28-.83.54-1.12,1.53.46,1.16,1.74,1.82.33-1,.46.37,1-.46-.25-.54.54-1.24,1.37,1-.62.41.79.83-.29,1.08-.83.58.75,1.82.58-.7,1.57-.46.62.87H163l-.62.5.7,1.08v.46l-2.32-1.66-.79.29-.75-.58h-1v1.74l-.7.75,1.61,2.73,1.33.25,1.78,1.53,2.44,1,.29.79-.58.29,1,.87.87-.41-.37-1.24h.79l.83.66v.37l1.28,1.61.58-.75.5.25L171,306l1.37-1.28h.58l.54-.62h.29l.33.91h.79l2.24-2.24V302l-1-1.24,1.7,1.08,1.37-1.37-.37-.46.83-.58v-.87l1-.66h1.08l.29-.79-1-1.28.37-.87-.91-1.24-1.12-.83v-1.08l.62.37,1.24,1.37.5,1.78.46.5h.79v.7l.58.75,1.24-.58-.33-.7-.58-.46.46-.83,1,1v.46l1.61-1.53.41-1.41-.37-1.24-.87-.37-.46-.7.58-.37v-.58h.62l.5-.58-.66-.79v-1.2l1-.75.91.91-.75,1.16.25,1.53-.29,1,.75,1.16v.87l1.37,1.41h1.53l.62.54-.37.5.79.54.75,1.33.66-1.25h0l-.7,1.33-.75-1.33-.79-.54-.21.12-1,.58.25,2.77.5.75v2.11l1,.5.33.5v1.37l1.41-.62-.87-1v-1h.62l-.29.62,1.08.62.33.7L193.45,305l-.21,1,.41,1v1.41l-.58.62.75,1,1.08.25.75,1.49.58.5,1.16,2.4v1.82l1.33.54.33,1.24,1.24,1.24,1.37-.79.37,1.57-1,1.78h-1.61l-.25.7.87.54v1.16l1.33.41L202,328l-.75,1.2.7.62h1.28l3.31-.87,1.61.58,1.28-1.16v-1l-.75-.62.87-2.11,2-.25.46-2.07.33,1,2.36.37,1.41-.79,1.2.54.7.87,1.41-1.7.46-2.57,1-1.08.25-3.19.58-1-1.12-1v-1.33l1.08-1.24-1-1.33,1.12-1-1.41-.87.62-1.12-.79-1.24,1.41.54,1.53-.29-1.37-1.28.7-1.49v-.79l-1.9-.7H223l-1.28-1.33h-1.08l.75-.87h.7v.29l.75-.7V298l1.08.83v-1.33l.87-1h.87v-.83l.5-.7.46.58-.25,1.16h.75l1.12-1.74h.87l.87-.75V293l-.79-.7-1.57-.46-1.12.62-.66-.29-1,.58-.83-1.12-1.37-.25-.83-.54H220v.62l-.5-.37h-2v-.5l.91-.37,1.08.54,1-1.24.54.54,1-.29.46-.83,1.12.25.54.58h.79V289l.62.62,1.49.54V291l1.08.58,1.78-.46.46-1.33L232,288l.83-1.95-1.28-1.24v-1l-1.9-1.12.33-.75-2.32-1.78-.29-1.12-.87-.75-1.12,1.37-.7-1.16-.62.37v-1.24h-.87l-.62-1-.75-.79.87-1.12-.7-1.41.58-.33v-1.28l-1-.41,1-1.24-.37-1.9.29-.41.83.75v-1.28l-1-1,.33-1.9-.25-1.49.33-.5v-1.61l-1.49-1.9,1,.37,1.86-.33,1-1.57-.54-1.12.33-.7,1.12.29,1.78-1.53v-.75h-.87l.37-1.08.87-.87.54.7h.58l.33-1.37h.54l.54.83.87-.79v-1.49l.58-1.33h1.28v1h.79l.66-1.33,1.57-.87-.5-1.2V244.5l.7.87,1.33-1.28h.83l1.28-2.15v-2.11l1-1.12h.83l1.28-1.61h-1l-.75-1,.79-.29-.37-.83h-1l-1.28-1,1.57-.29-.29-1,.79-2.28.37-.75-.62-.79h-.79l-.58-1,.41-.46.79.12.29.46h.5v-.75l-1.2-.54,1-.54h1.12l1.08-1-.87-.58-.83-1.57.87.29.58.7,1-.21.46-1V221.6l.7-.54.79,1.41,1-1.28.5,1.08,1.08.46.54-1.08,1,.58,1.53-1,.75.87h1.24l.79-.55v.68l.46.5h1.24L258,224h2.44l1.66,1.61-1,.46.62.87v1.95l-.46.41,1.95,1.82-1.41-.29h-.54l1.66,1.37v.79L261,231.87h-1.61L257.67,233v1l-1.2,1.24v.87l-.54.41-2,2.11-.29,2.11h-.5l-.33-.62h-.58l.46,1.28-.29,1H251l-.79,1.08.33,1.61.87.62-1.57-.5-.46-.58-.87.33-.5,1.37V247l-.87-.37-.33.5.87.87v.62l-.79.83-.37.75-1.16.75-.62-.46V250l-.87-.29-.58.22v.81l-.08,0,.12.41-.75.62.5,1.24-.5,1.2H242l-.62,1.08.5,1.28.33.25-.37,1.28.25.87.83-.37.7.75-.21,1.41-.33.7.46,1.24-.29.58,1.28,2.07.62.54-.46.79,1,1.53-1,.41v2l-.46.79v2.65l.75,1-.7,1.41v1l.5.7,1.74-.79.62.5.29-.79,1.49,1.57h.87l.87.79h1.86l.54.25-.4.76h.06v.21h.54l1.57-1.08v.87l-.79,1.08,1.61,2.32.33.79L255.6,286l.46.25.7-1.9.79-.37v.83l1.12-.5h1l2.11-1.53h1.2l2.57-1.66v-.7l1.66.5h1.12l1-1.57.25.54L269,281l.7.29.7-1.57H271l-.54-1.33.54-.54.62,1.28h.75l.29-1,.66,1.41.83-.29v-.87h.75l.29.7.83-.79,1.66-.33,1,.83,2-.29v-.7l-.54-.54,1.74-.12.87.29v.79l1.28.33a10.09,10.09,0,0,1,.5-1.08l.33,0-.1-.73a.87.87,0,0,1,.26-.3,10.28,10.28,0,0,0,1.82-1l1.41-.25-.91.79.46.83V278l-1.41-1.2-.25.83,1.53,1.66h1.53l.83,1.24h1.49l.58-.25h1l1.12,1.61-.79,1-1.9-.62-.79.29-.33,1.12-1.57,1.2-1.28-.79-.75.58v1.28l-1.2.37-.54-1.08h-.58V286l.58,1-.41,1.41.58,1v.5l-.25-.41V290h-5.22l-2.32-1.49h-2.4l-1.28-.62-1.08.29-1.33-1.2v.87h-.83v.54l.75.62-1.2.79-.58-.37h-2.32l-.46-.58-.33,1.28h-1.2l-1.28.37v1.08h-.83l-2.07.87-.75,1.24v4.14h.83l.46-.33h1.2l-.58,1h-1v1.66l1.08,1.66,1.82,1.66h.62v-1.08l1.28-1,.5,1-.7,3.4v.15l-.29.1v1.66l.58,2.82-.7,2.28-2.07,2.24h-1.53l-1.53-1.49-.17-1.12L257,309.05l-.08-1.9-.58,0-1.12,1.16-1.82.41-.62.62-1.33.08-1,1.45.17,1.37-.58-.21.08,2.24-1.74,2-.12,1.28.08,1.24-1,.87.75,3.11.75.7v.25l.17,1.95.41,1.61-.54.91.33.21,2.24-.46,1.78,2.4,1.66.87,2.4-.58.91.46.21,1.28.79.17.66.7-.75,1,.21,2.28,1.28-.12-8.57.87-8.24-.5-.75.29-2.19,2-1.9.41-.46-.41,1.86-1,1.7-1.78-.58,0-1.37,1.41-2.4,1.12-2.82-.79-.58-1.53.41-1.08,1.49.21.66.46.08-.46-1.82-.91-3.31-.83-2.57,1.33-1.86-.12-1.9.7-1.16,1.66-1.86,0-1.2,1.33v1l-2,0-3,1.66-2.07.17-.75,1.57-.5,1.57-.46.25.12.62-.66,0-1.16.08-.79-.7-1.08.17-1.2-1,.25-1.24-.75-1.12-1.33.25-1.61-1.61-1.12-.21-.46-.66-.58.29-1.41.12-1.37,1-.46-.5.66-.7.21.21.5-.54,1.37-.54L200,339l-.58.29-.12.66-1.32.66-.08.58-2.36.37-.91,1.24-.21,1-1.37.12-.41-.7-1.16-.12-.62.25-1.61-.5,1.16-.79.79.12.83-1V340l-.54-.29-1,.79-.37.5-1.61-1.2-.5-.66-.62.33-.37.7-1,.75-.37-1.08-1-.33-.33-.7.62-.66.7-1.49-1.28-.12L183,335.18l.25-.58-.87-.87h-.5v-.87l.75-.62v-1L182,331v-.87l2.48-1.28-.54-.46,1-1,.54.33,1.33-.5v-1.78l-.58-1.2.79-.79h1.12l.79.87.46-.33h.5l.46-.62.37-1.08L189.55,321l-.62.5H187.4l-.75-.79-.7-1h-.62l.54-.7v-1.33l-1.24-.83h-1.9l-1,.46h-1l-.5.46,1.08,1.49-.29.5,1,1.28v.37l-1-.37-1.08.25v-.58l.7-.75-.7-1.24h-.33l-1,1.41.58.83-1.24.87-.75-.83h-1.08l-.75-.41-.87,1,1.37,1v1.24l-.83-.62h-.54l.25,1.61.87.5v1.49l.75.75-1.78.83-.75,1.86.75.58,1.08-.58,1.49,1.33.29,2-.54.33.19.66h0l.08.29-.12,1.08.91.62.66,0-.08.91,1.41,1.33-1.16.46h-1.08l0,1.12,1.12-.46v1.49l1.2.75-1,.79v1l.87.54,1.57.08,2,2.11,2.69,1.12-2.82-.54-2-2.24-1.41.54-1-.54-1,.17-.79,1.28.25,1.12.08,1.86.58,1.2-1.45-1.61.12-1.45-1-.87-.58.25v1l.58,1.12-.62.7L174,348.35v-1.49l-1.45-1-.83.41-2.9.79-.25,1.28.58,1.12,1.45.25.29,1.24-.12,0,0,.25-.37.5-.08.7-.54,1.16v0l.5-1.12v-.75l.37-.46v-.29l-1.24-.41-1-.87-1.82-1-1.9.29-1.12,1-1.08-.46-.7.46H160.2l-1.49,1.61-2.36,1.28-.5-.33-1.37.54v1.57l-1.28,1,.41,1.53-.29,1.37-.54,1.12-.46.79-1,.75v1l1.49,1.33,1.33.37h-1.49l-.7.58-.46.41.58.75h.75v.62h-1.2L150.55,365l-1.12-.54-1.08.46.41.58h1l1,.87h.33l1.24.83-1.2-.46h-.75l-1.78-.58h-1.16l.75.33.18.28-.72-.32-1.33,1-.87,1.61.7.51v.24l-2.32.79-.54-.46-1.86,1.08-.46,1.28.29,1.53-.37,2.4L139,378.32v.79l-2.07.58h-1.08l-1.2-.37-2.44,1.33-.58,1.12.46.79,1.12.37L131.71,384l-1.86.41-2.57-.33-1.12-.58-1,.54-.41-.87-.83-.62.37-1-1-.5-1.08.41H120.7l-.7-.29.46,1.49-.25.62,2.15,2-.41.62.29,1-.25,1,.7.87v1.12l-2.28-.29-1,.33-1-.25-1.12.29-1.12-1-1.41,1.2-1.82-2.4-1-.33-1.53.33-1.24,1.12-.62-.33-.75.7-.62-.46h-1.33l-.83.83H103.1l-.87,1,.5.83,1.12-.37,1.12.33.29.46-1.24-.25h-.75l.46,1.24.41-1,.79.29v.83l-.75.29-1.16.46v.33h1.12l.5,1.37v.79l1.33-.87,1,.25h.79l2.07.83.46.75H111l1.41,1,1-1h.62l-.25.75.33.46,1.08-.62.62.62-.5,1.28.58,1h.79l1.24-.79h1.33l.83,1.12-1-.58H118l-.75,1,.7.29.25,1.28-.58,1.08.25.83h1.08l1.61,2,1.57.25,1.53.87v1.12l.58,1-.5,1.28h-.29l-.29,1.12,1.08.25,2,1.53,1.53,3.69-1.66-1.61-.46-1.57-1.33-.7-.62.46-.62,3.23v2.36l1,.7-.83.62-.33,4.43-1.16,3.85-1.49.91,1.12.62v.33h.79l.25,1.37v.5l-.17-.91h-.79v-.33l-1.12-.62.17-.12-.58.33h-1l-.62,1-3.44-2h-1.12l-1.2,1.2-2.32-.46-.46-1h-2.36l-3.15,1.33-2.11-.5-4.64-.75-1.66-1-.46-.58-2.07.58-1.66.7-1.53-.62H88.9l-1.16,1L86.37,429l-1.61-.33-1,.7-.33-.46-2.36,1.33v.87l.79.54-1,.75-2.07.25-.83-.37-2.44.87-.7,1.41.29,1.74.83-.29v.75l.54.25-.33,1.82h.5l1-1-.29,1.37.5.5-.75.79h1.08l-1.53,1.33v.37l2.9-.46,1.08.29v0l-.91-.25-2.9.46.12,1.32,1,2.24-.46,4.06.25.66-.5,1.82,1,1.08-.7.91-.79,1.7-.08,2.11-1.49,2.11v1.24l-1.7,2.44-.91,3.77.08,1H74l.62-1,1.33-.83-.21.83.37.7-1.95,1L74,470.7l.58.62,1-.91,1.66,0-.66.87.41,1.74-.62,1.53.08,3.44-.62,2.44-.5.75.5.37,1.9-1.32,2.69,1.08,1.24.75L83.64,481l1.7-.17.29-.54,0,0,0-1.53-1-1.49,1.53-2.82,1.57-1.33.08-.48v.56l-1.61,1.33-1.49,2.82,1,1.49v1.53l1.08.29,1.9.21,2.65,2.57-.29.41,1.24,3L94.45,489l2.11.33,1.9-1v-1l.91-.83,2.4-.29,2-2,2.32.37,1.08-.58,2.65.75h1.78l.46-.54h1.2l1.08.83,1-.87L116,483l1.24,1.08,1.37.62,1.53-2.44V481l3.93-1.86h2.19l.54-.83-.54-.54.25-1.9,2.07-2.9V471.4l2.15-.54,1.41-1.37-1.61-2.19-1-.54-.29-1.28-1.08-1.86.75-1,2.53-4.14,1.33-.62,1.86-3.19.54.19.82-.52.33-1.53-.7-.58,1.45-.79,1.61-1.16h2.48l2.07-.83a15.9,15.9,0,0,0,1.12-1.41l2.44-1.49.66-1.24v-1.61l-.33-2.07,1-.7v-1.33l-.5-1.86.5-2.19v-1.08l1.49-1.33,2.28-2.4h.75l.75.54h1.49l1.57,1h1.12l1-.79h1l3.93,2.44,1.08,1h2.9l1.24-1-.25-.62,1.12-1.41,4.14-3.06h.45l3.07-.53,1.12-1.41v-1.08l3.35-1.86,4.14,1.12,1.28.83,1.9.58.54,1,.37.7.54,1,1.16,1.9v1.12l1,.62v1.82l1.53.75,1,1.24,1.78,1.66v1.2h1.86l1.2,1.57.25,1,.83.29,2.65,3.4,2.57,1.9h1.24l1.08.75.25,1.08h1.2l.83-.79,1.33.54h1.28l1.37,2.57.83.54.75-.29,1.08.41v.87h2.32l.83,1.08v1.28l-.29.54.62.62h1.33l.54,1.08,1.66.41.75-.46,1,.58.58,2.07.29,2,.7.87.54,2.32.75,1.08V468l-.7.83h-.5l-.37.21v2.53l-.79.87-.79.46-.33.5v1l1.41,1.41h1.86l1-1.28.25-1.37,1.78-1.41v-3l1.08-1.12,1.12-.29.46-1-.33-.58.21-1.66-.37-.75-1.82-1.74h-1l-.46-.66v-1l1-.62.21-1v-.83l.75-.79.46-1.57.58-.37h.87l1.33.62.41.58h2l.7.41v1l.54,1.2.91,1.12,1.16.5v-.37l.33-.29v-1l.54-.79v-1.66l-.5-.87-1.08-.75-2.11-.54-1.28-1.37-2-1.49-5.09-2.77-2.44-.58h-.75l-.62-1v-.58l1.61-1.12.25-.87-1.12-.58-1.57.25-1-.29h-2.44l-.83-.5-1.2-.25-.91-1-1.9-1.49-.91-1.45-1.2-1.2-.87-1.28v-1.33l-.54-.29v-1.12l-4.14-4.14-.79-1.08-1.57-.83-2.86-1.53-.7-1v-1.86l-.75-1.61.58-.5,1-1.49-.87-1.12-.7-1.37.5-1h1.41l1.33-1.16h1.41l1-1,.87-.46,1.45.37v-.07l.43.2,0,.91-1.08.29,0,1h0l.41,2.57,1.49,1.37v.5l.58.5,1.57-2.57.25-1.37,1-1.12h1.57l.33,1.28,1.28,1,.37,1.9,1,1.82,1.95,1.82h.5l1.12,1.24-1-.33h-1.12l-.5,1.08.58,1.12h1.41l1.41,1.37,1.41.5.5,1.12.7.79,1.49-.29,2.86.25,1.57.79,3.14,3.23.05-.13.12.13-.46,1.12.83.17,2.44.41.66-.33,1.41,1.86.41.58,1.28.54,2.44,3.06.17,1,1.45.7,1.9,1-.17,1-.62.29-.58,2.86.79,2.07-.58,1.37v1.57l.66,1.2-.46,1.45.66.79,2.36.12,1.2,3,1.12.79.87-.41.87-1.95.08-1v1.33l-.87,1.9-.87.46v1.86l2.36,1.78,1.33,1.95h.62V468l1.82,2.57.46,1.78.83.33,1.08-1.33,1,1.24h1.53l.62-1H266l1.74,1,1-.5V473h.83l.7.54,1.37.25-1,.58-.87.87-.87-.75-1.2-.29-2.57-1.66-1.12.37-1.08.62-1.12-.54-1,1.16h-.7l-.46,1.12,1.37,1.57,1.41.7,1.37,1.28v1l-.54.62v1.24l1.2,1.53.79.87.33-.83-.29-.62.5-1.12.46,1.41,1.74.75.41,1-.25,1.08.75.87v-1.82l.62-1.49h1.08l.5,1.16,1.9,1.28-.79-1.33v-.87l-.7-1.28-.87-2.11-.79-1.24v-.5h.79l1.41.75-.46.54.46.5.75-.79,1.49.5v-.5l-.58-.46v-.54h-.5l-1.08-.7V477L271,476l1.24-.54h1.12l.7-.58,1.78,1.24v.54H277l.33-.75-1.08-1.57.29-1.49-.46-.83-3-1.86-1-.25-.46-.75h-.83l-.54-.7h-1.28l-1.28-1.12h1.37l.79-1v-.7l-1.28-.33.7-.87v-.75l1,.37.83.66-.33.7v.7h.7l.46-1.53-.87-1-2-2.4-.83-.62v-.87l-1.53-1.28.54-.7-.25-2.57.83-1.33,1.57-.33v1.28h-.75v.7l2,1V458l1.28,1h1.41l-1-.7-.54-1v-.87l1.33.46,1,1.41.87.33.5-.83-1-.75-.87-.33V456h2.4l.87.87.41-.46.25-1.24H276.3l-1.16-1.37.7-.79,1.28.37,1-.58.5-1.74,1-.33,1.41,1.08h1.08l1.2-1.24V450h.54l.87,1h2.65l2,.54,1.41-.37.75-1.49-.29-1.41,1.7-1v-1.61l-1.33-.58.29-1.7,0-.12h0l0-.08,1-1.12,1-.08.75-.87h1.86l1.78,1.41,1-.75,1.41.37V442l-1-1.57-1.28-1.86-1.08-.17-.25-.7,1.82-1.37.41-1.28-.29-2.86,1.78-1.57,1.16.17.87-.79.21-2.44-.08-.33-.46-1.57.7-1.16.08-1.9-.54-1,.87-.87.33-1.37,2.24-.17,1.41-.29.91-1.7v-1l-.66-.54.66-.66v0l.25-1.12-.62-.79.12-.79,0-1,.58.83h.83l2.44-2.94-.37-.83h.66l1.33-1.7v-1.66l1-.75,1.53-.08,1.28-1.61.7.7,0,.33h1.2L320,403l.54-.87.41.75.79.58,1,.33,2-.5-1.37.83-.87.46-1.16-.37-2.24.29h-1.45l.54.83h2.36l1.9.62-.25.5-.7.46,1,.83.91.08,1.16.66,1.37-.7,1.57-.29,1.49.66,1,.58.5-.91.62.25.29,1.66.75.87-.54.33-1.95.37-2.28,1.37-1.37,2,1.16.5.87-.7,1.45.66.75-.08,2,1.61.12.91-.79,2.36-.37.5,1.16.91,2.36.08,2.24-1,3-2.28,2.07.08,1.12-1.57,1.53-.83,2.53.41,2.24-.17.79-1-.58-1.2.62-.54.5-.83L349,412.4l-2,.25-.5,1.33-1.24-.79-.75,0-1.08,1.12-.75-.29-3.15-3.44-.5-1.74-1-1.37-.58.37.66,1.66,2.24,2.73,2.19,2.07-.66.37-1.45-.46-.75-.79-.29-1.49-.7-.41-.79.7.21-1h-.58l-.62.37,0-.58.66-.79-.46-.66-.75.41-.79-.58-.79-1-2.07.17-.83-.58.21-.54,1.41.25.79-.7,1,.66h1.37l.21-.79,1.16-.17,2-2.07.25-.75.66.41.21.58-1.28,1.49-.5.33.33.58.75-.46,1.41-1.95.29-.87-.75-.91-.37-.79.58,0,.83,1.41.83.17,1.33-.87,1.74.41,1.08-.83,1.33-.17.5.17,1.37-1.49.7-1,1.41-.08.54-1.12.83-.66,1.66.17,1.61-.7.66.12.17.66,1.2-.41.23-1.69.85.16,1.41-1,1.7-.25.41.7-.33,1-3.4,1.82-1.41,1,.62.62h.83l-.83,1-1.57-.29-2.19.29.87,1.9,1,1,.7-.58.33.7,1.33.41v.54H359l-.54.79h-.87l-.54.5v.5l-1.37,1.37v1.33l.62.46,0,3.48H354.8l-1-.79-1.41-.33v.58l.5,1-1,.46-.87.75h2.28l1.78,1.49v1l1.41,1.49h2.4l2.53,1.53,1.74.46,4.14,3.06.83,1.57,1.2.41.37.79,1,.87h1l.41.87,1.24.5h.7l1,1.53h1.28l.62.33.7-.46,1.66,1.41v.83H381l1.37,2.15.79,1,.33,2.69,1.12,2.07-.46.75.29,1.12a1.73,1.73,0,0,0,0,.29h.83l.29,1.16.75.25.62-.79,1.7.66h.79l1-.79,1.08.29,2.73,2.28,1.16.29,2-.7,2.9-.66h4.47l.33.31v-1.06l2.44-1,3.64,2.07h2.44l2.36,1.2.37-2.36-1-1.33-1.7-1,.66-2.36h1.86l3,2.44.83,1.61,3,.29.58-1.12,1.86-1,2.19-2.65-.58-.41L423.58,436l-2.44-3-.41-1.86-1-1.12v-1.86l-.37-.87v-.7h-.87v-1.12l.66.29.33-1.2.54-1.08h-.75l-.66.62-1.49-1V421l-1.2-.37-.83-1-.79.25h-1.08l-.62-2.24.41-1.16.7-.5v-2.11l.54-1,.41-1.37.7-.46.29-1.45.58-1v-.83l.66.25.62.54.54-.29.29-.75.54.54.62-.5h.87l.91-.66v-.54l-1-.37H421a2,2,0,0,0,.58.25,8.67,8.67,0,0,0,1-.25l.62.62.46-.41-.25-.75-1.86-1.08h.83l1.2.33H424l1,.25V404l-.62-.41h.7v-.75l-.58-.5h1v-.66a2.16,2.16,0,0,1,0-.54l-1.57-1-1.7.58-2.4-1.57v-1.08h2.48l-2.61-4.39-3-2.82-4.14-1.16-.5,1L410,388.92l.41-1-1.12-1.82-2.65-1,1-2.24.58-4.14-1-1-.33-3.19,1.28-.62,1.74-2.15v-1.66l1-1.2,3.48,3.15.41,1.16,1.95,1.2h2l-.25-2,.79-.66-1.49-5.22,2-.25h2.11v-2.15L421,363l.41-1.49-2.77-1.57-.83-3.11.54-3.11-.5-4.39,3.11-1.53,4.93-2.07,1.82-2.69-1.28-2.48v-4.93l.79-2.32,4.14-2.57,3.89-.5,4.93-2.11-.79-4.39,2.07-1.82v-2.07l.79-3.35,3.11-1.12,2.61.37,1.82-2.86v-15l.54-3.6,1.57-3.35h1.82l2.86.79,1.28-1.28v-3.11l-.5-2.82,1.82-1.7,1.57-2.44-1.82-1,.54-3.11,2.07-.5L465.4,277l2.07-1.82,1.82-.79,2.61-1.28-.5-2.32L468,268.72l.54-2.07h3.35l1.82-4.64,1.82-2.32,5.18-.79.79-1.86.79-2.28-1.53-2.07-1-2.07.54-2.86.79-3.11.79-1,.54-2.57-1.28-4.39.54-2.57.79-7.74,1.82-3.6v-8.53Zm-247.77,202,0,0h0ZM281,174.86v1.37l0,.06v-1.42Zm-4.35,5.09.08-.08v2.07h-.08ZM259,175.64l-.34.86.05-.53.19-.49Zm-25.42,7.62.54.25.18-.11.2.53-.46.29-.42-.2-.31-.37h0Zm17.89,31.39.37-.86v.61l-.25.58Zm.41-4.84-.2.67-.09-.29.23-.73Zm-1.33-5.88.46-.7.12.45-.52.79Zm-1-4.51-.54,1.39v-.6l.47-1.2Zm-43.33,1.33.73-.83h.33l.58.83Zm-13.14,88.61,0-.08.8-.42,0,0Zm2.65-2.52h-2l-.37.67h0l.41-.75h2l.54-.92h0Zm4.6-44.06h-2.19l-1.74-.37-1.41.83-1.41,2.5h0l1.45-2.57,1.41-.83,1.74.37h2.19l1.08-1.48v0Zm18.43-45.67-.62-.7-1.42-.65h0l1.45.66.62.7Zm8.49-5.71-1.33-.87-2.13-.57h0l2.15.58,1.33.87Zm1.49,0h0l.82.69h0Zm1.51.47h0l.58.35v0Zm-.39-8.11h0l1.47.45h0Zm29.23-9.54-.34.21-.28-.45.75-.46.91-1.24v.54Zm5.09-2.69-1,.25-1.7-.33-1.24.57v-.65l1.37-.62,1.7.33,1-.25-.11.12Zm4.14-1.74h-3.06l-1,1v-.57l1-.7h2.77l1.2.83.08.11Zm3.69,3.77-.21-.22,1.33.47,2.15.25.08.22-1.94-.22Zm1.91,10,.32.1-.09.54-.78-.25ZM167,356.09l.21.83,1.57,0,.66.62-.37.79-.21,1.41v-1.36l.37-.79-.66-.62H167Zm1.74,5.42h0l-.69-1.17h0Zm-1,.54Zm2-7.33h0Zm-.85.69h0l-1.33-.58-.57,1.23.57-1.27Zm-5.31,8,.79-1.33,1.74-.41h0l-1.72.41-.79,1.28-.17.2Zm-.82,1,.41,1.87-.37,1.74.33-1.7-.37-1.9Zm-.67,5.27.08.19-1.07-.36v-.13Zm-1.7-2.24.11.21-1.69.08-.34-.54.18.25Zm-9.94.7.7-.7,1.2-.25.29-.41h1l.37-1h2.19l.75.75H158l.18.25h-1.09l-.79-.75-2.19,0-.37,1-1,.08-.25.41-1.24.25-.7.7-.62-.7h-1l-.19-.29h1Zm23.7,60.51-.43-1.34,0-.05.43,1.34ZM187,408.82l.82-.06.15.12h-.73Zm31.69,7,.64,0,.08-.44-.08.48Zm5,3.29v-.35l.25-.25v.37Zm2.85,4.66.13.17-.17.18v-.31ZM290.09,447l-.83.7h-2.77l-1.24.62-1.12-.66h-1.28l-.87.7h-1.2v-.24l1.08.07.87-.7H284l1.16.66,1.24-.62,2.77.17.83-.66-.5-1.16.08-1.49,1.53-1.16h0l-1.53,1.16v1.49Z"/><polygon class="cls-1" points="375.47 177.71 375.88 177.38 376.87 177.96 376.5 178.83 377.49 178.83 378.49 177.96 378.4 177.88 379.77 177.88 381.51 176.43 382.67 174.98 382.67 172.74 383.46 171.92 383.91 173.03 383.54 174.81 384.49 173.16 384.49 171.67 383.29 170.26 378.61 168.27 376.46 167.9 375.09 168.73 374.31 171.38 374.31 174.61 375.09 176.06 375.47 177.71"/><polygon class="cls-1" points="352.9 205.41 352.19 204.59 351.53 204.59 351.53 205.29 352.36 206.08 352.9 206.08 352.9 205.41"/><polygon class="cls-1" points="318.45 225.08 317.62 225.08 316.79 225.95 316.79 226.86 317.79 227.77 318.08 228.35 318.62 228.35 318.62 227.73 318.62 227.48 318 226.41 318.45 225.87 318.45 225.08"/><polygon class="cls-1" points="395.26 69.52 395.75 69.52 396.13 68.86 397.87 67.66 398.11 66.75 397.7 66.75 396.29 67.74 395.46 67.99 394.76 68.86 395.3 69.64 395.26 69.52"/><polygon class="cls-1" points="236.14 434.88 236.13 434.88 236.13 434.88 236.14 434.88"/><polygon class="cls-1" points="233.78 434.1 234.56 435.09 235.93 435.38 236.13 434.88 235.27 434.88 233.78 434.1"/><polygon class="cls-1" points="216.76 423.37 217.25 423.37 216.68 421.67 215.26 420.69 215.89 421.72 215.6 422.09 216.76 423.37"/><polygon class="cls-1" points="219.7 423.79 219.84 423.79 219.7 423.58 219.7 423.79"/><polygon class="cls-1" points="218.66 422.05 218.62 422.09 218.62 422.92 219.82 423.25 218.66 422.05"/><polygon class="cls-1" points="220.61 428.38 220.28 427.26 218.95 426.19 220.61 428.38"/><polygon class="cls-1" points="215.02 420.51 215.26 420.69 215.06 420.35 215.02 420.51"/><path class="cls-1" d="M215.56,418.36v1.82l1,.25.5.66,1-.37-1.86-2.82.08-.21A4.15,4.15,0,0,0,215.56,418.36Z"/><polygon class="cls-1" points="228.97 433.56 229.09 433.56 228.97 433.52 228.97 433.56"/><polygon class="cls-1" points="233.53 435.75 232.7 434.97 230.46 434.97 230.42 435.13 231.54 435.75 233.53 435.75"/><polygon class="cls-1" points="218.29 424.45 217.3 424.04 217.17 424.04 218.29 425.4 218.29 424.45"/><polygon class="cls-1" points="232.28 433.56 229.09 433.56 230.92 434.22 232.28 433.56"/><polygon class="cls-1" points="232.12 432.44 231.54 432.07 228.97 432.07 228.97 432.27 229.59 433.06 230.88 433.06 232.12 432.44"/><polygon class="cls-1" points="221.27 424.9 220.44 423.79 219.84 423.79 220.82 425.24 221.27 424.9"/><polygon class="cls-1" points="150.76 364.54 151.38 364.54 150.88 363.83 149.76 364.33 150.55 364.2 150.76 364.54"/><polygon class="cls-1" points="151.54 363.42 151.54 363.83 152.21 363.83 152.46 363.5 151.25 363 150.34 363 150.76 363.71 151.54 363.42"/><polygon class="cls-1" points="92.62 263.46 92.62 262.35 91.38 261.52 90.93 261.52 90.55 261.48 91.63 263.13 92.62 263.46"/><polygon class="cls-1" points="90.02 264.37 89.02 263.13 89.02 264.08 90.02 264.37"/><polygon class="cls-1" points="89.02 262.93 88.86 262.93 89.02 263.13 89.02 262.93"/><polygon class="cls-1" points="93.45 261.6 92.95 261.52 93.7 262.43 93.45 261.6"/><polygon class="cls-1" points="91.55 267.02 92.5 268.14 92.5 267.27 92.09 266.65 92.13 266.61 91.55 267.02"/><polygon class="cls-1" points="92.38 272.12 92.38 270.79 92.38 270.13 91.38 269.63 92.38 272.12"/><polygon class="cls-1" points="92.21 265.41 93.29 265.41 92.04 264.46 90.43 261.77 90.02 262.35 90.51 263.71 92.21 265.41"/><path class="cls-1" d="M72.13,363.91h1l-.29.62,1.61-.37.83.58,2.15-.29,2.07-.58,1.66-1.12-.54-1.24,1.2.08-.33.75h1.28l1.2-1.24.87,0,.29-1.2,3.64-.41.29-.83.58,1,.79-.75.7.29H93l-1.28-1.66.91-.41,1-1.2-.21-1,1-1.16.37-1.32-.5-2.9-.79-.5.91-.58V347.1l-.83-1.28.25-1.33-1-.66.5-.75.79.08-1.41-.91-.19,0h.19l1.41,1,.17.08v-1h.58l1-.79v-.91h1.53l.21-1.08h-1l.37-1-.37-.75h.7l.75,2.24-.41-2.86H96l1-.7L95,333.77v-1.2l-1-.54H92.13l-1.24.79h-.75l-.41.46-1.2.25-.62.66-.87.46-.37,1.12H85.34l1.33-.17.37-1.12.87-.5.62-.66-.58.12,1.28-1,1.16-.66L89,331l-1-.87.41.91H87.16l.25,1.45-1,1.37.12-.91.5-.62-.62-1.12-.87.21.54.7-1,0-.54-.54-1.78.46V333h-.58l-.41,1.08.87.37-.25.5h-.91l.12.5-1.28.33.33,1h1.41l-.21.37,1.12-.37h.79l-1.49,1.57-1.86.7.66.58-1.82.33-1-.41-.83,1-.37-1.2-3-.46v.54l-1.66-.46-.29,1.82.79-.83.21,1.08.37.21.37,1.08h-.75l-.12-.62-1.57.08,1.82,1.33,1.28-.33.41,1-1.61.33-.21.75.46.62-1.82,0,.41,1.12-.62.25,1,.58.79-.29-.5.62,1.49-.29.41,1.57,3.52,0-1.16,1.16-.79-.5L75,351.86l.58-.08-1.08,1.53-2.28,1.53h.91l1.24-.79.75.46,1.53,0,1-1,.08.46,1.28.12-2.86.79L74,355l-.5.83-1.41.46.5.66-.33.66.62.17-1,.21-.91-.79-.33.54-.29-.37-1.74.91.21.5,4-.25-1.33,1.12-1.7.37-.54,1.37h1l.25.79,3-1-2.28,1.49-1,.79h1.61L74,362.26l-.08.83Zm11.81-25.24,2.72,2.51h.19l-.19,0-2.73-2.53Z"/><polygon class="cls-1" points="121.15 281.39 121.15 279.86 120.28 280.07 120.03 280.85 120.99 281.39 121.15 281.39"/><polygon class="cls-1" points="90.35 320.7 91.38 319.9 90.35 319.9 90.35 320.7"/><polygon class="cls-1" points="122.89 280.03 122.89 278.58 122.44 278.25 122.44 279.07 121.94 279.82 122.52 280.44 122.89 280.03"/><polygon class="cls-1" points="122.6 280.52 122.52 280.44 122.48 280.48 122.6 280.52"/><polygon class="cls-1" points="92.33 305.04 90.97 304.41 90.26 305.32 90.97 306.03 90.39 306.48 90.18 306.32 90.76 306.81 91.88 306.81 93 307.11 93.83 305.95 93.41 305.66 93.78 304.7 94.9 303.67 94.9 302.01 92 304.08 92.33 305.04"/><polygon class="cls-1" points="124.34 276.92 123.51 277.75 123.84 278.37 124.34 276.92"/><polygon class="cls-1" points="89.52 314.52 89.42 314.52 89.44 314.6 89.52 314.52"/><polygon class="cls-1" points="88.32 315.01 88.24 315.01 87.74 315.68 87.74 316.34 88.61 315.8 88.32 315.01"/><polygon class="cls-1" points="121.4 286.11 122.35 285.41 121.98 285.04 121.4 286.11"/><polygon class="cls-1" points="88.65 311.12 88.65 311.54 89.48 311.87 89.48 312.03 89.81 311.12 88.65 311.12"/><polygon class="cls-1" points="90.1 310.38 90.22 310.17 90.22 309.46 88.61 309.46 88.11 309.75 88.98 310.67 90.1 310.38"/><polygon class="cls-1" points="109.93 299.2 109.52 298.53 108.94 298.53 108.94 298.66 109.64 299.78 109.93 299.2"/><polygon class="cls-1" points="121.48 283.34 121.95 284.31 122.48 284.5 122.19 283.46 122.77 282.84 122.77 282.14 123.31 281.56 122.39 281.27 121.65 280.9 121.28 281.27 121.57 281.72 121.57 282.35 120.24 282.35 119.45 282.68 119.95 283.34 121.48 283.34"/><polygon class="cls-1" points="89.52 312.9 89.52 312.12 88.86 312.12 88.86 312.86 88.53 313.65 88.77 314.52 89.42 314.52 89.19 313.52 89.52 312.9"/><polygon class="cls-1" points="121.98 284.37 121.95 284.31 121.77 284.25 121.98 284.37"/><polygon class="cls-1" points="100.74 326.52 100.2 325.99 100.04 325.99 100.04 326.86 100.74 327.44 100.74 326.52"/><polygon class="cls-1" points="93.66 322.47 93.86 322.32 93.78 322.34 93.66 322.47"/><polygon class="cls-1" points="134.86 365.86 134.6 366 135.19 366.31 135.85 366.31 135.48 365.86 134.86 365.86"/><polygon class="cls-1" points="93.08 318.16 91.96 319.53 92.79 319.15 93.08 318.16"/><polygon class="cls-1" points="102.02 341.06 101.53 342.71 101.57 342.59 102.64 342.59 104.18 341.02 103.93 340.35 104.14 339.24 102.02 341.06"/><path class="cls-1" d="M102.77,349.59l1.78.91,1.53-1.2H105l-.5-1.08H103.1s-.33,1-.33,1.08Z"/><polygon class="cls-1" points="122.81 372.4 121.07 373.31 121.07 373.39 121.9 373.39 122.77 374.06 123.64 374.06 123.64 373.6 124.05 372.86 123.43 372.86 122.81 372.4"/><polygon class="cls-1" points="91.96 319.53 91.96 319.53 91.96 319.53 91.96 319.53"/><polygon class="cls-1" points="94.74 309.38 94.11 309.67 94.11 311.12 92.75 310.17 92.75 311.29 92.29 311 91.8 311.45 93 312.32 93 311.87 93.45 312.2 93.45 312.61 94.32 314.14 95.81 314.14 95.81 315.39 96.14 315.3 96.64 315.3 97.01 314.19 97.38 313.98 97.43 313.81 97.67 313.81 97.88 313.69 97.68 313.54 97.26 313.69 96.93 313.48 96.93 313.36 96.68 313.36 95.4 312.65 95.4 310.5 94.74 309.38"/><polygon class="cls-1" points="97.68 313.54 98.3 313.32 98.05 313.56 98.46 314.1 97.72 313.81 97.67 313.81 97.38 313.98 97.22 314.52 97.63 314.81 97.01 314.81 96.64 315.39 97.34 315.63 97.34 316.17 96.19 315.72 95.98 316.5 96.43 316.84 96.19 317.33 95.65 317.75 94.53 317.75 94.03 318.24 94.45 318.53 95.4 318.53 96.06 318.53 96.06 318.82 95.52 318.82 96.52 319.78 96.85 319.78 97.34 320.31 99.99 317.66 99.58 318.45 99.99 318.7 99.21 318.99 98.59 320.52 98.59 320.89 97.76 322.47 98.09 322.47 97.39 324.33 97.39 325.53 96.89 326.24 97.26 326.81 97.72 326.61 96.89 327.93 96.89 329.8 96.27 330.42 96.27 331 97.63 331 97.63 330.04 98.21 328.68 98.21 327.85 98.92 326.98 98.38 324.7 98.92 324.7 100.53 322.76 99.29 324.62 99.29 325.99 99.75 326.32 99.75 325.53 100.57 324.87 100.95 326.11 101.61 324.62 101.61 323.58 102.15 323.3 101.94 324.66 103.31 325.7 102.11 325.37 101.69 327.1 101.94 328.39 102.64 328.39 103.06 329.51 101.98 330.58 100.91 333.4 101.15 334.64 100.2 334.06 100.2 335.43 101.48 337.21 101.07 335.55 101.94 335.3 104.22 336.96 104.22 335.68 103.27 334.93 103.84 334.93 105.67 336.09 106.95 336.09 106.95 335.14 108.15 335.14 108.48 334.02 111.67 334.02 109.56 334.6 108.28 338.24 109.85 341.1 110.64 340.64 110.64 342.13 111.67 340.89 112.95 340.89 112.5 342.47 112.91 342.71 111.63 343.71 112 345.45 111.3 346.77 112.08 347.81 113.04 348.63 113.78 348.63 113.28 349.01 112.42 349.01 111.67 347.97 110.97 348.26 111.55 349.3 112.17 349.71 111.17 349.5 110.34 348.68 108.28 349.34 107.32 349.34 105.17 350.42 104.05 351.99 102.52 352.98 101.86 353.94 102.85 353.94 103.35 353.94 103.35 353.36 105.54 352.78 105.54 353.94 106.29 354.72 105.46 355.34 105.92 356.21 106.41 356.21 105 358.94 103.97 359.32 102.93 360.11 102.44 360.11 101.11 360.93 100.16 360.93 98.63 361.93 99.87 361.93 99.87 362.84 99 363.25 100.57 363.5 100.2 363.87 100.82 364.2 101.69 363.95 102.73 363.33 104.38 362.8 104.38 363.58 105.71 363.91 104.63 364.2 104.63 364.82 106.45 364.82 106.45 364.49 107.36 364.25 108.32 365.32 109.14 366.31 111.22 366.31 111.71 365.49 112.7 365.07 114.07 364.58 114.61 363.83 115.73 363.29 114.2 365.11 112.66 366.61 112.66 368.34 111.59 368.34 110.76 368.63 109.81 368.1 107.11 367.81 105.21 368.3 105.21 369.3 104.38 370.08 103.31 370.08 103.31 372.32 102.19 373.35 101.9 373.93 100.66 374.18 100.33 375.47 99.66 375.47 99.37 376.13 97.84 377.25 97.14 377 96.06 377.74 96.06 378.74 97.22 378.74 97.22 377.87 98.63 378.24 99.08 379.69 99.79 379.03 99.5 378.53 100.12 377.66 100.41 378.07 101.19 377.33 101.69 377.33 102.06 376.38 103.27 376.71 104.22 376.29 104.96 376.29 105.5 376 106.04 376.71 106.66 376.71 107.53 377.45 108.56 377.45 108.56 376.79 109.39 376.42 109.6 375.8 109.39 374.68 110.1 373.98 110.68 373.98 110.93 373.52 113.24 372.98 114.44 372.98 115.85 373.93 116.39 373.93 117.92 373.93 118.75 374.22 119.12 373.23 120.53 372.53 121.48 372.82 122.85 371.9 123.8 372.11 124.3 372.11 124.96 371.62 124.96 372.11 125.79 372.57 126.74 371.95 128.85 371.95 130.18 371.66 131.46 372.07 132.08 372.07 133.04 371.28 134.11 371.28 135.06 370.41 135.69 370.41 136.35 370.41 136.35 369.71 137.84 368.68 138.79 368.68 138.79 367.72 138.5 367.06 138.79 366.27 137.09 366.27 135.89 366.73 135.19 366.73 134.07 366.31 133.66 366.31 134.03 365.94 134.36 365.94 134.36 365.74 133.33 365.49 132.46 365.82 133.7 364.95 134.53 364.95 135.52 364.45 135.23 363.62 134.24 363.62 134.98 362.96 135.52 362.42 136.1 362.92 137.01 362.26 137.38 361.68 136.93 361.68 137.22 361.22 136.18 361.22 136.6 360.52 137.26 360.52 137.26 361.01 138 360.02 138.75 359.73 138.75 357.87 139.45 356.13 138.92 355.43 138.63 353.81 136.93 351.7 133.91 351.7 132.04 351.7 132.04 353.11 131.54 353.89 130.55 352.77 129.35 352.49 131.21 350.62 131.21 349.46 129.72 347.06 129.14 347.06 127.86 346.32 127.32 345.4 126.66 345.4 126.2 345.4 125.42 345.12 124.96 345.12 125.83 344.87 126.41 344.87 127.36 344.87 127.94 345.16 128.44 345.69 129.1 345.69 129.72 345.69 127.98 343.54 127.16 342.51 127.65 341.68 128.11 341.68 127.24 341.22 126.87 340.56 126.49 340.56 125.46 338.7 123.93 337.91 121.77 337.41 121.77 336.55 121.28 336.25 120.57 333.89 119.79 332.61 119.25 329.59 118.63 328.6 118.05 328.6 116.22 325.9 115.15 325.65 114.32 324.95 112.95 324.41 112.42 324.91 111.34 325.61 109.81 325.12 109.06 325.12 107.82 324.7 107.45 324.04 108.19 324.41 109.68 324.41 110.92 324 111.3 323 112.54 323 113.66 322.13 112.5 321.6 112.5 320.94 112.04 320.56 110.43 321.43 110.18 321.1 111.42 320.19 112.91 320.19 113.78 319.44 113.78 318.78 114.36 318.41 115.23 316.75 115.77 315.97 115.77 315.43 116.39 314.31 116.22 314.43 116.76 312.9 117.8 312.03 117.8 311.04 116.27 309.63 115.94 309.88 113.33 309.88 111.71 309.59 111.26 309.92 110.47 309.92 109.48 309.59 108.77 309.59 108.77 309.92 107.78 310.21 106.7 310.79 106.29 310.79 105.58 311.37 105.38 311.16 106.33 310.05 107.32 308.43 106.58 308.84 105.67 308.51 106.2 308.18 106.2 307.44 108.73 305.53 109.48 304.29 110.35 304 110.76 302.88 110.3 302.38 110.8 301.6 110.8 301.1 109.52 301.1 109.02 301.64 108.19 301.39 106.95 301.93 105.83 301.93 104.88 302.34 104.34 302.34 103.76 302.88 103.76 302.3 103.27 302.1 102.23 303.01 102.56 302.18 101.11 301.52 100.86 302.43 100.37 302.8 100.37 303.63 100.08 303.63 100.08 304.66 99 304.91 99.5 305.78 99.04 306.65 98.55 306.65 99.79 307.77 100.24 308.56 98.96 307.89 98.5 308.31 97.55 307.69 97.55 308.14 97.8 308.72 97.51 309.18 97.01 308.22 96.56 309.26 97.05 309.8 96.64 310.33 97.39 311.2 98.13 311.2 97.26 311.54 96.39 311.04 96.39 312.45 96.39 312.9 98.01 312.65 96.93 313.19 96.93 313.36 97.43 313.36 97.68 313.54"/><polygon class="cls-1" points="93.99 328.47 93.99 328.4 93.87 328.47 93.99 328.47"/><polygon class="cls-1" points="134.4 366.11 134.6 366 134.4 365.9 134.4 366.11"/><polygon class="cls-1" points="94.57 316.34 94.57 316.96 94.61 316.96 95.19 316.34 94.57 316.34"/><polygon class="cls-1" points="109.02 297.79 109.44 298.24 109.72 297.46 109.72 298.37 110.93 298.37 111.59 298.78 111.59 297.79 110.18 297.79 110.64 297.25 109.89 296.5 108.94 296.5 109.02 296.63 109.02 297.79"/><polygon class="cls-1" points="110.72 296.55 110.72 295.88 110.1 295.88 110.22 296.01 110.72 296.55"/><polygon class="cls-1" points="90.35 320.81 90.35 320.7 90.26 320.77 90.35 320.81"/><polygon class="cls-1" points="90.39 308.39 90.42 308.37 90.39 308.35 90.39 308.39"/><polygon class="cls-1" points="91.63 307.31 91.09 307.6 90.84 308.14 90.42 308.37 91.22 308.97 92.62 307.73 91.63 307.31"/><polygon class="cls-1" points="93.95 324.95 94.04 324.65 93.74 324.95 93.95 324.95"/><polygon class="cls-1" points="97.3 321.31 96.85 320.27 96.02 320.27 94.98 319.11 93.83 319.94 95.48 320.77 94.53 321.27 94.78 321.68 93.86 322.32 96.19 321.8 96.19 322.18 97.3 321.31"/><polygon class="cls-1" points="94.32 323.71 94.04 324.65 94.32 324.37 94.32 323.71"/><polygon class="cls-1" points="96.27 325.82 97.26 323.63 95.07 325.7 95.52 326.86 96.27 325.82"/><polygon class="cls-1" points="95.19 327.68 94.65 325.57 92.79 326.32 92.79 327.97 93.99 327.23 93.99 328.4 95.19 327.68"/><polygon class="cls-1" points="93.99 315.18 93.37 315.18 93.37 315.26 93.87 316.3 94.32 315.88 93.99 315.18"/><polygon class="cls-1" points="98.67 328.22 98.63 328.22 98.96 330.08 100.2 330.58 100.57 329.3 99.7 327.48 98.67 328.22"/><polygon class="cls-1" points="180.11 440.89 180.36 441.84 181.31 442.33 181.31 442.83 180.82 443.12 181.23 443.74 182.1 444.24 182.1 445.11 182.56 445.11 182.89 445.69 182.39 445.69 181.94 446.39 182.27 446.97 184.21 447.8 185.33 447.1 186.03 445.03 186.03 443.37 186.82 440.39 186.12 437.78 186.12 436.13 185.79 434.26 185.12 434.26 184.88 435.38 185.25 436.21 185.25 437.37 184.75 437.37 183.97 436.54 183.18 437.32 181.23 438.03 180.36 439.6 181.11 440.31 180.86 440.89 180.11 440.89"/><polygon class="cls-1" points="218.41 490.62 218.37 491.57 219.7 492.69 220.4 491.9 220.36 490.9 218.41 490.62"/><polygon class="cls-1" points="195.52 439.93 196.26 440.26 196.01 439.69 195.52 439.93"/><polygon class="cls-1" points="222.97 474.09 222.26 474.09 220.86 473.31 219.49 474.8 216.55 474.8 214.15 475.54 212.41 475.21 211.17 474.38 209.76 474.38 208.97 475 208.52 474.43 206.94 475.17 206.94 477.28 208.31 478.56 209.68 478.32 212.12 479.97 213.45 480.3 214.69 481.63 217.59 482.71 218.17 482.33 219.45 483.29 219.7 484.32 222.68 485.52 223.47 485.11 223.47 483.49 224.13 482.71 224.13 481.3 222.93 479.68 224.13 476.54 225.33 475.46 225.58 473.72 224.58 472.52 222.97 474.09"/><polygon class="cls-1" points="179.37 449.95 179.91 449.33 179.41 448.88 179.2 449.5 178.79 449.71 178.79 450.53 178.96 450.53 179.37 450.53 179.37 449.95"/><polygon class="cls-1" points="191.91 435.59 190.47 436.17 190.34 436.21 189.76 436.79 190.47 437.08 191.79 436.62 192.82 436.62 192.82 435.92 192.21 435.17 191.91 435.59"/><polygon class="cls-1" points="186.49 455.46 187.9 454.51 187.9 453.51 187.57 451.98 186.74 451.03 185.79 449.29 185.29 449.79 184.17 448.92 183.18 448.92 180.82 451.74 179.78 451.74 178.29 450.87 178.29 452.27 178.04 453.23 179.08 454.26 179.33 455.25 180.16 456 180.16 457.53 179.25 458.52 179.62 459.31 180.9 459.31 180.9 459.85 180.11 460.8 179.53 463.08 180.07 463.91 180.74 466.56 181.73 467.59 182.31 468.01 182.47 467.63 183.09 467.92 184.05 467.55 184.05 466.06 184.42 465.19 185.66 465.19 186.45 465.98 187.19 465.98 187.69 465.03 187.69 462.63 187.94 461.92 187.65 459.31 188.15 456.95 186.49 455.46"/><polygon class="cls-1" points="135.35 454.96 135.19 454.91 135.11 454.96 135.35 454.96"/><polygon class="cls-1" points="139.29 466.52 139.29 467.68 140.03 468.59 140.78 467.55 141.48 466.85 140.99 466.02 139.29 466.52"/><polygon class="cls-1" points="147.16 461.18 145.87 462 145.58 463.12 146.91 463.54 147.94 464.49 147.94 464.45 148.52 462.75 149.97 461.42 148.65 461.42 147.16 461.18"/><polygon class="cls-1" points="152 459.02 151.71 459.89 151.71 460.1 153.82 460.1 154.86 460.68 155.19 460.02 153.86 458.65 152 459.02"/><polygon class="cls-1" points="19.79 248.39 19.42 249.3 19.83 250.17 19.83 250.34 20.66 249.76 20.45 248.39 19.79 248.39"/><polygon class="cls-1" points="53.16 225.25 52.34 225.87 53 224.71 53 223.76 51.55 223.76 51.18 224.09 50.72 222.89 51.63 221.77 52.59 221.48 52.38 219.78 51.76 219.41 50.89 220.07 49.98 219.2 49.48 218 50.64 217.5 50.64 216.51 51.22 216.01 52.46 215.72 51.14 215.14 50.14 215.43 48.07 217.38 47.7 218.46 46.95 218.46 46.13 217.17 46.62 216.39 46 215.76 45.84 215.06 44.63 214.73 43.64 215.39 42.85 215.02 42.27 216.14 42.77 217.38 42.27 218.29 40.99 218.29 39.71 218.87 39.71 217.79 39.05 217.3 38.3 218.41 37.55 220.07 36.31 220.07 35.11 217.96 34.16 218.21 33.74 217.88 32.75 217.88 32.34 220.03 33.5 222.31 32.09 225.58 32.59 222.76 31.3 220.86 31.3 219.82 30.8 219.32 30.8 218 29.48 217.21 26.95 218.87 26.58 220.28 27.04 221.35 25.96 223.09 25.13 223.09 25.13 221.19 24.26 220.82 24.26 218.17 23.39 217.46 21.82 218.83 22.07 221.77 22.73 222.64 22.73 224.71 21.95 225.74 20.83 225.74 20.83 224.21 19.5 224.87 19 226.41 18.22 226.9 18.22 228.97 17.35 226.94 16.4 226.94 16.4 225.95 17.35 224.75 17.35 223.76 15.9 223.76 16.52 222.93 15.78 221.44 16.73 222.06 17.76 220.98 17.47 220.24 16.27 219.66 17.35 218.87 16.36 217.79 15.65 218.37 15.03 217.38 13.41 216.47 13.41 215.06 12.79 213.82 11.59 214.11 10.23 213.69 8.32 213.69 8.32 214.23 8.86 215.02 9.65 215.02 9.65 214.44 10.6 214.44 11.35 214.94 12.38 215.27 11.88 215.89 10.72 215.52 9.56 215.52 9.56 215.93 11.35 217.09 12.51 218.5 12.17 219.45 11.59 219.45 11.59 219.2 10.27 218.25 9.36 219.04 8.61 218.79 8.98 218 7.95 216.68 6.71 216.14 5.8 216.72 6.71 217.96 6.46 218.62 5.71 217.5 4.68 217.17 4.39 217.96 5.13 218.91 5.88 219.37 6.33 220.03 5.13 219.53 3.98 220.03 4.68 221.02 6.38 221.52 5.55 221.52 5.22 221.81 5.51 222.56 5.09 222.56 3.27 220.86 2.69 220.86 2.07 221.52 2.86 223.01 3.35 223.92 2.86 224.13 1.74 222.64 0.66 222.35 0 223.63 1.37 224.17 2.44 225.37 4.06 225.66 4.84 224.38 6.25 223.96 6.87 222.84 7.29 223.51 7.29 224.13 7.99 224.13 8.82 223.63 9.07 224.83 9.61 224.83 10.64 224.05 10.93 223.34 10.93 224.63 11.35 224.63 12.67 223.55 12.67 224.17 12.26 225.16 12.84 225.62 13.71 224.87 15.07 225.66 14.33 225.95 13.58 225.95 12.67 226.61 11.59 226.61 9.9 227.36 9.9 227.81 12.05 228.43 13.21 228.43 13.71 227.65 14.45 227.36 14.45 228.39 13.71 229.39 11.47 229.63 10.72 229.43 9.69 230.42 9.19 229.8 8.78 229.39 8.78 228.85 8.12 228.85 8.12 229.14 8.36 229.68 7.37 230.42 6.63 230.01 5.55 230.01 4.43 230.59 3.15 230.09 2.28 230.42 1.66 230.42 2.53 231.79 3.02 232.95 4.68 232.95 4.68 232.53 6.75 233.11 9.19 233.11 10.56 233.11 10.56 233.69 9.73 234.27 9.73 234.94 10.89 235.76 11.18 236.59 11.97 236.59 13.58 235.47 13.29 236.3 12.13 237.13 11.51 238.08 12.51 238.83 14.24 237.42 15.61 237.83 15.94 238.58 15.11 238.08 13.83 238.54 12.92 239.32 11.72 239.32 11.72 240.24 11.1 240.98 10.39 240.98 9.56 241.44 9.15 240.61 8.07 239.86 8.07 239.9 7.62 239.9 7.91 241.44 8.53 241.73 8.07 242.06 8.07 244.17 8.57 244.17 8.98 243.67 9.98 244.25 12.13 244.5 13.66 243.34 14.95 244.04 15.94 243.42 16.19 244.17 16.81 244.5 18.18 244.04 18.18 245.41 19.63 246.86 20.66 247.36 21.7 246.49 22.9 246.49 24.97 248.43 27.7 248.43 28.78 248.85 30.52 248.35 30.27 246.9 30.68 246.28 31.01 247.07 32.46 247.44 33.87 246.07 33.87 244.5 35.57 244.5 34.95 245.29 35.4 245.91 35.9 245.29 36.89 245.29 38.05 243.75 38.67 244.09 39.09 244.09 40.2 244.09 40.2 244.04 40.74 243.71 43.48 241.35 44.51 239.94 47.74 239.32 48.36 238.54 48.07 237.96 48.07 237.09 48.69 237.09 48.98 238.04 50.6 238.62 51.55 237.59 51.55 236.8 51.14 236.34 51.14 235.51 51.88 235.31 51.3 233.69 51.8 233.07 52.92 233.74 53.16 234.77 54.2 234.77 54.9 233.4 54.53 232.24 53.37 231.04 53.37 229.76 54.08 229.18 54.08 228.02 55.19 227.44 56.19 227.44 56.81 226.53 55.73 225.45 53.16 225.25"/><polygon class="cls-1" points="212.16 32.13 211.75 32.34 211.75 32.75 211.75 32.88 212.12 34.08 212.91 34.99 214.03 34.99 215.19 34.66 215.19 33.5 214.44 32.63 212.16 32.13"/><polygon class="cls-1" points="217.21 112.58 217.71 111.8 217.71 110.02 216.8 109.06 215.6 109.06 215.23 109.85 215.56 110.84 216.38 111.5 216.38 112.33 217.21 112.58"/><polygon class="cls-1" points="203.09 14.9 203.8 15.61 203.38 16.31 203.72 16.77 204.83 16.77 205.16 17.22 203.43 18.34 203.43 19.05 204.79 21.16 205.74 21.53 206.86 22.23 208.44 22.23 209.47 21.82 209.77 22.06 211.09 21.12 211.83 20.83 214.15 20.62 215.97 20.62 216.97 19.92 217.67 19.92 218.21 20.29 218.21 20.45 217.79 20.91 217.38 21.66 216.68 22.07 215.31 21.78 213.78 21.78 212.62 21.53 212.33 21.99 212.87 22.4 214.77 22.9 215.43 23.39 215.43 23.97 214.81 23.97 213.49 23.48 213.16 23.93 212.45 23.93 211.17 22.98 209.93 22.73 208.31 23.19 208.31 23.85 209.1 24.26 211.42 26.33 212.16 26.33 213.24 25.75 213.9 25.96 214.44 27.2 214.44 28.73 215.35 29.02 216.55 28.65 218.29 28.65 220.07 27.95 221.35 27.95 223.01 27.62 223.01 28.32 222.8 29.4 223.09 30.6 224.46 31.59 225.91 31.59 227.85 31.01 228.27 30.39 228.27 29.85 228.27 29.15 228.77 28.32 229.93 27.16 230.71 27.16 231.54 27.87 232.53 28.49 233.73 28.49 235.1 27.49 235.51 26.91 235.22 25.22 234.94 24.22 235.64 23.44 236.55 22.61 237.5 20.58 238.33 19.5 239.7 17.89 240.03 16.85 240.03 15.9 239.61 14.82 239.61 13.87 239.99 13.17 239.99 12.42 239.53 12.13 237.79 12.13 236.76 11.22 236.05 11.22 233.86 11.22 232.66 11.22 231.75 10.64 230.59 10.64 229.68 10.06 229.68 9.48 229.26 9.11 228.19 9.81 228.19 9.23 228.19 8.32 228.19 7.66 227.44 8.2 227.07 9.28 226.49 9.56 226.24 8.12 225.95 8.12 225.37 8.74 225.66 9.19 225.41 9.81 224.63 10.68 224.63 11.8 224.38 12.63 223.51 12.21 223.09 11.47 222.76 11.47 222.76 12.21 222.47 12.96 222.1 12.26 222.1 11.3 222.43 9.94 222.43 7.91 222.18 7 220.86 6.25 220.24 5.38 219.82 5.38 219.57 6.21 220.28 6.96 220.61 7.74 219.66 7.49 219.16 6.83 218.58 7.25 218.58 8.53 219.53 9.56 219.53 10.77 219.28 11.88 219.28 13.37 219.99 15.15 219.57 16.23 219.08 16.23 218.66 15.03 217.54 14.04 216.38 13.33 216.38 12.5 216.92 11.63 216.92 11.01 216.18 10.6 215.02 11.3 214.52 11.3 214.19 11.76 213.16 12.46 212.29 12.05 212.29 11.39 212.29 10.81 211.58 10.81 210.84 9.77 210.46 8.61 209.59 8.24 209.1 8.49 208.35 7.7 208.64 6.71 208.23 5.63 207.73 5.38 207.07 6.13 207.07 7.91 207.32 9.27 208.06 10.64 208.44 12.34 207.86 12.67 207.11 11.84 206.74 10.72 206.32 10.31 206.32 11.39 206.61 12.79 207.28 13.75 207.28 14.7 206.94 15.65 206.53 15.4 205.95 13.91 205.5 13.33 203.26 13.62 202.39 12.96 201.81 13.62 202.27 14.9 203.09 14.9"/><polygon class="cls-1" points="232.16 57.72 233.57 56.19 234.98 55.61 235.43 55.15 234.23 54.57 233.65 53.87 232.57 53.29 231.08 54.08 230.26 54.82 228.76 53.87 227.28 52.3 226.99 50.72 227.4 50.1 228.39 49.81 228.39 49.15 227.36 47.62 226.9 46.17 225.08 47.37 223.42 48.78 222.02 48.78 219.49 49.36 218.33 50.39 217.77 51.59 218.7 52.17 219.74 53.25 220.73 53.25 220.98 53.95 220.69 54.74 220.69 56.02 219.74 57.72 219.99 59.83 219.03 60.53 219.03 61.7 218.66 62.36 218.66 63.35 219.16 63.35 220.24 62.77 221.44 62.77 222.64 61.61 223.59 61.61 224.42 60.91 225.16 59.42 225.83 58.96 226.78 58.96 227.36 58.55 227.36 59.91 226.78 61.78 227.03 63.27 226.32 64.26 226.74 65.34 227.48 65.34 228.48 64.55 228.48 63.48 229.14 62.48 230.3 61.78 231.33 61.49 232.16 58.88 232.16 57.72"/><polygon class="cls-1" points="209.1 22.15 210.26 22.44 209.77 22.06 209.64 22.15 209.1 22.15"/><polygon class="cls-1" points="257.46 10.02 258.04 10.23 259.49 9.86 261.14 8.4 262.1 7.95 263.92 6.67 263.92 6.09 263.55 5.63 262.39 5.63 261.1 6.33 259.99 7.7 259.03 8.45 257.75 8.82 257 9.61 257.17 9.52 257.46 10.02"/><polygon class="cls-1" points="172.08 30.89 173.36 32.79 173.36 33.95 174.19 33.54 174.81 32.71 174.81 31.55 174.81 30.23 175.31 30.23 176.06 30.89 176.88 30.39 177.17 30.64 176.55 31.92 176.1 33.58 175.85 33.79 175.85 34.66 176.97 35.61 176.97 36.02 177.55 36.4 178.33 36.4 178.71 36.69 178.71 37.76 177.71 38.51 177.17 38.51 177.17 38.05 176.72 37.43 175.15 36.19 174.69 36.19 174.69 37.02 175.52 38.18 176.43 38.63 177.09 39.29 177.09 39.63 176.51 40.25 177.17 41.03 178.29 41.61 179.04 42.15 179.37 42.94 180.28 43.39 180.9 43.39 181.85 43.39 182.14 43.77 181.4 44.3 179.91 44.3 179.91 45.42 180.61 46.66 180.94 46.66 181.89 46.95 183.38 48.44 183.92 49.4 183.55 49.98 183.55 50.56 184.88 50.56 187.24 50.56 188.06 49.89 188.06 48.98 188.64 47.53 189.39 47.24 190.3 47.24 190.3 46.46 189.72 45.17 189.1 44.06 189.1 42.65 188.85 41.78 188.85 40.87 189.35 40.58 189.97 40.87 190.59 41.98 190.59 42.44 190.59 43.1 191.38 42.32 191.58 41.41 191.29 39.38 191.79 38.55 192.2 38.55 192.62 39.29 192.62 40.91 193.03 41.57 193.03 42.32 192.29 43.15 192.29 43.77 192.58 45.46 193.16 45.8 194.19 45.55 196.01 43.68 196.43 42.48 196.43 41.07 196.76 40.41 197.34 40.41 197.92 41.32 197.92 42.77 197.3 44.05 197.3 44.97 198.21 45.42 199.24 45.22 200.15 44.3 200.86 44.3 200.86 44.88 200.2 45.55 199.04 45.96 198.04 46.87 196.01 46.87 194.36 47.53 193.94 48.16 193.94 48.94 192.74 49.4 191.67 50.6 190.88 51.67 190.3 51.67 189.18 52.3 188.89 53.37 188.44 53.37 188.19 52.54 187.77 52.13 186.95 52.54 186.2 52.96 186.2 53.58 186.2 54.16 186.62 56.02 186.62 57.72 187.44 58.09 188.4 58.09 189.35 57.59 190.67 57.59 191.25 57.22 192.04 57.22 193.07 57.22 193.99 56.06 194.32 56.06 194.77 55.69 195.81 55.69 196.06 56.1 196.76 56.1 199.28 56.1 199.95 55.48 200.9 54.86 201.44 54.86 201.44 55.52 200.82 56.02 200.82 56.93 200.53 56.68 200.03 56.68 199.2 57.1 197.55 57.1 196.51 57.76 194.44 58.67 193.53 58.67 192.54 58.92 192.54 59.33 193.69 59.83 195.39 60.12 196.43 60.12 197.63 60.95 197.63 61.57 195.43 61.57 194.44 61.57 193.86 61.24 192.74 60.95 192.37 61.49 192.04 61.49 191.5 61.03 190.8 59.95 190.13 59.95 188.6 60.99 188.6 61.36 189.26 62.15 189.26 62.81 188.97 63.6 189.22 63.6 189.22 64.1 189.22 64.55 190.13 65.13 190.13 65.96 190.13 66.33 190.59 66.33 191.34 67.08 191.34 67.7 191.96 68.4 192.29 68.4 193.07 68.61 193.78 69.44 194.23 69.44 194.23 70.39 195.64 71.51 197.01 71.05 197.46 70.1 197.96 70.1 198.37 70.6 199.08 70.6 199.49 70.89 199.49 71.67 199.04 72.17 198.37 72.17 197.26 73.04 197.26 73.7 199.28 75.69 199.91 76.02 200.36 76.64 200.36 78.34 200.57 79.29 201.02 79.29 201.4 78.71 201.89 78.71 202.6 79.46 202.97 78.96 203.96 78.96 204.75 77.8 204.75 76.44 205.08 76.1 205.08 75.28 204.5 73.62 204.5 72.13 205.08 71.34 205.58 70.27 205.58 66.13 205.58 65.05 205.58 64.1 206.41 63.27 206.61 62.73 205.45 62.15 206.49 61.24 207.86 61.24 208.35 61.24 208.35 59.95 208.35 58.26 208.77 56.81 208.77 55.44 207.86 53.83 207.86 52.46 208.35 52.09 209.55 52.63 210.13 51.67 209.84 51.18 209.84 49.69 210.13 48.69 210.13 46.33 209.8 44.8 210.01 44.14 211.42 42.94 211.42 42.19 211 41.49 211.21 41.03 212.41 41.03 214.19 39.63 215.1 39.63 216.38 39.05 217.09 40.25 217.63 40.25 217.84 39.42 218.25 38.67 218.25 37.22 217.34 36.93 214.52 36.23 213.16 35.48 211.46 33.7 210.71 33.08 209.18 31.26 208.56 30.97 207.24 30.97 206.45 30.1 206.45 29.23 205.62 26.29 204.63 23.89 203.01 22.52 202.18 23.19 201.85 24.35 202.1 26.75 202.1 28.36 201.31 29.11 200.86 28.86 200.86 28.24 200.86 23.81 201.35 23.15 201.35 21.7 200.82 20.25 199.57 18.38 198.58 17.72 197.67 18.3 197.09 19.3 196.47 18.88 196.22 17.39 195.02 15.73 194.52 15.49 193.78 15.86 192.99 17.18 192.99 19.09 192.41 20.21 192.41 21.41 192.12 22.73 192.7 23.06 193.07 23.85 193.07 29.56 193.53 31.01 194.61 32.79 194.81 34.12 196.06 35.57 195.81 36.6 194.94 36.6 194.36 36.02 193.53 33.95 192.74 32.79 192.08 32.79 191.21 33.37 190.75 33.37 190.75 32.88 192.16 31.43 192.45 30.6 192.45 29.52 191.42 26.87 191.42 24.39 191.42 23.64 190.01 22.69 188.89 21.37 188.27 21.08 187.69 21.61 187.44 22.9 186.16 24.93 185.83 26.42 185.83 27.91 186.57 29.36 186.86 31.18 186.28 30.93 185.62 30.14 185.33 28.7 185.33 27.91 184.79 27.49 184.25 26.66 183.8 26.66 183.38 27.16 182.72 26.87 182.72 26.25 183.88 25.3 183.88 24.84 183.26 24.51 181.73 25.13 180.73 25.8 180.03 25.3 180.32 24.51 180.86 24.51 180.86 23.93 182.22 22.86 182.85 22.86 183.22 23.19 184 23.19 184.71 22.4 184.96 21.45 184.17 20 183.43 19.38 182.1 19.67 179.49 21.7 178.5 22.15 178 21.66 178 20.87 177.26 20.41 176.72 20.7 176.72 21.99 178.04 23.68 177.75 24.22 176.72 24.22 176.18 23.11 175.43 21.36 174.56 21.36 173.41 22.61 173.41 23.97 173.78 24.59 173.78 25.59 173.45 25.84 172.45 26.75 171.67 26.75 171.67 27.82 172.08 29.44 172.08 30.89"/><polygon class="cls-1" points="246.36 36.81 247.44 35.48 248.1 35.48 248.72 35.03 249.55 35.03 251.08 35.86 252.2 35.24 252.57 34.33 251.75 34.33 249.88 34.08 249.55 33.41 248.72 33.95 247.94 33.95 246.74 34.78 245.74 36.64 245.87 36.81 246.36 36.81"/><path class="cls-1" d="M177.26,48.24l.46.25.62,1.61.33-.25c-.08,0,.37.33.37.33h.62V49.4l-.37-1.24-1-1.66-.46-1.28h-.5v-.37h-.46l-.7-.62-1-1.49V40.2l-1.28-1.49-.62-.21-.5.66v1.61l.75,1,.58,1.2v2.15l.62,1h1l1.16.91Z"/><polygon class="cls-1" points="217.71 51.72 217.77 51.59 217.63 51.51 217.71 51.72"/><polygon class="cls-1" points="214.52 44.59 214.55 44.58 214.11 44.34 214.52 44.59"/><polygon class="cls-1" points="240.86 40.78 240.86 40.58 240.81 40.58 240.86 40.78"/><polygon class="cls-1" points="240.86 40.58 241.44 40.58 242.35 39.5 242.35 38.8 241.39 37.93 241.15 36.48 240.77 36.48 240.44 37.02 240.19 37.64 240.19 38.71 240.86 39.79 240.86 40.58"/><polygon class="cls-1" points="203.3 12.05 203.72 12.05 204.21 11.47 204.21 10.77 203.59 9.73 202.93 9.48 202.14 10.06 202.14 10.85 202.14 11.51 203.18 12.17 203.3 12.05"/><polygon class="cls-1" points="218.62 41.49 217.71 42.11 217.71 42.85 217.17 43.31 216.18 43.1 215.43 44.01 214.55 44.58 215.23 44.92 216.55 44.92 217.05 46.04 217.46 46.71 217.46 47.41 218.08 47.82 217.5 48.82 218.33 48.82 218.99 49.11 219.49 48.61 221.19 47.58 222.02 47.58 222.84 46.83 222.84 46.13 222.84 44.47 223.59 43.97 224.04 42.9 223.59 41.9 222.6 41.9 222.14 41.16 221.69 40.95 221.06 41.53 219.2 42.4 219.2 41.74 218.62 41.49"/><polygon class="cls-1" points="209.35 0.91 211.42 2.53 212.37 2.73 212.91 2.32 213.49 1.41 212.91 0.91 211.58 1.12 210.22 0.33 209.22 0 208.93 0.46 209.43 0.91 209.35 0.91"/><polygon class="cls-1" points="241.85 11.93 242.39 11.3 241.97 10.31 241.15 9.81 240.65 10.1 240.65 10.77 240.44 10.77 241.1 11.93 241.85 11.93"/><polygon class="cls-1" points="188.19 308.76 186.45 310.5 184.79 311.25 183.63 311.25 182.85 312.45 182.18 313.94 180.9 314.81 179.49 314.81 177.84 316.13 177.38 315.8 176.43 315.8 176.01 317.21 175.02 318.2 175.64 318.7 176.22 318.37 177.25 319.53 177.05 318.33 177.34 317.42 179.49 316.05 179.78 316.3 180.86 316.3 182.27 316.59 183.22 316.26 184.5 316.26 185.58 316.71 186.28 316.38 187.57 314.19 187.28 312.82 187.53 312.24 187.24 310.91 188.19 309.22 188.19 308.76"/><polygon class="cls-1" points="177.75 318.04 177.75 319.36 178.04 319.4 178.71 319.11 179.74 317.95 179.74 317.13 178.71 317.13 177.75 318.04"/><polygon class="cls-1" points="177.59 319.9 177.25 319.53 177.34 320.02 177.59 319.9"/><path class="cls-1" d="M190.22,335.26l.75-1.49s-1-1-.83-1h0l-.33,1.82-.5,1,.25.62Z"/><polygon class="cls-1" points="199.78 327.68 199.33 329.05 200.2 329.34 199.78 327.68"/><polygon class="cls-1" points="191.83 328.72 192.33 329.5 192.33 330.83 193.07 331.74 193.9 331.74 195.39 332.15 195.64 332.74 195.06 333.4 195.56 334.1 196.55 334.1 196.3 333.98 196.8 333.27 196.8 332.4 198.17 331.82 198.83 331.2 198.58 330.42 197.42 329.63 197.42 329.17 198.79 328.51 199.2 326.98 199.2 325.57 198.83 324.5 197.34 324.5 195.64 324.91 195.02 326.07 195.48 326.65 196.47 327.31 196.47 327.97 195.81 327.97 195.52 328.31 194.36 327.52 194.36 326.9 193.74 326.11 193.12 326.52 192.62 327.52 191.83 327.77 191.83 328.72"/><polygon class="cls-1" points="203.3 338.82 203.01 339.77 203.18 339.65 203.55 340.11 204.88 340.56 205.7 339.4 206.49 339.65 206.49 339.07 205.91 338.08 206.2 337 205.25 337 204.79 337.25 204.38 337 203.38 337.25 203.38 338.04 204.38 338.04 204.09 338.37 203.3 338.82"/><polygon class="cls-1" points="188.89 326.86 188.44 325.2 188.44 326.98 187.81 327.97 187.9 327.97 188.89 327.77 188.89 326.86"/><polygon class="cls-1" points="214.81 333.11 213.69 331.29 212.53 330.58 212.49 330.62 212.16 332.32 212.49 333.52 214.56 334.23 214.81 333.11"/><polygon class="cls-1" points="197.46 334.68 197.3 334.47 197.5 334.97 198.08 334.14 198.95 334.14 198.95 333.44 198 333.85 197.46 334.68"/><polygon class="cls-1" points="191.34 335.55 191.79 336.13 191.04 336.42 191.54 337.17 193.41 337.79 195.23 337.79 195.85 337 196.18 337.99 196.47 337.99 196.47 336.96 197.05 335.84 196.84 334.93 196.59 334.93 195.56 334.93 195.14 335.92 194.48 335.92 193.65 336.17 192.45 334.47 192.45 334.72 191.83 334.72 191.34 335.55"/><polygon class="cls-1" points="188.1 335.84 188.56 335.43 187.18 334.91 188.1 335.84"/><polygon class="cls-1" points="187.11 334.89 187.18 334.91 187.15 334.89 187.11 334.89"/><polygon class="cls-1" points="189.35 313.23 190.34 313.23 191.38 312.45 189.97 312.45 189.35 313.23"/><polygon class="cls-1" points="189.55 332.74 189.22 331.7 188.4 329.88 187.53 329.88 186.12 329.13 184.13 329.51 184.13 329.8 183.84 331.37 184.5 332.78 185.7 334.06 186.78 334.06 187.48 334.51 188.77 334.27 189.55 332.74"/><polygon class="cls-1" points="154.98 281.23 155.44 280.65 154.56 280.65 154.98 281.23"/><polygon class="cls-1" points="218.04 176.68 218.06 176.68 217.96 176.55 218.04 176.68"/><path class="cls-1" d="M222.64,170.05l-1.7.46V172h0a19.21,19.21,0,0,0,1.66-1.08Z"/><polygon class="cls-1" points="201.44 208.48 201.94 207.4 201.19 207.4 200.84 207.92 201.44 208.48"/><polygon class="cls-1" points="225.08 174.32 225.08 174.36 225.09 174.31 225.08 174.32"/><polygon class="cls-1" points="224.09 168.23 222.97 168.6 223.3 169.47 223.3 169.51 224.09 168.23"/><polygon class="cls-1" points="203.67 194.36 203.67 191.87 203.51 191.75 200.57 193.53 200.57 194.81 202.31 193.69 203.67 194.36"/><polygon class="cls-1" points="207.48 192.91 207.98 191.91 209.47 191.09 211.71 188.64 210.05 187.03 210.13 187.11 209.26 186.45 209.26 187.4 210.05 188.52 207.98 188.52 207.11 190.18 206.78 188.97 207.57 185.54 206.03 187.94 206.03 189.14 205.16 190.22 205.16 191.38 204.5 191.75 204.25 193.32 204.96 193.32 206.49 191.29 206.49 192.58 207.48 192.91"/><polygon class="cls-1" points="227.85 170.92 227.98 170.92 227.61 170.13 226.41 169.18 226.12 167.4 225.37 167.9 225.83 169.6 225.83 170.76 227.28 171.38 227.85 170.92"/><polygon class="cls-1" points="225.45 172.62 225.09 174.31 226.03 173.82 225.45 172.62"/><polygon class="cls-1" points="225.12 172.29 225.12 171.92 224 171.92 223.55 171.17 221.52 172.87 223.18 174.57 224.04 174.57 224.42 173.99 224.09 174.15 224.09 173.03 225.12 172.29"/><polygon class="cls-1" points="155.44 265.45 154.24 264.67 154.19 264.67 154.81 266.24 155.44 265.45"/><polygon class="cls-1" points="155.31 267.6 153.82 266.9 154.11 267.85 155.31 267.6"/><path class="cls-1" d="M154.94,279.65l0,0v0Z"/><path class="cls-1" d="M153.95,279l1,.63V278.2Z"/><polygon class="cls-1" points="218.04 180.49 218.01 180.59 218.12 181.11 218.04 180.49"/><polygon class="cls-1" points="213.61 187.48 213.61 187.48 214.73 186.99 214.03 185.91 213.61 187.48"/><polygon class="cls-1" points="217.79 179.62 216.92 179.33 216.72 178.29 214.73 178.09 215.02 179.45 214.03 178.71 213.24 180.11 214.77 180.9 213.12 180.9 212.53 182.39 213.82 182.39 212.74 183.76 213.82 183.76 213.82 184.96 214.4 184.96 214.73 183.34 216.22 183.34 216.72 182.6 218.08 182.31 217.79 181.23 218.01 180.59 217.79 179.62"/><polygon class="cls-1" points="170.93 251.08 170.59 250.21 169.22 250.21 170.47 251.58 170.93 251.08"/><polygon class="cls-1" points="170.96 251.04 170.93 251.08 170.96 251.17 170.96 251.04"/><polygon class="cls-1" points="193.82 222.72 195.35 221.44 194.15 221.44 193.6 222.03 193.82 222.72"/><polygon class="cls-1" points="192.74 219.78 192.74 219.78 192.74 219.78 192.74 219.78"/><polygon class="cls-1" points="196.14 197.13 196.18 197.13 196.76 196.06 196.18 195.72 195.64 196.39 196.14 197.13"/><polygon class="cls-1" points="192.74 219.78 193.16 221.4 194.19 219.74 193.94 218.5 192.74 219.78"/><polygon class="cls-1" points="197.55 197.09 199.86 195.31 199.86 194.28 197.92 194.81 197.55 197.09"/><polygon class="cls-1" points="204.92 187.28 204.5 185.54 204.38 185.7 203.55 185.7 203.8 186.32 202.68 187.65 201.48 187.36 201.02 188.69 201.52 189.51 203.18 188.19 204.05 188.19 202.47 189.31 203.18 189.93 204.92 189.43 204.92 187.28"/><polygon class="cls-1" points="211.91 185.41 210.59 184.75 209.64 185.17 210.05 185.58 210.05 185.54 211.91 186.32 211.91 185.41"/><polygon class="cls-1" points="207.65 184.25 207.65 182.93 209.01 181.94 208.68 180.74 206.99 181.4 206.99 182.56 205.25 183.97 205.25 185.83 205.91 186.28 205.91 186.32 207.65 184.25"/><polygon class="cls-1" points="199.86 194.28 200.03 194.23 199.86 194.23 199.86 194.28"/><polygon class="cls-1" points="200.78 208.02 200.84 207.92 200.82 207.9 200.78 208.02"/><polygon class="cls-1" points="193.57 222.06 193.6 222.03 193.57 221.93 193.57 222.06"/><polygon class="cls-1" points="174.19 250.54 175.64 250.54 176.59 249.39 175.93 248.64 174.94 248.64 174.57 249.3 173.28 249.3 172.5 250.79 173.32 251.04 174.19 250.54"/><polygon class="cls-1" points="172.21 248.31 172.3 248.23 172.25 248.23 172.21 248.31"/><polygon class="cls-1" points="175.1 247.32 174.23 246.53 172.3 248.23 173.78 248.23 175.1 247.32"/><polygon class="cls-1" points="202.68 190.26 201.98 191.42 201.98 191.46 203.8 191.21 202.68 190.26"/><polygon class="cls-1" points="191.5 231.13 189.84 231.42 189.35 232.37 189.39 232.41 190.18 232.74 191.5 231.13"/><polygon class="cls-1" points="195.19 198.08 194.85 196.26 193.69 198.29 193.69 199.57 195.19 198.13 195.19 198.08"/><polygon class="cls-1" points="193.57 202.06 193.03 201.4 192.54 202.31 193.2 202.72 193.57 202.06"/><polygon class="cls-1" points="191.71 224.91 191.17 224.54 191.13 224.58 190.47 225.58 191.04 226.32 191.71 225.7 191.71 224.91"/><polygon class="cls-1" points="187.36 233.61 186.37 234.69 187.53 234.69 187.98 235.47 187.98 235.39 188.64 234.81 190.13 232.99 189.18 233.4 187.36 233.61"/><polygon class="cls-1" points="220.49 177.8 222.02 177.8 222.02 177.05 222.89 175.93 222.06 174.65 221.31 175.68 219.78 175.68 219.78 176.68 218.06 176.68 219.28 178.25 220.49 177.8"/><polygon class="cls-1" points="158.25 263.09 158.24 263.04 158.04 262.64 158.09 262.64 157.88 262.06 157.88 262.01 157.17 262.94 157.33 263.09 158.25 263.09"/><polygon class="cls-1" points="171.67 253.57 171.69 253.66 172.08 253.32 171.75 251.91 170.59 253.19 170.59 253.19 171.21 253.72 171.21 253.57 171.67 253.57"/><polygon class="cls-1" points="245.91 158.04 246.74 159.33 247.31 159.33 247.69 158.71 247.65 158.5 247.03 157.75 245.91 158.04"/><polygon class="cls-1" points="245.29 162.81 245.29 164.05 247.03 163.39 247.48 162.27 245.99 161.15 244.21 161.81 244.29 161.81 245.29 162.81"/><polygon class="cls-1" points="160.41 262.3 159.99 261.56 159.08 261.28 159.08 262.64 159.85 262.64 160.41 262.3"/><polygon class="cls-1" points="159 294.97 158.83 294.93 158.83 296.13 159.82 295.8 159 294.97"/><polygon class="cls-1" points="159.04 261.27 159.08 261.28 159.08 261.27 159.04 261.27"/><polygon class="cls-1" points="230.59 168.44 229.72 169.27 229.72 171.42 230.67 171.79 231.42 172.87 231.5 172.83 232.08 171.71 231.33 170.72 231.91 169.43 230.59 168.44"/><polygon class="cls-1" points="238.5 166.7 239.9 167.4 241.19 167.94 241.19 167.86 241.44 166.66 240.81 166 239.45 166 238.5 166.7"/><polygon class="cls-1" points="242.88 166.91 243.09 166.91 243.09 165.79 244.13 164.55 243.75 163.1 241.44 165.13 242.88 166.91"/><polygon class="cls-1" points="157.47 284.33 157.88 283.13 156.88 281.85 157.47 284.33"/><polygon class="cls-1" points="157.18 285.7 157.18 284.88 156.18 285.7 157.18 285.7"/><polygon class="cls-1" points="250.46 156.68 250.5 156.72 250.96 155.77 250.05 155.77 249.59 156.68 250.46 156.68"/><polygon class="cls-1" points="252.28 157.34 253.73 157.55 255.1 158.63 256.42 158.34 257 156.88 255.18 156.88 256.05 155.81 255.02 155.56 254.27 154.94 254.27 155.97 253.65 156.55 252.86 156.18 252.28 156.72 252.28 157.34"/><polygon class="cls-1" points="154.48 280.65 154.56 280.65 154.53 280.61 154.48 280.65"/><polygon class="cls-1" points="158.29 285.2 158.29 285.24 158.38 285.08 158.29 285.2"/><polygon class="cls-1" points="154.53 276.55 154.28 275.93 154.28 275.97 153.2 276.8 153.86 277.21 154.53 276.55"/><polygon class="cls-1" points="155.1 283.5 155.48 282.1 154.28 282.47 155.1 283.5"/><polygon class="cls-1" points="158.29 285.24 157.8 286.24 158.29 286.24 158.29 285.24"/><polygon class="cls-1" points="157.18 284.58 157.18 284.88 157.34 284.75 157.18 284.58"/><polygon class="cls-1" points="240.36 161.52 239.7 162.81 238.95 161.94 237.83 162.76 236.67 162.52 237.17 163.88 239.2 164.5 240.07 164.5 240.11 164.3 243.51 160.9 243.26 160.07 241.19 161.98 240.36 161.52"/><polygon class="cls-1" points="156.06 287.73 157.05 289.18 157.51 288.22 156.8 287.48 156.06 287.73 156.06 287.73"/><polygon class="cls-1" points="235.64 300.85 236.18 301.93 236.84 301.1 236.18 300.52 235.64 300.85 235.64 300.85"/><polygon class="cls-1" points="236.14 306.81 236.14 306.86 236.59 307.48 237.29 306.81 238.46 306.48 238.16 306.03 236.84 306.03 236.14 306.81"/><polygon class="cls-1" points="193.41 304.83 192.58 304.83 192.49 304.99 192.49 305.9 193.16 305.9 193.41 304.83"/><polygon class="cls-1" points="231.91 314.52 232.41 314.52 232.12 315.59 231.37 316.55 231.37 317.13 231.66 316.88 233.15 316.46 233.44 315.68 232.99 315.35 233.24 314.56 234.73 313.4 234.73 312.57 235.68 311.45 235.68 310.87 234.77 310.05 235.31 308.93 235.31 308.18 235.85 307.69 235.1 307.27 234.4 307.69 233.03 307.69 232.16 308.8 231.54 309.96 230.67 310.87 231.08 312.36 230.63 312.65 231.91 314.52"/><polygon class="cls-1" points="231.25 293.9 231.25 292.28 232.53 291.16 232.53 290.09 231 290.09 229.76 291.91 229.76 291.95 230.71 293.48 231.25 293.9"/><polygon class="cls-1" points="223.55 320.06 223.8 317.91 224.46 315.72 224.71 313.81 224 313.07 223.22 314.27 223.22 314.85 222.8 316.75 222.1 317.21 221.97 320.77 221.97 321.97 221.97 322.84 222.39 323.25 222.84 322.13 223.55 320.06"/><polygon class="cls-1" points="249.43 279.94 248.1 278.78 248.1 278.82 248.1 279.86 248.64 280.48 249.43 279.94"/><polygon class="cls-1" points="255.18 283.67 255.2 283.74 255.22 283.71 255.18 283.67"/><polygon class="cls-1" points="253.32 282.1 253.32 283.13 253.82 283.13 253.44 282.22 253.32 282.1"/><polygon class="cls-1" points="254.15 284.66 254.6 285.24 255.43 284.66 255.2 283.74 254.77 284.33 254.15 284.66"/><polygon class="cls-1" points="261.27 228.97 259.28 228.68 258.08 229.55 258.95 230.84 260.07 230.84 260.56 230.22 260.69 230.26 260.11 229.55 261.27 229.55 261.27 228.97"/><polygon class="cls-1" points="241.72 249.51 241.81 249.58 241.85 249.47 241.72 249.51"/><polygon class="cls-1" points="243.09 248.56 242.31 247.9 242.31 248.72 242.18 248.76 242.59 249.1 243.09 248.56"/><polygon class="cls-1" points="245.12 279.16 245.16 279.32 245.3 279.32 245.12 279.16"/><polygon class="cls-1" points="236.51 281.19 235.85 282.22 236.63 282.8 237.34 283.67 238.62 284.08 239.66 285.08 240.53 284.58 240.24 283.46 239.28 283.46 238.58 282.35 239.03 281.85 239.94 281.85 239.94 280.85 238.04 279.53 237.38 279.53 237.38 280.52 238.37 281.14 238 281.72 236.51 281.19"/><polygon class="cls-1" points="243.34 249.98 243.34 249.72 242.51 250.13 241.81 249.58 241.44 250.54 242.18 251.46 243.26 250.84 243.05 250.09 243.34 249.98"/><polygon class="cls-1" points="252.72 280.54 250.79 280.94 250.96 280.94 250.71 281.72 251.62 282.22 252.78 281.27 252.78 280.73 252.62 280.73 252.72 280.54"/><polygon class="cls-1" points="246.36 279.32 245.3 279.32 245.62 279.61 246.36 279.32"/><polygon class="cls-1" points="252.28 297 253.4 296.5 254.52 296.5 255.16 297.59 255.56 296.88 256.67 296.13 257.46 296.38 256.92 295.1 255.76 295.1 255.14 294.48 254.44 294.48 254.44 294.93 253.82 295.72 251.79 296.67 252.28 297"/><polygon class="cls-1" points="257.67 298.82 257.75 298.78 259.24 299.94 259.9 299.53 259.32 298.08 257.67 298.08 257.67 298.82"/><polygon class="cls-1" points="255.31 297.83 255.16 297.59 255.14 297.62 255.31 297.83"/><polygon class="cls-1" points="257.63 294.77 257.58 294.68 257.83 295.43 259.03 295.43 258.74 294.77 257.63 294.77"/><polygon class="cls-1" points="251.79 300.36 251.17 300.61 252.03 300.89 252.03 301.52 251.37 301.97 251.37 302.72 252.37 302.96 253.36 303.92 253.03 304.91 252.49 304.91 251.91 306.15 252.45 306.15 253.44 305.32 253.44 304.66 254.35 302.88 256.13 302.55 257 302.01 257.75 300.89 258.62 300.89 258.91 300.89 258.62 300.48 258 300.11 257 299.36 255.02 299.36 254.48 299.07 253.86 299.86 253.44 299.86 252.82 300.65 252.49 300.02 251.79 299.82 251.79 300.36"/><polygon class="cls-1" points="257.05 470.24 257.46 469.75 257.46 468.63 257 468.63 256.42 469.66 256.42 470.08 256.3 470.24 256.63 470.24 257.05 470.24"/><polygon class="cls-1" points="283.59 457.99 283.78 457.99 283.83 457.9 283.59 457.99"/><polygon class="cls-1" points="292.82 463.54 291.45 463.74 290.75 464.2 289.3 464.69 288.72 465.69 289.67 466.48 290.13 466.31 290.75 466.31 290.75 465.52 291.04 464.78 291.99 464.78 291.99 465.56 291.45 466.02 291.12 466.52 291.99 466.93 293.27 466.93 293.27 465.56 293.07 464.61 292.78 464.61 293.03 463.87 292.82 463.54"/><polygon class="cls-1" points="275.84 466.6 275.64 465.77 274.97 465.52 274.56 465.52 274.56 465.69 275.64 467.06 275.84 466.6"/><polygon class="cls-1" points="282.96 476.79 284.33 478.15 284.87 478.15 284.87 477.45 283.75 476.45 283.21 475.67 282.63 475.67 282.72 475.71 282.39 476.29 282.96 476.79"/><polygon class="cls-1" points="283.79 459.39 284.37 459.89 284.87 459.89 285.62 460.22 285.62 458.98 286.4 458.11 285.74 457.74 285.08 458.36 284.62 457.99 283.78 457.99 283.5 458.4 283.79 459.39"/><polygon class="cls-1" points="289.88 472.31 289.88 472.81 290.58 473.35 291.45 472.93 291.7 471.86 291.41 470.24 291.16 470 290.38 469.66 289.63 470.08 289.63 470.49 290.46 471.11 290.46 472.06 289.88 472.31"/><polygon class="cls-1" points="287.27 481.96 287.73 482.71 288.18 482.58 288.76 481.84 288.76 481.17 288.18 481.17 287.27 481.96"/><polygon class="cls-1" points="291.33 479.39 291.26 479.31 291.16 479.39 291.33 479.39"/><polygon class="cls-1" points="292.28 477.9 290.92 478.15 290.92 478.86 291.26 479.31 292.07 478.57 292.28 477.9"/><polygon class="cls-1" points="293.77 493.88 293.44 494.42 293.44 495.09 292.65 495.75 292.07 495.25 291.41 495.5 290.71 495.5 290.71 494.88 290.38 494.05 290.13 494.05 288.39 493.8 287.02 493.18 285.2 493.18 283.67 494.13 282.51 494.42 281.52 493.93 281.06 493.43 280.27 493.43 280.81 492.93 280.36 492.15 279.36 492.15 279.36 492.64 279.69 492.64 279.32 492.98 278.37 492.98 278.12 492.02 277.83 492.02 277.83 492.56 277.83 493.22 277.33 493.22 277.38 493.64 276.96 492.85 276.96 493.76 276.55 494.59 276.55 495.58 277.5 496 279.65 495.71 280.56 495.96 281.43 495.67 282.72 496.04 284.13 496.87 284.13 497.69 285.74 497.69 287.06 496.87 288.56 496.87 290.96 496.87 292.61 496.87 293.56 496.29 293.98 495.38 293.77 494.46 293.77 493.88"/><polygon class="cls-1" points="258.83 477.12 258.25 476.33 257.46 475.96 256.92 476.2 256.92 476.91 257.79 477.82 258.54 477.82 258.54 477.41 259.32 477.41 258.83 476.83 258.83 477.12"/><polygon class="cls-1" points="272.53 486.6 272.32 486.89 272.28 486.93 271.95 487.72 272.32 488.34 272.32 488.96 272.94 489.29 273.4 488.34 272.74 487.47 272.53 486.6"/><polygon class="cls-1" points="272.32 485.69 272.24 486.23 272.7 486.23 272.32 485.69"/><polygon class="cls-1" points="257.21 474.43 258 474.84 258.41 474.22 258.16 473.89 258.16 473.27 257.58 472.69 257.58 472.15 257.17 471.24 256.42 470.62 256.42 472.15 255.89 472.15 255.1 472.36 255.1 473.72 255.68 474.34 256.01 474.01 256.01 473.35 256.3 473.68 256.3 474.43 257.21 474.43"/><polygon class="cls-1" points="274.15 465.48 273.86 465.19 273.36 465.52 273.36 465.52 273.81 466.1 274.15 465.48"/><polygon class="cls-1" points="271.37 466.85 270.46 467.63 270.09 467.68 270.67 467.68 271.79 467.68 272.41 468.17 272.65 468.59 273.24 468.84 273.73 469.54 274.52 469.54 275.01 470.33 276.18 470.95 277 470.95 277.33 471.49 278.16 472.73 278.66 473.23 278.66 473.93 278.99 474.59 279.94 475.21 280.48 474.92 281.1 475.25 281.56 473.93 280.4 473.93 280.03 474.22 279.16 473.39 279.16 472.44 279.16 471.77 279.16 471.24 278.62 470.24 277.09 468.71 277.09 468.92 276.26 468.92 276.26 468.67 275.14 468.09 274.02 467.68 273.03 466.6 271.37 466.85"/><polygon class="cls-1" points="251.37 462.13 251.37 460.84 251.5 460.88 250.92 460.51 249.8 460.93 249.8 461.59 250.46 461.88 250.46 462.25 251.62 463.45 252.66 463.95 252.95 463.7 252.95 463.25 252.12 462.96 251.37 462.13"/><polygon class="cls-1" points="287.35 479.73 287.93 479.35 287.35 479.35 287.35 479.73"/><polygon class="cls-1" points="293.61 486.35 293.61 486.35 293.61 486.35 293.61 486.35"/><polygon class="cls-1" points="293.32 485.44 293.03 485.89 293.61 486.35 294.44 485.98 294.85 485.31 294.31 485.07 293.32 485.44"/><polygon class="cls-1" points="280.44 452.4 280.36 452.6 279.98 453.76 280.69 453.76 281.02 453.97 281.85 453.56 281.85 452.85 280.94 452.4 280.44 452.4"/><polygon class="cls-1" points="281.39 485.94 282.1 485.69 282.1 485.02 281.27 485.02 280.65 485.94 280.81 485.94 281.39 485.94"/><polygon class="cls-1" points="296.21 476.87 295.43 476.25 294.68 476.25 293.61 477.12 293.56 476.74 293.27 477.2 293.94 477.2 294.64 477.2 295.18 477.82 295.8 477.82 296.09 477.45 296.8 477.12 296.8 476.62 296.42 476.62 296.21 476.87"/><polygon class="cls-1" points="302.34 490.49 302.3 490.45 302.3 490.45 302.34 490.49"/><polygon class="cls-1" points="299.11 491.61 298.41 492.48 298.74 493.06 298.95 494.38 298.87 494.42 299.28 494.42 299.74 493.18 299.11 492.39 299.11 491.61"/><polygon class="cls-1" points="299.57 490.2 299.24 490.78 299.24 491.07 299.57 491.07 299.57 490.82 299.57 490.2"/><polygon class="cls-1" points="281.23 466.97 280.77 466.97 280.69 467.06 281.35 468.13 281.68 468.13 282.01 468.88 282.43 468.88 282.43 467.8 281.76 467.55 281.23 466.97"/><polygon class="cls-1" points="286.15 482.95 286.13 482.93 286.11 482.95 286.15 482.95"/><polygon class="cls-1" points="286.44 481.42 285.82 481.42 285.57 482.46 286.13 482.93 286.73 482.08 286.44 481.42"/><polygon class="cls-1" points="285.49 478.23 285.41 478.23 285.95 478.86 286.69 479.19 286.69 478.57 286.11 478.03 285.49 478.23"/><polygon class="cls-1" points="286.65 454.14 286.4 454.59 286.4 454.67 287.6 455.17 288.31 454.92 288.31 454.34 287.52 454.14 286.65 454.14"/><polygon class="cls-1" points="281.72 482.21 281.72 481.38 281.14 481.8 281.72 482.21"/><polygon class="cls-1" points="280.07 478.69 280.27 479.1 280.94 478.81 280.48 478.19 280.07 478.69"/><polygon class="cls-1" points="280.89 480.43 281.48 480.1 281.48 479.52 280.89 479.52 280.89 480.43"/><polygon class="cls-1" points="303.46 487.3 302.05 488.46 302.05 489.12 302.26 489.37 301.93 490.08 302.3 490.45 302.84 490.45 303.42 489.75 304.12 489.08 304.75 489.08 304.75 488.67 305.08 488.09 305.32 487.38 305.78 487.01 305.78 486.35 304.95 486.68 303.46 487.3"/></g></g></svg>