<svg xmlns="http://www.w3.org/2000/svg" width="161.546" height="234.976" viewBox="0 0 161.546 234.976"><title>icon-pensions</title><g style="isolation:isolate"><g id="Layer_2" data-name="Layer 2"><g id="ICON_-_Pensions" data-name="ICON - Pensions"><path d="M80.773,0A80.864,80.864,0,0,0,0,80.773V95.459a80.855,80.855,0,0,0,73.43,80.4v59.116H88.116V175.86a80.855,80.855,0,0,0,73.43-80.4V80.773A80.864,80.864,0,0,0,80.773,0ZM146.86,95.459a66.163,66.163,0,0,1-58.744,65.653V120.528l27.221-27.221L104.953,82.924,88.116,99.761V76.47l19.878-19.878L97.61,46.209,80.773,63.046,63.936,46.209,53.552,56.593,73.43,76.47v45.32L56.593,104.953,46.209,115.336,73.43,142.557v18.555A66.163,66.163,0,0,1,14.686,95.459V80.773a66.087,66.087,0,0,1,132.174,0Z" fill="#ff2737" style="mix-blend-mode:multiply"/></g></g></g></svg>