<svg xmlns="http://www.w3.org/2000/svg" width="205.604" height="234.976" viewBox="0 0 205.604 234.976"><title>icon-financialmarkets</title><g style="isolation:isolate"><g id="Layer_2" data-name="Layer 2"><g id="ICON_-_Financial_markets" data-name="ICON - Financial markets"><g style="mix-blend-mode:multiply"><path d="M198.261,44.058H154.2V14.686C154.2,7.565,149.054,0,139.517,0H66.087C56.55,0,51.4,7.565,51.4,14.686V44.058H7.343A7.339,7.339,0,0,0,0,51.4V227.633a7.339,7.339,0,0,0,7.343,7.343H95.459V220.29H14.686V58.744H51.4V80.773H36.715V95.459H80.773V80.773H66.087V58.744h73.43V80.773H124.831V95.459h44.058V80.773H154.2V58.744h36.715v51.4H205.6V51.4A7.339,7.339,0,0,0,198.261,44.058Zm-58.744,0H66.087V14.686h73.43Z" fill="#ff2737"/><path d="M161.546,146.86a7.348,7.348,0,0,1,7.343,7.343h14.686a21.993,21.993,0,0,0-14.686-20.676V117.488H154.2v16.039a21.974,21.974,0,0,0,7.343,42.7,7.343,7.343,0,1,1-7.343,7.343H139.517A21.992,21.992,0,0,0,154.2,204.25V220.29h14.686V204.251a21.974,21.974,0,0,0-7.343-42.7,7.343,7.343,0,0,1,0-14.686Z" fill="#ff2737"/></g></g></g></g></svg>