<svg xmlns="http://www.w3.org/2000/svg" width="234.976" height="220.29" viewBox="0 0 234.976 220.29"><title>icon-paymentservices</title><g style="isolation:isolate"><g id="Layer_2" data-name="Layer 2"><g id="ICON_-_Payment_services" data-name="ICON - Payment services"><path d="M227.633,29.372H44.058V7.343A7.343,7.343,0,0,0,36.715,0H0V14.686H29.372V176.232c0,7.121,5.149,14.686,14.686,14.686H60.1a21.771,21.771,0,0,0-1.353,7.343,22.029,22.029,0,0,0,44.058,0,21.771,21.771,0,0,0-1.353-7.343H140.87a21.771,21.771,0,0,0-1.353,7.343,22.029,22.029,0,1,0,44.058,0,21.771,21.771,0,0,0-1.353-7.343H205.6V176.232H44.058V161.546h154.2a7.34,7.34,0,0,0,6.11-3.27l29.372-44.058a7.35,7.35,0,0,0,1.233-4.073V36.715A7.343,7.343,0,0,0,227.633,29.372ZM88.116,198.261a7.343,7.343,0,1,1-7.343-7.343A7.353,7.353,0,0,1,88.116,198.261Zm80.773,0a7.343,7.343,0,1,1-7.343-7.343A7.353,7.353,0,0,1,168.889,198.261Zm51.4-90.339L194.331,146.86H44.058V44.058H220.29Z" fill="#ff2737" style="mix-blend-mode:multiply"/></g></g></g></svg>