<svg xmlns="http://www.w3.org/2000/svg" viewBox="0 0 32 32"><defs><style>.cls-1{fill:#50535b;}</style></defs><title>supervisory_icon</title><g id="Capa_2" data-name="Capa 2"><g id="Reulation_tracker_list" data-name="Reulation tracker list"><path class="cls-1" d="M31.62,23.22,27,19.52V13A11,11,0,0,0,17,2.05V0H15V2.05A11,11,0,0,0,5,13v6.52L.38,23.22A1,1,0,0,0,0,24v3a1,1,0,0,0,1,1H11.1a5,5,0,0,0,9.8,0H31a1,1,0,0,0,1-1V24A1,1,0,0,0,31.62,23.22ZM16,30a3,3,0,0,1-2.82-2h5.63A3,3,0,0,1,16,30Zm14-4H2V24.48L6.35,21H22V19H7V13a9,9,0,0,1,18,0v7a1,1,0,0,0,.38.78L30,24.48Z"/></g></g></svg>