<svg xmlns="http://www.w3.org/2000/svg" width="200" height="200" viewBox="0 0 200 200"><title>Asset 2</title><g id="Layer_2" data-name="Layer 2"><g id="Login"><path d="M104.14,5.9a.4.4,0,0,0,0-.8.4.4,0,0,0,0,.8Z" fill="#fff"/><rect width="200" height="200" fill="#d22227"/><path d="M27.652,149.727H40.481v6.739H14.3L28.789,132.6H16.731v-6.739H42.064Z" fill="#fff"/><path d="M62.362,125.856V142.5q0,1.34.1,2.74a7.48,7.48,0,0,0,.609,2.537,4.217,4.217,0,0,0,1.6,1.847,5.657,5.657,0,0,0,3.085.71,5.552,5.552,0,0,0,3.065-.71,4.4,4.4,0,0,0,1.6-1.847,7.222,7.222,0,0,0,.629-2.537q.1-1.4.1-2.74V125.856h7.916V143.6q0,7.146-3.268,10.433t-10.048,3.288q-6.78,0-10.068-3.288T54.405,143.6V125.856Z" fill="#fff"/><path d="M121.471,156.467h-9.906l-7.592-11.773v11.773H96.017v-30.61H108.4a12.163,12.163,0,0,1,4.466.751,8.41,8.41,0,0,1,5.014,5.054,10.478,10.478,0,0,1,.629,3.654,8.98,8.98,0,0,1-1.685,5.663,8.483,8.483,0,0,1-4.973,2.943Zm-17.5-16.929h1.5a5.8,5.8,0,0,0,3.613-.974,3.747,3.747,0,0,0,0-5.6,5.8,5.8,0,0,0-3.613-.974h-1.5Z" fill="#fff"/><path d="M141.283,125.856v30.61h-7.957v-30.61Z" fill="#fff"/><path d="M164.179,138.482l9.7-12.626h9.824l-12.139,14.493,13.275,16.117H174.531l-10.352-13.275v13.275h-7.957v-30.61h7.957Z" fill="#fff"/><polygon points="135.23 105.018 137.304 95.362 139.378 105.018 149.034 107.092 139.378 109.165 137.304 118.822 135.23 109.165 125.574 107.092 135.23 105.018" fill="#fff"/></g></g></svg>