<svg xmlns="http://www.w3.org/2000/svg" viewBox="0 0 36.57 32"><defs><style>.cls-1{fill:#cfd8e5;}</style></defs><title>interactive_icon-gray</title><g id="Capa_2" data-name="Capa 2"><g id="User_profile_panels" data-name="User profile panels"><path class="cls-1" d="M35.43,0H1.14A1.14,1.14,0,0,0,0,1.14V30.86A1.14,1.14,0,0,0,1.14,32H35.43a1.14,1.14,0,0,0,1.14-1.14V1.14A1.14,1.14,0,0,0,35.43,0ZM34.29,2.29V6.86h-32V2.29Zm-32,11.43V9.14h32v4.57Zm0,2.29H8V29.71H2.29Zm8,13.71V16h24V29.71Z"/><rect class="cls-1" x="4.57" y="3.43" width="2.29" height="2.29"/><rect class="cls-1" x="9.14" y="3.43" width="2.29" height="2.29"/></g></g></svg>