<svg xmlns="http://www.w3.org/2000/svg" width="32" height="30" viewBox="0 0 32 30"><title>services_icon</title><g id="Capa_2" data-name="Capa 2"><g id="Reulation_tracker_list" data-name="Reulation tracker list"><path d="M31,4H6V1A1,1,0,0,0,5,0H0V2H4V24a1.959,1.959,0,0,0,2,2H8.184A2.965,2.965,0,0,0,8,27a3,3,0,0,0,6,0,2.965,2.965,0,0,0-.184-1h5.369A2.965,2.965,0,0,0,19,27a3,3,0,0,0,6,0,2.965,2.965,0,0,0-.184-1H28V24H6V22H27a1,1,0,0,0,.832-.445l4-6A1,1,0,0,0,32,15V5A1,1,0,0,0,31,4ZM12,27a1,1,0,1,1-1-1A1,1,0,0,1,12,27Zm11,0a1,1,0,1,1-1-1A1,1,0,0,1,23,27Zm7-12.3L26.465,20H6V6H30Z" fill="#cfd8e5"/></g></g></svg>