<svg xmlns="http://www.w3.org/2000/svg" width="32" height="32" viewBox="0 0 32 32"><title>supervisory_icon</title><g id="Capa_2" data-name="Capa 2"><g id="Reulation_tracker_list" data-name="Reulation tracker list"><path d="M31.625,23.219,27,19.52V13A11.011,11.011,0,0,0,17,2.051V0H15V2.051A11.011,11.011,0,0,0,5,13v6.52l-4.625,3.7A1,1,0,0,0,0,24v3a1,1,0,0,0,1,1H11.1a5,5,0,0,0,9.8,0H31a1,1,0,0,0,1-1V24A1,1,0,0,0,31.625,23.219ZM16,30a3,3,0,0,1-2.816-2h5.631A3,3,0,0,1,16,30Zm14-4H2V24.48L6.35,21H22V19H7V13a9,9,0,0,1,18,0v7a1,1,0,0,0,.375.781L30,24.48Z" fill="#cfd8e5"/></g></g></svg>