<svg xmlns="http://www.w3.org/2000/svg" width="13.061" height="42.549" viewBox="0 0 13.061 42.549"><title>analysis</title><g id="Capa_2" data-name="Capa 2"><g id="Content"><path d="M7.394,40.8,9.96,41.892V43L.485,38.821,9.96,34.756v1.115L7.394,36.938ZM2.836,38.846l3.622,1.547V37.335Z" transform="translate(-0.065 -0.446)" fill="#50535b"/><path d="M5.007,32.809v-.023a1.893,1.893,0,0,1-.84-1.607c0-1.56,1.128-1.919,2.447-1.919H9.96v.959H6.782c-.912,0-1.728.072-1.728,1.188,0,1.319,1.224,1.4,2.231,1.4H9.96v.96H4.323v-.96Z" transform="translate(-0.065 -0.446)" fill="#50535b"/><path d="M9.96,22.287v.959H9.181v.024a2.37,2.37,0,0,1,.936,1.943,2.781,2.781,0,0,1-2.963,2.7A2.762,2.762,0,0,1,4.167,25.2a2.437,2.437,0,0,1,.96-1.931v-.024h-.8v-.959ZM7.082,26.929a1.946,1.946,0,0,0,2.146-1.848A1.923,1.923,0,0,0,7.094,23.2a1.885,1.885,0,0,0-2.039,1.9A1.911,1.911,0,0,0,7.082,26.929Z" transform="translate(-0.065 -0.446)" fill="#50535b"/><path d="M9.96,19.573v.959H.065v-.959Z" transform="translate(-0.065 -0.446)" fill="#50535b"/><path d="M4.323,18.72V17.6l4.042-1.99L4.323,13.79V12.7l8.8,4.162v1.092L9.433,16.129Z" transform="translate(-0.065 -0.446)" fill="#50535b"/><path d="M5.631,9.529a.9.9,0,0,0-.576.768.684.684,0,0,0,.624.7c.516,0,.707-.648.983-1.308A1.717,1.717,0,0,1,8.281,8.378a1.844,1.844,0,0,1,1.835,1.907,2.027,2.027,0,0,1-1.428,1.991l-.359-.852c.527-.24.9-.516.9-1.151a.858.858,0,0,0-.863-.912c-1.26,0-.828,2.543-2.6,2.543a1.607,1.607,0,0,1-1.6-1.679,1.7,1.7,0,0,1,1.044-1.5Z" transform="translate(-0.065 -0.446)" fill="#50535b"/><path d="M2.2,5.677a.684.684,0,0,1,0,1.367.684.684,0,0,1,0-1.367Zm7.76.2V6.84H4.323V5.881Z" transform="translate(-0.065 -0.446)" fill="#50535b"/><path d="M5.631,1.6a.9.9,0,0,0-.576.768.684.684,0,0,0,.624.7c.516,0,.707-.648.983-1.308A1.717,1.717,0,0,1,8.281.446a1.844,1.844,0,0,1,1.835,1.907A2.027,2.027,0,0,1,8.688,4.345l-.359-.852c.527-.24.9-.516.9-1.151a.858.858,0,0,0-.863-.912c-1.26,0-.828,2.543-2.6,2.543a1.607,1.607,0,0,1-1.6-1.679A1.7,1.7,0,0,1,5.211.794Z" transform="translate(-0.065 -0.446)" fill="#50535b"/></g></g></svg>