<svg xmlns="http://www.w3.org/2000/svg" width="9.198" height="41.674" viewBox="0 0 9.198 41.674"><title>business</title><g id="Capa_2" data-name="Capa 2"><g id="Content"><path d="M.917,45.816V44.329c0-1.644.6-3.022,2.446-3.022a2,2,0,0,1,1.763.888,2.3,2.3,0,0,1,2.315-1.716c1.8,0,2.519,1.452,2.519,3.238v2.1ZM4.9,44.809v-.384c0-1.14-.132-2.111-1.535-2.111-1.367,0-1.511.864-1.511,2.1v.4Zm4.126,0V43.8c0-1.127-.276-2.314-1.655-2.314-1.4,0-1.607,1.344-1.607,2.446v.876Z" transform="translate(-0.917 -4.143)" fill="#50535b"/><path d="M7.465,38.112c.947,0,1.764-.108,1.764-1.271s-.816-1.271-1.764-1.271H4.323V34.61h3.25c1.5,0,2.542.563,2.542,2.23s-1.043,2.23-2.542,2.23H4.323v-.959Z" transform="translate(-0.917 -4.143)" fill="#50535b"/><path d="M5.63,30.577a.9.9,0,0,0-.575.768.683.683,0,0,0,.623.7c.516,0,.708-.647.983-1.307A1.718,1.718,0,0,1,8.28,29.426a1.844,1.844,0,0,1,1.835,1.907,2.027,2.027,0,0,1-1.427,1.991l-.359-.852c.527-.24.9-.516.9-1.151a.859.859,0,0,0-.864-.912c-1.259,0-.827,2.543-2.6,2.543a1.606,1.606,0,0,1-1.595-1.68,1.7,1.7,0,0,1,1.043-1.5Z" transform="translate(-0.917 -4.143)" fill="#50535b"/><path d="M2.2,26.725a.684.684,0,0,1,0,1.367.684.684,0,1,1,0-1.367Zm7.76.2v.959H4.323v-.959Z" transform="translate(-0.917 -4.143)" fill="#50535b"/><path d="M5.007,23.965v-.023a1.893,1.893,0,0,1-.84-1.607c0-1.56,1.127-1.919,2.446-1.919H9.96v.959H6.781c-.911,0-1.727.072-1.727,1.188,0,1.319,1.223,1.4,2.23,1.4H9.96v.96H4.323v-.96Z" transform="translate(-0.917 -4.143)" fill="#50535b"/><path d="M7.345,18.108a1.826,1.826,0,0,0,1.884-1.847,1.93,1.93,0,0,0-1.164-1.715l.468-.815a2.844,2.844,0,0,1,1.583,2.6,2.728,2.728,0,0,1-2.9,2.758,2.732,2.732,0,1,1,.132-5.408ZM6.529,14.69a1.719,1.719,0,0,0-1.475,1.655,1.782,1.782,0,0,0,1.475,1.715Z" transform="translate(-0.917 -4.143)" fill="#50535b"/><path d="M5.63,10.082a.9.9,0,0,0-.575.768.684.684,0,0,0,.623.7c.516,0,.708-.648.983-1.308A1.718,1.718,0,0,1,8.28,8.931a1.844,1.844,0,0,1,1.835,1.907,2.027,2.027,0,0,1-1.427,1.991l-.359-.852c.527-.24.9-.516.9-1.151a.859.859,0,0,0-.864-.912c-1.259,0-.827,2.543-2.6,2.543a1.606,1.606,0,0,1-1.595-1.679,1.7,1.7,0,0,1,1.043-1.5Z" transform="translate(-0.917 -4.143)" fill="#50535b"/><path d="M5.63,5.294a.9.9,0,0,0-.575.768.683.683,0,0,0,.623.7c.516,0,.708-.647.983-1.307A1.718,1.718,0,0,1,8.28,4.143,1.844,1.844,0,0,1,10.115,6.05,2.027,2.027,0,0,1,8.688,8.041l-.359-.852c.527-.24.9-.516.9-1.151a.859.859,0,0,0-.864-.912c-1.259,0-.827,2.543-2.6,2.543a1.606,1.606,0,0,1-1.595-1.68A1.7,1.7,0,0,1,5.21,4.49Z" transform="translate(-0.917 -4.143)" fill="#50535b"/></g></g></svg>