<svg xmlns="http://www.w3.org/2000/svg" width="9.199" height="54.826" viewBox="0 0 9.199 54.826"><title>documents_1</title><g id="Capa_2" data-name="Capa 2"><g id="Content"><path d="M.917,55.272v-1.7a4.928,4.928,0,0,1,1.092-3.526,4.378,4.378,0,0,1,3.441-1.5,4.364,4.364,0,0,1,3.371,1.475A4.81,4.81,0,0,1,9.96,53.593v1.68Zm8.107-1.739a3.79,3.79,0,0,0-.936-2.854,3.578,3.578,0,0,0-2.65-1.128,3.569,3.569,0,0,0-2.71,1.176,3.883,3.883,0,0,0-.876,2.807v.731H9.024Z" transform="translate(-0.917 -0.446)" fill="#50535b"/><path d="M7.153,47.64a2.962,2.962,0,1,1,2.963-2.962A2.959,2.959,0,0,1,7.153,47.64Zm-.012-.959a2,2,0,1,0,0-4.006,2,2,0,1,0,0,4.006Z" transform="translate(-0.917 -0.446)" fill="#50535b"/><path d="M6,36.206v.024a2.171,2.171,0,0,0-.947,1.751,2.016,2.016,0,0,0,2.087,1.991,1.977,1.977,0,0,0,2.087-1.943,2.189,2.189,0,0,0-.972-1.835v-.023H9.54a3.079,3.079,0,0,1,.576,1.787,2.921,2.921,0,0,1-2.975,3,2.975,2.975,0,0,1-2.975-3.011,3.035,3.035,0,0,1,.564-1.739Z" transform="translate(-0.917 -0.446)" fill="#50535b"/><path d="M7.466,33.793c.947,0,1.763-.108,1.763-1.271S8.413,31.25,7.466,31.25H4.323v-.959h3.25c1.5,0,2.543.563,2.543,2.23s-1.044,2.23-2.543,2.23H4.323v-.959Z" transform="translate(-0.917 -0.446)" fill="#50535b"/><path d="M4.935,27.577v-.023A1.592,1.592,0,0,1,4.167,26.2a1.73,1.73,0,0,1,.936-1.56,1.878,1.878,0,0,1-.936-1.69c0-1.439,1.176-1.8,2.363-1.8H9.96v.96H6.686c-.731,0-1.631.048-1.631,1.031,0,1.1,1.067,1.224,1.919,1.224H9.96v.959h-3.2c-.7,0-1.7.084-1.7,1.008,0,1.127,1.14,1.247,1.991,1.247H9.96v.96H4.323v-.96Z" transform="translate(-0.917 -0.446)" fill="#50535b"/><path d="M7.346,18.841a1.826,1.826,0,0,0,1.883-1.847,1.929,1.929,0,0,0-1.163-1.715l.468-.815a2.846,2.846,0,0,1,1.583,2.6,2.728,2.728,0,0,1-2.9,2.758,2.732,2.732,0,1,1,.132-5.408ZM6.53,15.423a1.72,1.72,0,0,0-1.476,1.655A1.783,1.783,0,0,0,6.53,18.793Z" transform="translate(-0.917 -0.446)" fill="#50535b"/><path d="M5.007,12.133v-.023a1.893,1.893,0,0,1-.84-1.607c0-1.56,1.128-1.919,2.447-1.919H9.96v.959H6.782c-.912,0-1.728.072-1.728,1.188,0,1.319,1.224,1.4,2.231,1.4H9.96v.96H4.323v-.96Z" transform="translate(-0.917 -0.446)" fill="#50535b"/><path d="M9.96,5.749v.96H5.211V7.3H4.323V6.709H2.3v-.96H4.323V4.741h.888V5.749Z" transform="translate(-0.917 -0.446)" fill="#50535b"/><path d="M5.631,1.6a.9.9,0,0,0-.576.768.683.683,0,0,0,.624.7c.516,0,.707-.647.983-1.307A1.717,1.717,0,0,1,8.281.446a1.844,1.844,0,0,1,1.835,1.907A2.027,2.027,0,0,1,8.688,4.345l-.359-.852c.527-.24.9-.516.9-1.151a.858.858,0,0,0-.863-.912c-1.26,0-.828,2.543-2.6,2.543a1.607,1.607,0,0,1-1.6-1.68A1.7,1.7,0,0,1,5.211.794Z" transform="translate(-0.917 -0.446)" fill="#50535b"/></g></g></svg>