<svg xmlns="http://www.w3.org/2000/svg" width="10.051" height="33.123" viewBox="0 0 10.051 33.123"><title>theme</title><g id="Capa_2" data-name="Capa 2"><g id="Content"><path d="M9.96,30.337v1.008H1.853v2.183H.917v-5.4h.936v2.206Z" transform="translate(-0.065 -0.404)" fill="#50535b"/><path d="M.065,26.137H4.983l.023-.023a1.893,1.893,0,0,1-.84-1.607c0-1.56,1.128-1.919,2.447-1.919H9.96v.959H6.782c-.912,0-1.728.072-1.728,1.188,0,1.319,1.224,1.4,2.231,1.4H9.96v.96H.065Z" transform="translate(-0.065 -0.404)" fill="#50535b"/><path d="M7.346,20.28a1.826,1.826,0,0,0,1.883-1.847,1.929,1.929,0,0,0-1.163-1.715l.468-.815a2.846,2.846,0,0,1,1.583,2.6,2.728,2.728,0,0,1-2.9,2.758,2.732,2.732,0,1,1,.132-5.408ZM6.53,16.862a1.72,1.72,0,0,0-1.476,1.655A1.783,1.783,0,0,0,6.53,20.232Z" transform="translate(-0.065 -0.404)" fill="#50535b"/><path d="M4.935,13.572v-.023a1.592,1.592,0,0,1-.768-1.355,1.73,1.73,0,0,1,.936-1.56,1.878,1.878,0,0,1-.936-1.69c0-1.439,1.176-1.8,2.363-1.8H9.96V8.1H6.686c-.731,0-1.631.048-1.631,1.031,0,1.1,1.067,1.224,1.919,1.224H9.96v.959h-3.2c-.7,0-1.7.084-1.7,1.008,0,1.127,1.14,1.247,1.991,1.247H9.96v.96H4.323v-.96Z" transform="translate(-0.065 -0.404)" fill="#50535b"/><path d="M7.346,4.836A1.826,1.826,0,0,0,9.229,2.989,1.929,1.929,0,0,0,8.065,1.274L8.533.459a2.846,2.846,0,0,1,1.583,2.6,2.728,2.728,0,0,1-2.9,2.758A2.758,2.758,0,0,1,4.167,3.085,2.74,2.74,0,0,1,7.346.411ZM6.53,1.418A1.72,1.72,0,0,0,5.055,3.073,1.783,1.783,0,0,0,6.53,4.788Z" transform="translate(-0.065 -0.404)" fill="#50535b"/></g></g></svg>