<svg xmlns="http://www.w3.org/2000/svg" width="9.354" height="53.17" viewBox="0 0 9.354 53.17"><title>comments</title><g id="Capa_2" data-name="Capa 2"><g id="Content"><path d="M2.9,46.2a3.869,3.869,0,0,0-1.2,2.759,3.743,3.743,0,0,0,7.484-.024,3.958,3.958,0,0,0-1.2-2.734H9.229a4.659,4.659,0,0,1,.888,2.7,4.708,4.708,0,0,1-4.642,4.714A4.729,4.729,0,0,1,.762,48.9a4.366,4.366,0,0,1,.887-2.7Z" transform="translate(-0.762 -0.446)" fill="#50535b"/><path d="M7.153,45a2.962,2.962,0,1,1,2.963-2.962A2.959,2.959,0,0,1,7.153,45Zm-.012-.959a2,2,0,1,0,0-4.006,2,2,0,1,0,0,4.006Z" transform="translate(-0.762 -0.446)" fill="#50535b"/><path d="M4.935,36.793V36.77a1.592,1.592,0,0,1-.768-1.355,1.73,1.73,0,0,1,.936-1.56,1.878,1.878,0,0,1-.936-1.69c0-1.439,1.176-1.8,2.363-1.8H9.96v.96H6.686c-.731,0-1.631.048-1.631,1.031,0,1.1,1.067,1.224,1.919,1.224H9.96v.959h-3.2c-.7,0-1.7.084-1.7,1.008,0,1.127,1.14,1.247,1.991,1.247H9.96v.96H4.323v-.96Z" transform="translate(-0.762 -0.446)" fill="#50535b"/><path d="M4.935,27.577v-.023A1.592,1.592,0,0,1,4.167,26.2a1.73,1.73,0,0,1,.936-1.56,1.878,1.878,0,0,1-.936-1.69c0-1.439,1.176-1.8,2.363-1.8H9.96v.96H6.686c-.731,0-1.631.048-1.631,1.031,0,1.1,1.067,1.224,1.919,1.224H9.96v.959h-3.2c-.7,0-1.7.084-1.7,1.008,0,1.127,1.14,1.247,1.991,1.247H9.96v.96H4.323v-.96Z" transform="translate(-0.762 -0.446)" fill="#50535b"/><path d="M7.346,18.841a1.826,1.826,0,0,0,1.883-1.847,1.929,1.929,0,0,0-1.163-1.715l.468-.815a2.846,2.846,0,0,1,1.583,2.6,2.728,2.728,0,0,1-2.9,2.758,2.732,2.732,0,1,1,.132-5.408ZM6.53,15.423a1.72,1.72,0,0,0-1.476,1.655A1.783,1.783,0,0,0,6.53,18.793Z" transform="translate(-0.762 -0.446)" fill="#50535b"/><path d="M5.007,12.133v-.023a1.893,1.893,0,0,1-.84-1.607c0-1.56,1.128-1.919,2.447-1.919H9.96v.959H6.782c-.912,0-1.728.072-1.728,1.188,0,1.319,1.224,1.4,2.231,1.4H9.96v.96H4.323v-.96Z" transform="translate(-0.762 -0.446)" fill="#50535b"/><path d="M9.96,5.749v.96H5.211V7.3H4.323V6.709H2.3v-.96H4.323V4.741h.888V5.749Z" transform="translate(-0.762 -0.446)" fill="#50535b"/><path d="M5.631,1.6a.9.9,0,0,0-.576.768.683.683,0,0,0,.624.7c.516,0,.707-.647.983-1.307A1.717,1.717,0,0,1,8.281.446a1.844,1.844,0,0,1,1.835,1.907A2.027,2.027,0,0,1,8.688,4.345l-.359-.852c.527-.24.9-.516.9-1.151a.858.858,0,0,0-.863-.912c-1.26,0-.828,2.543-2.6,2.543a1.607,1.607,0,0,1-1.6-1.68A1.7,1.7,0,0,1,5.211.794Z" transform="translate(-0.762 -0.446)" fill="#50535b"/></g></g></svg>