<svg xmlns="http://www.w3.org/2000/svg" width="234.157" height="238.525" viewBox="0 0 234.157 238.525"><title>icon-consumerfinance</title><g style="isolation:isolate"><g id="Layer_2" data-name="Layer 2"><g id="ICON_-_Consumer_finance" data-name="ICON - Consumer finance"><g style="mix-blend-mode:multiply"><path d="M117.079,134.17a22.362,22.362,0,1,1-22.362,22.362H79.809a37.332,37.332,0,0,0,29.816,36.516v15.661h14.908V193.048a37.269,37.269,0,0,0-7.454-73.786A22.362,22.362,0,1,1,139.44,96.9h14.908a37.332,37.332,0,0,0-29.816-36.516V44.723H109.625V60.385a37.269,37.269,0,0,0,7.454,73.786Z" fill="#ff2737"/><path d="M122.349,2.184a7.451,7.451,0,0,0-10.54,0L0,113.992l10.54,10.54,17.092-17.092v123.63a7.452,7.452,0,0,0,7.454,7.454H199.071a7.452,7.452,0,0,0,7.454-7.454V107.441l17.092,17.092,10.54-10.54Zm69.269,221.433H42.54V92.533l74.539-74.539,74.539,74.539Z" fill="#ff2737"/></g></g></g></g></svg>