<svg xmlns="http://www.w3.org/2000/svg" viewBox="0 0 64.07 18.84"><defs><style>.cls-1{fill:#fff;}</style></defs><title>alerts_logo-s</title><g id="Capa_2" data-name="Capa 2"><g id="Zurik_Alerts_ticker" data-name="Zurik Alerts ticker"><polygon class="cls-1" points="55.16 8 56.5 1.77 57.84 8 64.07 9.34 57.84 10.68 56.5 16.91 55.16 10.68 48.92 9.34 55.16 8"/><path class="cls-1" d="M7.08,6.39V8.2h-7L3.94,1.8H.72V0H7.5L3.64,6.39Z"/><path class="cls-1" d="M17.6,0V4.61a3.7,3.7,0,0,1-.86,2.89A3.91,3.91,0,0,1,14,8.41,3.91,3.91,0,0,1,11.3,7.5a3.7,3.7,0,0,1-.86-2.89V0h2.13V4.32c0,1.07.08,2.23,1.45,2.23s1.45-1.16,1.45-2.23V0Z"/><path class="cls-1" d="M27.93,8.2H25.28L23.27,5h0V8.2H21.11V0H24.3c1.62,0,2.85.77,2.85,2.52a2.2,2.2,0,0,1-1.79,2.32ZM23.24,3.67h.21c.7,0,1.48-.13,1.48-1s-.78-1-1.48-1h-.21Z"/><path class="cls-1" d="M32.81,8.2H30.68V0h2.13Z"/><path class="cls-1" d="M41.1,0h2.64L40.48,3.88,44,8.2H41.27L38.52,4.64h0V8.2H36.37V0H38.5V3.38h0Z"/><path class="cls-1" d="M2,16.37,1,18.7H0l3.78-8.59L7.47,18.7h-1l-1-2.33Zm1.77-4.13-1.4,3.28H5.13Z"/><path class="cls-1" d="M11.05,17.85h2.26v.85H10.14V10.5h.91Z"/><path class="cls-1" d="M16,10.5h4.25v.85H16.91v2.43h3.24v.85H16.91v3.22h3.34v.85H16Z"/><path class="cls-1" d="M24.49,18.7h-.91V10.5h1.18c1.55,0,3,.41,3,2.26A2.14,2.14,0,0,1,25.71,15l2.61,3.67H27.2l-2.48-3.6h-.23Zm0-4.4h.28c1,0,2.08-.2,2.08-1.47s-1-1.48-2.09-1.48h-.27Z"/><path class="cls-1" d="M33.21,18.7H32.3V11.35h-2V10.5h4.89v.85h-2Z"/><path class="cls-1" d="M41.64,12.1a1.5,1.5,0,0,0-1.41-.89,1.3,1.3,0,0,0-1.36,1.27c0,.71.73,1,1.28,1.28l.54.24c1.07.47,2,1,2,2.3a2.59,2.59,0,0,1-5.13.41l.89-.25A1.69,1.69,0,0,0,40.07,18a1.65,1.65,0,0,0,1.69-1.6c0-1-.75-1.28-1.51-1.63l-.5-.22c-1-.43-1.78-.92-1.78-2.1a2.15,2.15,0,0,1,2.29-2.09,2.35,2.35,0,0,1,2.12,1.27Z"/></g></g></svg>