<svg xmlns="http://www.w3.org/2000/svg" viewBox="0 0 31.41 32"><defs><style>.cls-1{fill:#50535b;}</style></defs><title>consumer_icon</title><g id="Capa_2" data-name="Capa 2"><g id="Reulation_tracker_list" data-name="Reulation tracker list"><path class="cls-1" d="M15.71,18a3,3,0,1,1-3,3h-2a5,5,0,0,0,4,4.9V28h2V25.9a5,5,0,0,0-1-9.9,3,3,0,1,1,3-3h2a5,5,0,0,0-4-4.9V6h-2V8.1a5,5,0,0,0,1,9.9Z"/><path class="cls-1" d="M16.41.29A1,1,0,0,0,15,.29l-15,15,1.41,1.41,2.29-2.29V31a1,1,0,0,0,1,1h22a1,1,0,0,0,1-1V14.41L30,16.71l1.41-1.41ZM25.71,30h-20V12.41l10-10,10,10Z"/></g></g></svg>