<svg xmlns="http://www.w3.org/2000/svg" width="61.057" height="18" viewBox="0 0 61.057 18"><title>panel-close-icon-h</title><g id="Capa_2" data-name="Capa 2"><g id="Collapsible_panels" data-name="Collapsible panels"><path d="M2.438,3.731,6.275,12.6l3.853-8.867L12.271,14.9H11.066L9.707,7.751H9.68l-3.4,7.578L2.887,7.751H2.857L1.5,14.9H.295Z" transform="translate(-0.295)" fill="#7e838e"/><path d="M17.992,11.9l-1.275,3H15.428L20.3,3.829,25.051,14.9h-1.3l-1.246-3Zm2.283-5.323L18.468,10.8H22.04Z" transform="translate(-0.295)" fill="#7e838e"/><path d="M28.379,4.333h1.344l2.158,3.978,2.156-3.978h1.346l-2.857,5.1L35.648,14.9H34.3l-2.423-4.342L29.457,14.9H28.112l3.124-5.463Z" transform="translate(-0.295)" fill="#7e838e"/><line x1="43.057" y1="9" x2="61.057" y2="9" fill="none" stroke="#fff" stroke-miterlimit="10"/><line x1="52.057" x2="52.057" y2="18" fill="none" stroke="#fff" stroke-miterlimit="10"/></g></g></svg>