<svg xmlns="http://www.w3.org/2000/svg" viewBox="0 0 32 30"><defs><style>.cls-1{fill:#FF2737;}</style></defs><title>services_icon</title><g id="Capa_2" data-name="Capa 2"><g id="Reulation_tracker_list" data-name="Reulation tracker list"><path class="cls-1" d="M31,4H6V1A1,1,0,0,0,5,0H0V2H4V24a2,2,0,0,0,2,2H8.18A3,3,0,0,0,8,27a3,3,0,0,0,6,0,3,3,0,0,0-.18-1h5.37A3,3,0,0,0,19,27a3,3,0,0,0,6,0,3,3,0,0,0-.18-1H28V24H6V22H27a1,1,0,0,0,.83-.45l4-6A1,1,0,0,0,32,15V5A1,1,0,0,0,31,4ZM12,27a1,1,0,1,1-1-1A1,1,0,0,1,12,27Zm11,0a1,1,0,1,1-1-1A1,1,0,0,1,23,27Zm7-12.3L26.46,20H6V6H30Z"/></g></g></svg>